<?xml version="1.0" encoding="UTF-8" standalone="no"?>
<svg
   xmlns:dc="http://purl.org/dc/elements/1.1/"
   xmlns:cc="http://creativecommons.org/ns#"
   xmlns:rdf="http://www.w3.org/1999/02/22-rdf-syntax-ns#"
   xmlns:svg="http://www.w3.org/2000/svg"
   xmlns="http://www.w3.org/2000/svg"
   xmlns:sodipodi="http://sodipodi.sourceforge.net/DTD/sodipodi-0.dtd"
   xmlns:inkscape="http://www.inkscape.org/namespaces/inkscape"
   width="40mm"
   height="25mm"
   viewBox="0 0 210 297"
   version="1.1"
   id="svg8"
   inkscape:version="1.0.2-2 (e86c870879, 2021-01-15)"
   sodipodi:docname="Logo2.svg">
  <defs
     id="defs2" />
  <sodipodi:namedview
     id="base"
     pagecolor="#ffffff"
     bordercolor="#666666"
     borderopacity="1.0"
     inkscape:pageopacity="0.0"
     inkscape:pageshadow="2"
     inkscape:zoom="0.35"
     inkscape:cx="400"
     inkscape:cy="560"
     inkscape:document-units="mm"
     inkscape:current-layer="layer1"
     inkscape:document-rotation="0"
     showgrid="false"
     inkscape:window-width="1267"
     inkscape:window-height="1041"
     inkscape:window-x="26"
     inkscape:window-y="0"
     inkscape:window-maximized="0" />
  <metadata
     id="metadata5">
    <rdf:RDF>
      <cc:Work
         rdf:about="">
        <dc:format>image/svg+xml</dc:format>
        <dc:type
           rdf:resource="http://purl.org/dc/dcmitype/StillImage" />
        <dc:title></dc:title>
      </cc:Work>
    </rdf:RDF>
  </metadata>
  <g
     inkscape:label="Layer 1"
     inkscape:groupmode="layer"
     id="layer1">
    <g
       id="g558"
       transform="matrix(0.26458333,0,0,0.2674557,-52.612763,-32.853789)">
      <path
         id="path572"
         style="fill:#5a62cc;stroke-width:0.525546"
         transform="matrix(1,0,0,0.9892604,198.85139,122.83825)"
         d="m 507.85156,420.07617 c -19.20508,0.002 -43.65263,0.0242 -74.83398,0.0606 l -141.07617,0.16406 -4.58203,1.14258 c -13.19876,3.28499 -23.57378,9.08799 -32.72071,18.30469 -9.88195,9.9573 -16.79165,23.12277 -19.80664,37.74218 -0.91556,4.43932 -0.94922,10.25994 -0.94922,157.54102 0,145.83865 0.0419,153.14515 0.92578,157.54102 1.85746,9.23746 5.39655,18.17816 10.33399,26.11132 3.24415,5.21254 12.68191,15.31452 17.51953,18.75196 8.16276,5.80014 17.40805,9.80047 26.73437,11.56836 4.79818,0.90953 13.21437,0.96684 145.4043,1.00586 119.81291,0.0351 141.01696,-0.0721 145.14844,-0.74024 30.31166,-4.9019 53.53368,-30.55386 57.02344,-62.99023 0.3399,-3.15924 0.51843,-55.51163 0.52343,-151.72071 0.004,-129.44959 -0.0879,-147.58087 -0.77929,-152.66015 -4.33412,-31.84154 -27.41489,-56.47364 -57.24414,-61.0918 -3.56685,-0.55221 -14.00586,-0.73543 -71.6211,-0.73047 z m -152.05273,67.34766 c 3.2796,0.16578 6.82233,1.44003 10.71094,3.84179 6.05313,3.73868 95.28423,58.6165 118.96484,73.16407 5.32215,3.26953 19.99059,12.29219 32.5957,20.05078 12.60512,7.75859 30.25317,18.59077 39.2168,24.07226 13.78999,8.43295 16.7383,10.45705 19.17187,13.16016 4.03128,4.47778 5.1914,7.89361 4.88868,14.40234 -0.26849,5.77261 -1.37663,8.85798 -4.4668,12.42774 -2.4555,2.83659 -3.21964,3.36177 -18.32227,12.64648 -36.63296,22.52099 -70.34138,43.20058 -72.37304,44.39844 -0.16925,0.0998 -0.9287,-1.50754 -1.68946,-3.57227 -1.61385,-4.38009 -4.72083,-9.73408 -7.31445,-12.60742 -1.00468,-1.11304 -1.72733,-2.11047 -1.60547,-2.21679 0.12185,-0.10634 15.46229,-9.54854 34.08985,-20.98243 18.62756,-11.43388 37.47815,-23.00517 41.88867,-25.71289 4.41053,-2.70773 8.02048,-5.06143 8.02148,-5.23047 0.001,-0.16902 -21.59929,-13.58053 -48,-29.80468 -26.40072,-16.22416 -49.83331,-30.62733 -52.07422,-32.00586 -2.24091,-1.37855 -7.85664,-4.82761 -12.47851,-7.66406 -20.45308,-12.55209 -84.54337,-51.98987 -86.98438,-53.5254 -1.48292,-0.93283 -2.9158,-1.69531 -3.18359,-1.69531 -0.30824,0 -0.48633,45.76726 -0.48633,124.73242 0,68.60244 0.14946,124.73047 0.33203,124.73047 0.18256,0 5.29802,-3.04197 11.36914,-6.75976 6.07112,-3.71778 11.426,-6.91749 11.90039,-7.11133 0.79738,-0.32582 0.85326,0.58239 0.72657,12.0332 l -0.13672,12.38672 -8.4043,5.19141 c -4.62187,2.85543 -9.34422,5.59036 -10.49414,6.07812 -10.75024,4.55997 -23.26885,-3.29128 -25.19336,-15.80078 -0.60132,-3.91154 -0.60934,-256.76831 -0.008,-261.19336 0.61185,-4.50105 2.33814,-8.15899 5.37304,-11.39062 2.99259,-3.18658 6.41374,-5.04193 10.76954,-5.83985 1.03749,-0.19005 2.10211,-0.25838 3.19531,-0.20312 z M 422.1543,598.5625 c 6.6058,0.0284 12.57945,0.4318 17.23047,1.23242 10.71392,1.84429 18.71225,5.35775 25.8125,11.33594 8.40084,7.07346 12.46416,16.53003 12.48046,29.05078 0.0101,7.73469 -1.73855,13.82437 -5.80859,20.22852 -4.00141,6.29615 -10.16539,11.66393 -17.06641,14.86523 -1.75807,0.81554 -3.19531,1.62922 -3.19531,1.80664 0,0.17743 1.31708,0.76247 2.92774,1.30078 4.35142,1.45433 9.5945,4.38757 13.75195,7.69531 2.03083,1.61577 3.69141,3.04436 3.69141,3.17383 0,0.12946 -1.08743,0.89803 -2.41797,1.70899 -1.33054,0.81097 -4.93106,3.04647 -8,4.96679 -3.55883,2.22687 -5.79444,3.32065 -6.17188,3.02149 -0.32548,-0.25798 -1.82447,-1.54474 -3.33203,-2.85938 -5.14276,-4.4846 -13.19027,-7.58507 -22.60352,-8.71093 -2.52101,-0.30152 -9.0534,-0.54971 -14.51562,-0.55274 l -9.93164,-0.004 v 21.82812 21.82813 l -2.29102,1.52343 c -1.26051,0.83829 -5.46138,3.4764 -9.33593,5.86328 -3.87454,2.3869 -7.3704,4.47248 -7.76758,4.63477 -0.62106,0.25378 -0.72266,-9.57214 -0.72266,-70.19336 v -70.49023 l 2.16406,-0.36914 c 11.32457,-1.93647 24.09189,-2.93203 35.10157,-2.88477 z m -0.94532,16.79688 c -2.20994,0.0124 -4.44505,0.10834 -6.64843,0.29492 -4.13441,0.35008 -7.97493,0.77869 -8.53516,0.95117 -1.00329,0.30891 -1.01746,0.71697 -0.88281,27.13086 l 0.13672,26.8164 h 8.77734 c 20.24578,-0.001 28.71001,-2.40588 36.06836,-10.24218 5.06467,-5.39364 7.08398,-10.59064 7.08398,-18.23047 0,-12.35429 -6.52816,-21.1308 -18.33593,-24.65039 -4.63169,-1.38058 -11.03422,-2.1074 -17.66407,-2.07031 z m 60.76172,93.15429 c 0.78849,0 1.12593,1.92739 1.51758,8.67774 0.55791,9.61583 -1.7254,19.14843 -6.41016,26.76953 -7.76428,12.63083 -18.17088,18.9568 -37.19726,22.60937 v 0.002 c -5.62534,1.0799 -8.30976,1.23464 -23.41602,1.35742 -15.86297,0.12896 -27.77721,-0.40862 -28.625,-1.29102 -0.19752,-0.20554 5.09817,-3.72846 11.76758,-7.82812 l 12.12696,-7.45313 7.33007,-0.002 c 17.10305,-0.004 28.11513,-3.46366 35.36719,-11.11524 3.93626,-4.1531 6.15453,-8.86695 7.18945,-15.27148 0.42616,-2.63721 0.81117,-4.82346 0.85547,-4.85742 1.40479,-1.07692 19.08881,-11.59766 19.49414,-11.59766 z" />
      <path
         id="path570"
         style="fill:#7158b1;stroke-width:0.525546"
         transform="matrix(1,0,0,0.9892604,198.85139,122.83825)"
         d="m 436.07422,420.00977 c -97.42856,-0.001 -139.88954,0.17326 -143.11328,0.59179 -8.17601,1.06148 -19.68346,4.97817 -24.4961,8.33594 -2.37931,1.66005 -0.95417,1.3945 2.52735,-0.4707 1.88116,-1.00782 5.07227,-2.37346 7.09179,-3.03321 2.01953,-0.65974 4.01538,-1.32627 4.43555,-1.48242 1.87779,-0.69783 6.47358,-1.51527 7.54492,-1.34179 1.09369,0.1771 1.12623,0.27842 0.43946,1.39453 -0.68251,1.10915 -0.65704,1.2089 0.34179,1.28906 0.86227,0.0692 0.9293,-0.0178 0.32618,-0.42383 -0.60428,-0.40683 -0.52544,-0.5105 0.38867,-0.51758 1.20042,-0.009 1.57871,-0.84861 0.54687,-1.21484 -1.30743,-0.46407 0.27395,-1.50586 2.28711,-1.50586 2.05083,0 2.16352,0.0891 2.77735,2.18359 0.50895,1.73647 0.63885,44.28375 0.63085,207.97657 -0.007,137.70777 0.159,205.79296 0.50196,205.79296 0.30114,0 0.51367,1.79077 0.51367,4.33985 v 4.33789 l -1.65625,0.043 -1.6543,0.0449 1.41211,0.66601 c 2.22433,1.0491 1.09566,1.37008 -2.06445,0.5879 -1.92549,-0.47664 -3.18462,-0.53947 -3.79883,-0.18946 -0.90327,0.51476 -5.98788,-0.17292 -8.28125,-1.12109 -0.56023,-0.23162 -3.03876,-1.11586 -5.50781,-1.96289 -2.46905,-0.84704 -4.60365,-1.73399 -4.74219,-1.97266 -0.13853,-0.23867 -0.60177,-0.43359 -1.03125,-0.43359 -0.42949,0 -1.36396,-0.48939 -2.07617,-1.08594 -1.37906,-1.15506 -2.44913,-1.45117 -1.91406,-0.5293 0.55893,0.96299 7.22711,4.29261 12.10742,6.04493 2.58027,0.92643 6.98401,2.1194 9.78515,2.65039 4.79818,0.90953 13.21437,0.96684 145.4043,1.00586 119.81291,0.0351 141.01696,-0.0721 145.14844,-0.74024 30.31166,-4.9019 53.53368,-30.55386 57.02344,-62.99023 0.3399,-3.15924 0.51843,-55.51163 0.52343,-151.72071 0.004,-129.44959 -0.0879,-147.58283 -0.77929,-152.66211 -3.77787,-27.75504 -21.84508,-50.35067 -46.83594,-58.58007 -10.63398,-3.50174 -1.47359,-3.30462 -153.80664,-3.30664 z m -170.03906,10.72461 c -0.83786,0.17372 -4.22053,2.61455 -4.71289,3.51171 -0.2025,0.36898 0.073,0.27508 0.61132,-0.21093 0.53835,-0.48601 1.7244,-1.28631 2.63477,-1.77735 0.91037,-0.49104 1.6543,-1.14232 1.6543,-1.44726 0,-0.0788 -0.0678,-0.10099 -0.1875,-0.0762 z m -5.59766,4.07421 c -0.0795,-0.009 -0.24764,0.0472 -0.50977,0.1543 -0.45979,0.18788 -0.83593,0.5598 -0.83593,0.82617 0,0.69739 0.29584,0.59925 1.02929,-0.34179 0.33639,-0.4316 0.44899,-0.62446 0.31641,-0.63868 z m -2.58008,2.22266 c -0.13594,0.0221 -0.32671,0.1316 -0.54687,0.32617 -0.42017,0.37132 -0.76367,0.76003 -0.76367,0.86328 0,0.10325 0.3435,0.0486 0.76367,-0.12304 0.42017,-0.1717 0.76367,-0.5604 0.76367,-0.86328 0,-0.15871 -0.0808,-0.22527 -0.2168,-0.20313 z m -2.08984,1.65039 c -0.22889,0.072 -0.62054,0.39302 -1.00196,0.8418 -0.50855,0.59837 -0.68766,1.08789 -0.39843,1.08789 0.64082,0 1.91057,-1.54966 1.56836,-1.91406 -0.0337,-0.0359 -0.0917,-0.0396 -0.16797,-0.0156 z m -2.375,2.47266 c -0.14006,0 -0.66878,0.48743 -1.17578,1.08398 -0.507,0.59654 -0.80607,1.08594 -0.66602,1.08594 0.14006,0 0.66878,-0.4894 1.17578,-1.08594 0.507,-0.59655 0.80608,-1.08398 0.66602,-1.08398 z m -3.7793,4.52343 c -0.0609,0.0125 -0.12724,0.0399 -0.19726,0.0859 -0.28012,0.18434 -0.50977,0.58063 -0.50977,0.87891 0,0.29822 0.22965,0.39137 0.50977,0.20703 0.28011,-0.18434 0.50976,-0.58063 0.50976,-0.87891 0,-0.22374 -0.12987,-0.33055 -0.3125,-0.29297 z m 106.18555,41.7461 c 3.2796,0.16578 6.82233,1.44003 10.71094,3.84179 6.05313,3.73868 95.28423,58.6165 118.96484,73.16407 5.32215,3.26953 19.99059,12.29219 32.5957,20.05078 12.60512,7.75859 30.25317,18.59077 39.2168,24.07226 13.78999,8.43295 16.7383,10.45705 19.17187,13.16016 4.03128,4.47778 5.1914,7.89361 4.88868,14.40234 -0.26849,5.77261 -1.37663,8.85798 -4.4668,12.42774 -2.4555,2.83659 -3.21964,3.36177 -18.32227,12.64648 -36.63296,22.52099 -70.34138,43.20058 -72.37304,44.39844 -0.16925,0.0998 -0.9287,-1.50754 -1.68946,-3.57227 -1.61385,-4.38009 -4.72083,-9.73408 -7.31445,-12.60742 -1.00468,-1.11304 -1.72733,-2.11047 -1.60547,-2.21679 0.12185,-0.10634 15.46229,-9.54854 34.08985,-20.98243 18.62756,-11.43388 37.47815,-23.00517 41.88867,-25.71289 4.41053,-2.70773 8.02048,-5.06143 8.02148,-5.23047 0.001,-0.16902 -21.59929,-13.58053 -48,-29.80468 -26.40072,-16.22416 -49.83331,-30.62733 -52.07422,-32.00586 -2.24091,-1.37855 -7.85664,-4.82761 -12.47851,-7.66406 -20.45308,-12.55209 -84.54337,-51.98987 -86.98438,-53.5254 -1.48292,-0.93283 -2.9158,-1.69531 -3.18359,-1.69531 -0.30824,0 -0.48633,45.76726 -0.48633,124.73242 0,68.60244 0.14946,124.73047 0.33203,124.73047 0.18256,0 5.29802,-3.04197 11.36914,-6.75976 6.07112,-3.71778 11.426,-6.91749 11.90039,-7.11133 0.79738,-0.32582 0.85326,0.58239 0.72657,12.0332 l -0.13672,12.38672 -8.4043,5.19141 c -4.62187,2.85543 -9.34422,5.59036 -10.49414,6.07812 -10.75024,4.55997 -23.26885,-3.29128 -25.19336,-15.80078 -0.60132,-3.91154 -0.60934,-256.76831 -0.008,-261.19336 0.61185,-4.50105 2.33814,-8.15899 5.37304,-11.39062 2.99259,-3.18658 6.41374,-5.04193 10.76954,-5.83985 1.03749,-0.19005 2.10211,-0.25838 3.19531,-0.20312 z M 422.1543,598.5625 c 6.6058,0.0284 12.57945,0.4318 17.23047,1.23242 10.71392,1.84429 18.71225,5.35775 25.8125,11.33594 8.40084,7.07346 12.46416,16.53003 12.48046,29.05078 0.0101,7.73469 -1.73855,13.82437 -5.80859,20.22852 -4.00141,6.29615 -10.16539,11.66393 -17.06641,14.86523 -1.75807,0.81554 -3.19531,1.62922 -3.19531,1.80664 0,0.17743 1.31708,0.76247 2.92774,1.30078 4.35142,1.45433 9.5945,4.38757 13.75195,7.69531 2.03083,1.61577 3.69141,3.04436 3.69141,3.17383 0,0.12946 -1.08743,0.89803 -2.41797,1.70899 -1.33054,0.81097 -4.93106,3.04647 -8,4.96679 -3.55883,2.22687 -5.79444,3.32065 -6.17188,3.02149 -0.32548,-0.25798 -1.82447,-1.54474 -3.33203,-2.85938 -5.14276,-4.4846 -13.19027,-7.58507 -22.60352,-8.71093 -2.52101,-0.30152 -9.0534,-0.54971 -14.51562,-0.55274 l -9.93164,-0.004 v 21.82812 21.82813 l -2.29102,1.52343 c -1.26051,0.83829 -5.46138,3.4764 -9.33593,5.86328 -3.87454,2.3869 -7.3704,4.47248 -7.76758,4.63477 -0.62106,0.25378 -0.72266,-9.57214 -0.72266,-70.19336 v -70.49023 l 2.16406,-0.36914 c 11.32457,-1.93647 24.09189,-2.93203 35.10157,-2.88477 z m -0.94532,16.79688 c -2.20994,0.0124 -4.44505,0.10834 -6.64843,0.29492 -4.13441,0.35008 -7.97493,0.77869 -8.53516,0.95117 -1.00329,0.30891 -1.01746,0.71697 -0.88281,27.13086 l 0.13672,26.8164 h 8.77734 c 20.24578,-0.001 28.71001,-2.40588 36.06836,-10.24218 5.06467,-5.39364 7.08398,-10.59064 7.08398,-18.23047 0,-12.35429 -6.52816,-21.1308 -18.33593,-24.65039 -4.63169,-1.38058 -11.03422,-2.1074 -17.66407,-2.07031 z m 60.76172,93.15429 c 0.78849,0 1.12593,1.92739 1.51758,8.67774 0.55791,9.61583 -1.7254,19.14843 -6.41016,26.76953 -7.76428,12.63083 -18.17088,18.9568 -37.19726,22.60937 v 0.002 c -5.62534,1.0799 -8.30976,1.23464 -23.41602,1.35742 -15.86297,0.12896 -27.77721,-0.40862 -28.625,-1.29102 -0.19752,-0.20554 5.09817,-3.72846 11.76758,-7.82812 l 12.12696,-7.45313 7.33007,-0.002 c 17.10305,-0.004 28.11513,-3.46366 35.36719,-11.11524 3.93626,-4.1531 6.15453,-8.86695 7.18945,-15.27148 0.42616,-2.63721 0.81117,-4.82346 0.85547,-4.85742 1.40479,-1.07692 19.08881,-11.59766 19.49414,-11.59766 z m -229.7539,119.03711 0.9707,1.2207 c 0.91175,1.14667 1.32227,1.46717 1.32227,1.03321 0,-0.10293 -0.51623,-0.65253 -1.14649,-1.22071 z m 3,2.98438 c -0.60777,0 4.41626,4.54258 7.6289,6.89843 3.46957,2.54421 3.37696,2.49264 3.37696,1.87696 0,-0.24334 -0.95898,-1.01549 -2.13086,-1.7168 -1.17188,-0.70137 -3.57115,-2.57732 -5.33203,-4.16797 -1.76088,-1.5906 -3.35504,-2.89062 -3.54297,-2.89062 z" />
      <path
         id="path568"
         style="fill:#8f4c8e;stroke-width:0.525546"
         transform="matrix(1,0,0,0.9892604,198.85139,122.83825)"
         d="m 469.58984,420.00781 c -69.46225,-0.002 -105.11991,0.18034 -105.32812,0.53907 -0.194,0.33424 0.67372,0.54296 2.26172,0.54296 h 2.57812 v 4.33789 c 0,4.26622 0.0214,4.33789 1.27344,4.33789 h 1.27148 v 26.03126 26.03124 H 370.375 c -0.70028,0 -1.27344,0.14011 -1.27344,0.31055 0,0.50367 1.20399,1.62071 2.16406,2.00781 0.84057,0.33893 0.89679,-1.19005 1.00196,-26.875 l 0.11133,-27.23437 0.27148,27.11523 c 0.20955,21.01026 0.12758,27.42215 -0.36328,28.47266 -0.34841,0.74568 -0.63472,1.66037 -0.63672,2.0332 -0.002,0.37285 -0.32778,0.67774 -0.72461,0.67774 -0.39683,0 -0.82354,-0.30489 -0.94922,-0.67774 -0.15438,-0.45795 -0.56654,-0.27491 -1.26758,0.56446 -0.73932,0.8852 -1.1128,1.0418 -1.30078,0.54296 -0.17551,-0.46572 -0.27798,-0.4002 -0.30468,0.19727 -0.0291,0.64988 -0.35646,0.8183 -1.18555,0.60742 -1.01729,-0.25875 -1.061,-0.20231 -0.38281,0.51563 0.95141,1.00716 42.97018,27.05203 119.93945,74.34179 5.32215,3.26993 19.99059,12.29415 32.5957,20.05274 12.60512,7.75859 30.25317,18.59077 39.2168,24.07226 13.78999,8.43295 16.7383,10.45705 19.17187,13.16016 4.03128,4.47778 5.1914,7.89361 4.88868,14.40234 -0.26849,5.77261 -1.37663,8.85798 -4.4668,12.42774 -2.4555,2.83659 -3.21768,3.36177 -18.32031,12.64648 -36.63296,22.52099 -70.34334,43.20058 -72.375,44.39844 -0.16925,0.0998 -0.9287,-1.50754 -1.68946,-3.57227 -1.61385,-4.38009 -4.72083,-9.73408 -7.31445,-12.60742 -1.00468,-1.11304 -1.72537,-2.11047 -1.60352,-2.21679 0.12185,-0.10634 15.46229,-9.54854 34.08985,-20.98243 18.62756,-11.43388 37.4762,-23.00517 41.88672,-25.71289 4.41053,-2.70773 8.02048,-5.06143 8.02148,-5.23047 0.001,-0.16902 -21.59929,-13.58053 -48,-29.80468 -50.96374,-31.319 -51.11228,-31.41201 -66.84375,-41.08203 -17.71327,-10.88824 -55.97419,-34.2956 -63.1543,-38.63672 -8.60772,-5.20427 -12.63424,-7.63562 -15.02343,-9.07227 l -2.29297,-1.3789 1.15234,1.34179 c 0.63282,0.73706 0.99399,1.50351 0.80469,1.70508 -0.18931,0.20158 0.20978,0.37096 0.88672,0.375 0.98157,0.007 1.07606,0.1159 0.4668,0.53516 -0.61775,0.4251 -0.54383,0.52612 0.38281,0.5332 0.63025,0.005 1.14648,0.27919 1.14648,0.60937 0,0.33014 0.35435,0.45499 0.78906,0.27735 0.45324,-0.18519 0.65889,-0.0945 0.48047,0.21289 -0.17114,0.29485 0.033,0.53516 0.45313,0.53516 0.42017,0 0.89133,0.22277 1.04883,0.49414 0.54845,0.94492 -0.3423,2.21875 -1.55274,2.21875 -1.19515,0 -1.21875,0.0944 -1.21875,4.88086 0,4.8446 0.01,4.88085 1.27344,4.88085 h 1.27148 v 30.33594 c 0,19.9646 0.17696,30.45553 0.51758,30.67969 0.28469,0.18735 0.36744,0.59927 0.1836,0.91602 -0.18386,0.31673 -0.28933,33.42488 -0.23633,73.57421 0.0853,64.69508 0.18275,73.05192 0.86914,73.46094 0.67416,0.40174 0.6544,0.55501 -0.15235,1.1875 -0.87353,0.68482 -0.87435,0.74813 -0.0371,1.09375 0.49166,0.20297 0.73249,0.64453 0.53906,0.98828 -0.19222,0.34158 0.0474,0.27727 0.5332,-0.14257 0.62034,-0.53611 1.04401,-0.59377 1.42188,-0.19141 0.37787,0.40236 0.0388,0.68944 -1.13868,0.96484 -1.81738,0.42504 -2.62067,1.08129 -3.15234,2.57617 -0.1878,0.52803 -1.02057,1.1047 -1.84961,1.28125 -0.82905,0.17657 -1.6385,0.68599 -1.79883,1.13086 -0.16682,0.46292 -0.62628,0.67016 -1.07617,0.48633 -0.44984,-0.18382 -0.65267,-0.0919 -0.47461,0.21485 0.17113,0.29485 -0.0213,0.53711 -0.42578,0.53711 -0.40449,0 -1.10797,0.6058 -1.56445,1.34765 -0.45648,0.74184 -1.76666,1.85735 -2.91016,2.47852 -1.1435,0.62116 -1.97689,1.23774 -1.85351,1.36914 0.12338,0.1314 3.64091,-1.86275 7.8164,-4.43164 10.37848,-6.38514 13.94489,-8.48989 14.02539,-8.27149 0.0376,0.10194 0.1355,5.82257 0.2168,12.71289 l 0.14844,12.5293 -1.81446,0.91992 c -0.99783,0.50668 -4.85492,2.83771 -8.57031,5.17969 -3.71538,2.34197 -7.19715,4.40893 -7.73828,4.5918 -0.54114,0.18292 -0.98438,0.66596 -0.98438,1.07422 0,0.5506 0.5685,0.42127 2.19922,-0.50196 1.20918,-0.68462 2.56104,-1.63376 3.00586,-2.10742 0.77042,-0.82034 1.74616,-1.09638 3.16407,-0.89844 0.35458,0.0495 0.58426,-0.1972 0.50976,-0.54687 -0.0745,-0.34975 0.15186,-0.7474 0.50391,-0.88477 0.84236,-0.32875 0.53579,1.94723 -0.33985,2.52344 -0.35333,0.23255 -0.58813,0.63937 -0.52343,0.9043 0.0647,0.26491 -0.72182,0.62741 -1.7461,0.80468 -2.4039,0.41607 -2.85085,0.93616 -1.625,1.89063 1.19708,0.93202 2.92307,0.99633 3.72852,0.13867 1.45663,-1.55107 1.64753,2.49059 1.52734,32.25586 l -0.12109,29.92773 -0.26758,-30.09765 -0.26758,-30.09961 -0.12109,30.09961 -0.1211,30.09765 -3.66992,0.15625 c -4.89217,0.20917 -5.1186,0.65821 -0.33203,0.65821 2.48316,0 4.15249,0.26584 4.79688,0.76758 0.94881,0.73874 0.92988,0.78574 -0.44922,1.15429 -0.78984,0.21107 -8.35306,0.55624 -16.80664,0.76758 -8.45357,0.21134 37.57303,0.42299 102.27929,0.4707 100.22163,0.0736 118.36271,-0.0288 122.48438,-0.69531 30.31166,-4.9019 53.53368,-30.55386 57.02344,-62.99023 0.3399,-3.15924 0.51843,-55.51163 0.52343,-151.72071 0.004,-129.44959 -0.0879,-147.58087 -0.77929,-152.66015 -3.77787,-27.75505 -21.84508,-50.35263 -46.83594,-58.58203 -10.50757,-3.46011 -4.85522,-3.30556 -120.29102,-3.3086 z m -105.85351,65.26563 c -0.18173,0.0369 -0.47058,0.26841 -0.73633,0.60937 -0.40171,0.51541 -0.44124,0.82617 -0.10352,0.82617 0.61551,0 1.33366,-1.0282 0.98047,-1.40429 -0.032,-0.0341 -0.0801,-0.0436 -0.14062,-0.0312 z m -6.85938,1.50586 c -0.23077,0 -0.46164,0.0381 -0.63672,0.11328 -0.35014,0.15044 -0.0636,0.27344 0.63672,0.27344 0.70032,0 0.98686,-0.123 0.63672,-0.27344 -0.17507,-0.0752 -0.40594,-0.11328 -0.63672,-0.11328 z m 2.50586,0.53906 c -0.17693,-0.008 -0.37867,0.0271 -0.5625,0.10547 v -0.002 c -0.40628,0.17311 -0.28666,0.30204 0.30664,0.32812 0.53689,0.0236 0.8372,-0.10495 0.66797,-0.28516 -0.0846,-0.0901 -0.23518,-0.13873 -0.41211,-0.14648 z m 3.70313,1.02539 c -0.74222,0.007 -0.75408,0.0821 -0.0957,0.53516 0.99739,0.68635 1.66985,0.68635 1.27149,0 -0.17312,-0.29828 -0.70211,-0.5392 -1.17578,-0.53516 z m 6.90625,2.23437 c 0.22049,-0.005 0.40095,0.0379 0.48828,0.13086 0.17466,0.18598 0.0367,0.3379 -0.30664,0.3379 -0.34338,-10e-6 -0.48172,0.24469 -0.3086,0.54296 0.38763,0.66791 0.21777,0.67319 -0.75,0.0215 -0.63963,-0.43074 -0.61857,-0.55964 0.14844,-0.87305 0.24722,-0.10103 0.50802,-0.15486 0.72852,-0.16016 z m 1.38281,0.77344 c 0.21316,-0.0474 0.59593,0.0543 1.16406,0.28321 0.67023,0.27 1.14453,0.91985 1.14453,1.56445 0,1.53062 -1.21466,1.37857 -2.03515,-0.25391 -0.51278,-1.02023 -0.62871,-1.51467 -0.27344,-1.59375 z m -14.29492,19.4668 c -0.18364,0.004 -0.20167,0.23265 -0.20117,0.68945 8.4e-4,0.69522 0.42817,0.97728 1.54101,1.01953 0.84654,0.0321 1.47534,0.0185 1.39844,-0.0293 -0.0769,-0.0478 -0.76875,-0.50639 -1.53906,-1.01953 -0.66536,-0.44321 -1.01558,-0.66391 -1.19922,-0.66016 z m 3.71875,2.65625 c -0.11459,-0.0124 -0.19698,-7.6e-4 -0.23438,0.0391 -0.16071,0.17113 -0.0113,0.31055 0.33203,0.31055 0.34329,0 0.49401,0.22625 0.33399,0.50195 -0.16002,0.2757 0.11379,0.61289 0.60742,0.75 1.31197,0.36442 2.16992,0.41036 2.16992,0.11719 0,-0.40657 -2.40687,-1.63205 -3.20898,-1.71875 z m 11.74023,12.28125 c 0.21008,-6e-5 0.38086,15.49565 0.38086,34.43555 0,18.93988 -0.17078,34.43709 -0.38086,34.4375 -0.21009,3.9e-4 -0.38281,-15.49726 -0.38281,-34.4375 0,-18.94024 0.17272,-34.4355 0.38281,-34.43555 z m 48.70117,72.98633 c 7.56619,0.0535 14.77176,0.37962 17.88868,0.95117 11.22397,2.05814 18.95922,5.45162 26.06836,11.4375 8.40084,7.07347 12.46416,16.53003 12.48046,29.05078 0.0101,7.73469 -1.73855,13.82436 -5.80859,20.22852 -4.00141,6.29615 -10.16539,11.66394 -17.06641,14.86523 -1.75807,0.81555 -3.19531,1.62922 -3.19531,1.80664 0,0.17743 1.31708,0.76246 2.92774,1.30078 4.35142,1.45433 9.5945,4.38757 13.75195,7.69531 2.03083,1.61577 3.69141,3.04437 3.69141,3.17383 0,0.12947 -1.08743,0.89802 -2.41797,1.70899 -1.33054,0.81097 -4.93106,3.04646 -8,4.96679 -3.55883,2.22686 -5.79444,3.32065 -6.17188,3.02149 -0.32548,-0.25798 -1.82447,-1.54475 -3.33203,-2.85938 -5.14276,-4.4846 -13.19027,-7.58507 -22.60352,-8.71093 -2.52101,-0.30152 -8.99648,-0.54971 -14.38867,-0.55274 l -9.80273,-0.004 v 21.91601 21.91602 l -4.20313,2.5957 c -2.31094,1.42761 -6.14833,3.79135 -8.52929,5.25195 V 738.5 c -2.38097,1.46061 -5.03885,3.11759 -5.90625,3.68164 -0.86739,0.56406 -1.72712,0.86677 -1.91016,0.67188 -0.53656,-0.57135 -0.39686,-140.52714 0.14063,-140.88086 0.62339,-0.41025 8.98855,-1.71573 16.33398,-2.54883 4.56101,-0.51729 12.48655,-0.73511 20.05273,-0.68164 z m -0.0137,16.62304 c -2.21661,0.0135 -4.46471,0.11193 -6.69336,0.29883 -4.1878,0.35121 -7.98759,0.79033 -8.44336,0.97656 -0.74986,0.30642 -0.82812,2.88533 -0.82812,27.125 v 26.78711 h 8.78516 c 20.25591,-0.001 28.71869,-2.40474 36.07812,-10.24218 5.06467,-5.39364 7.08398,-10.59064 7.08398,-18.23047 0,-12.35429 -6.52816,-21.1308 -18.33593,-24.65039 -4.63849,-1.38262 -10.99664,-2.10481 -17.64649,-2.06446 z m 60.74414,93.14844 c 0.78849,0 1.12593,1.92739 1.51758,8.67774 0.55791,9.61583 -1.7254,19.14843 -6.41016,26.76953 -7.76407,12.6305 -18.16734,18.95583 -37.19726,22.61133 -5.64461,1.08424 -8.28566,1.23474 -23.66992,1.35546 -18.01953,0.14138 -30.55093,-0.5238 -29.24219,-1.55273 0.11672,-0.0918 5.71221,-3.50781 12.43555,-7.5918 l 12.22461,-7.42578 7.38476,-0.002 c 17.1583,-0.004 28.1577,-3.455 35.41797,-11.11524 3.93626,-4.1531 6.15453,-8.86695 7.18945,-15.27148 0.42616,-2.63721 0.81117,-4.82346 0.85547,-4.85742 1.40479,-1.07692 19.08881,-11.59766 19.49414,-11.59766 z m -113.54882,33.62305 c -1.06193,0 -1.35447,0.5903 -0.69141,1.39453 0.86893,1.05395 1.37109,0.94093 1.37109,-0.30859 0,-0.59654 -0.30621,-1.08594 -0.67968,-1.08594 z m -11.40235,8.88281 c -0.0535,0.057 -0.0893,0.24662 -0.10156,0.5625 -0.0221,0.57169 0.0983,0.8931 0.26758,0.71289 0.16923,-0.1802 0.18813,-0.64758 0.041,-1.03906 -0.0813,-0.21631 -0.15349,-0.29335 -0.20703,-0.23633 z m 0.0137,6.49805 c -0.0454,0.041 -0.0732,0.28963 -0.0957,0.7539 -0.0628,1.29738 0.65676,1.63608 1.26172,0.59375 0.21606,-0.37223 0.14111,-0.47865 -0.18555,-0.26367 -0.3022,0.19887 -0.65444,-0.07 -0.7832,-0.5957 -0.0891,-0.36362 -0.15186,-0.52925 -0.19727,-0.48828 z m 19.16797,17.70117 c 0.29665,0 0.53906,0.3651 0.53906,0.8125 0,0.4474 -0.40042,0.79484 -0.89062,0.77148 -0.53769,-0.0259 -0.63792,-0.15263 -0.25195,-0.31835 0.35189,-0.15104 0.50989,-0.49676 0.35156,-0.76954 -0.15833,-0.27278 -0.0447,-0.49609 0.25195,-0.49609 z m -15.08594,7.33984 c -0.50283,0.0363 -1.55352,0.25383 -2.70898,0.57032 l -2.80273,0.76757 2.74414,-0.25586 c 2.61294,-0.24246 3.5375,-0.55999 3.07031,-1.05468 -0.0292,-0.0309 -0.13513,-0.0394 -0.30274,-0.0274 z" />
      <path
         id="path566"
         style="fill:#a54473;stroke-width:0.525546"
         transform="matrix(1,0,0,0.9892604,198.85139,122.83825)"
         d="m 539.71484,420.05469 c -8.13962,0.0235 -17.95183,0.0702 -29.77343,0.13867 -33.62413,0.19463 -61.82373,0.46422 -62.66407,0.59961 -3.78233,0.60937 -3.55134,0.31005 -3.71289,4.82031 -0.0818,2.28402 -0.3684,4.15234 -0.63672,4.15234 -0.30756,0 -0.48828,19.1277 -0.48828,51.75391 v 51.75586 l 1.05664,0.35547 c 0.58133,0.19647 0.92319,0.49981 0.75977,0.67383 -0.16343,0.17402 0.29601,0.73094 1.01953,1.23633 l 1.31445,0.91796 -1.31445,0.26758 c -1.06708,0.21721 -1.20744,0.12874 -0.74023,-0.4707 0.31686,-0.40655 0.37525,-0.76608 0.13086,-0.79883 -0.24438,-0.0327 -1.20083,-0.1266 -2.12696,-0.20898 -0.92613,-0.0824 -1.95859,-0.53631 -2.29297,-1.00782 -0.63452,-0.89467 -2.40924,-0.9272 -2.43164,-0.0449 -0.007,0.27959 0.38396,0.59639 0.86914,0.70313 0.48519,0.10673 1.19287,0.52373 1.57227,0.92773 0.3794,0.404 1.48072,0.96778 2.44726,1.25195 0.96654,0.28418 2.37045,1.02914 3.11915,1.65626 0.81888,0.68587 1.7402,1.01177 2.3125,0.81835 0.60337,-0.20391 0.89944,-0.0782 0.81054,0.3418 -0.15919,0.75243 4.68915,4.91315 5.27539,4.52735 0.21021,-0.13835 0.79584,0.19839 1.30274,0.74804 0.84056,0.91146 1.96527,1.65843 7.28906,4.84961 2.01201,1.20603 8.70676,5.36369 15.5332,9.64649 2.52102,1.58165 8.82376,5.49848 14.00586,8.70312 5.18211,3.20462 12.17184,7.53001 15.53321,9.61328 3.36136,2.08329 9.77794,6.04888 14.25976,8.81055 55.71272,34.32977 55.11974,33.91889 57.74414,39.83203 1.90851,4.30013 2.14465,11.40967 0.53125,15.99805 -2.06021,5.8591 -5.03413,8.34431 -23.64258,19.75781 -15.41461,9.45456 -26.18764,16.11092 -57.01757,35.22656 -7.26995,4.50763 -13.51134,8.19531 -13.86915,8.19531 -0.3578,0 -0.80918,-0.66998 -1.00195,-1.49023 -0.96055,-4.08732 -4.12052,-9.96818 -7.76367,-14.44531 l -2.1543,-2.64844 1.94141,-1.19336 c 1.06817,-0.6563 10.65061,-6.51448 21.29492,-13.01953 10.64432,-6.50505 23.13594,-14.14499 27.75781,-16.97656 4.62188,-2.83158 13.78843,-8.4312 20.3711,-12.44336 6.58267,-4.01216 12.24895,-7.58026 12.59179,-7.92969 0.48275,-0.492 -1.47049,-1.9112 -8.6582,-6.28906 -5.10479,-3.1092 -12.94787,-7.89632 -17.42969,-10.63867 -4.48182,-2.74236 -13.64836,-8.34851 -20.37109,-12.45899 -6.72273,-4.11048 -15.89123,-9.72354 -20.37305,-12.47265 -4.48182,-2.74912 -11.70121,-7.1161 -16.04297,-9.70508 -4.34176,-2.58899 -8.23803,-4.93284 -8.6582,-5.20703 -3.69581,-2.41176 -10.70414,-6.49024 -11.15234,-6.49024 -0.30821,0 -0.56055,-0.21502 -0.56055,-0.47656 0,-0.26155 -1.20323,-1.02277 -2.67383,-1.69141 -1.47059,-0.66862 -3.6462,-1.90844 -4.83398,-2.75586 -3.03875,-2.16802 -4.41142,-2.91882 -3.98242,-2.17968 0.48242,0.83117 -0.34803,0.74329 -1.50586,-0.15821 -1.06375,-0.82825 -2.28321,-0.5905 -2.28321,0.44531 0,0.36351 0.51623,1.17678 1.14649,1.80665 1.14092,1.14022 1.14416,1.20103 0.89062,14.05859 -0.2541,12.88599 -0.25694,12.91497 -1.40039,13.08789 -0.63025,0.0953 -1.14648,0.4002 -1.14648,0.67773 0,0.72653 5.47834,0.63096 5.70703,-0.0996 0.10403,-0.33269 0.63987,-0.47969 1.18945,-0.32813 0.94704,0.2612 0.93983,0.29434 -0.11914,0.6582 -0.61451,0.21116 -1.18764,0.90812 -1.27344,1.54883 -0.12895,0.9633 -0.44183,1.1342 -1.81054,0.98828 -1.23709,-0.13186 -1.65625,0.0412 -1.65625,0.67969 0,0.61206 0.49841,0.85352 1.7539,0.85352 0.96387,0 1.87463,0.21266 2.02539,0.47265 0.24393,0.42028 1.48559,0.82911 4.57227,1.50391 0.5316,0.11622 1.56406,0.56523 2.29297,0.99805 0.7289,0.4328 2.52934,1.40169 4.00195,2.15429 13.07288,6.6811 20.64848,18.13387 21.38281,32.32422 0.61643,11.91194 -2.85793,21.60367 -10.64648,29.68945 -3.35522,3.48326 -9.15358,7.77581 -12.01367,8.89454 -2.4215,0.94716 -2.22533,2.25678 0.41797,2.79296 1.95395,0.39636 2.98895,0.91313 7.60351,3.79688 4.69892,2.93647 8.65821,6.19682 8.65821,7.1289 0,0.32228 -1.54673,1.53924 -3.4375,2.70508 -4.37505,2.69765 -6.38516,4.16213 -6.90625,5.03125 -0.2273,0.37905 -0.64993,0.53429 -0.93946,0.34375 -0.28952,-0.19053 -1.18395,0.16911 -1.98633,0.80078 -0.80236,0.63167 -2.00505,1.14844 -2.67382,1.14844 -1.08718,0 -1.83965,-0.48226 -4.39844,-2.82031 -0.40419,-0.36932 -0.97735,-0.71555 -1.27344,-0.76953 -1.44548,-0.26358 -3.33984,-1.33151 -3.33984,-1.88281 0,-0.35215 -0.43967,-0.49741 -1.01953,-0.33594 -0.56061,0.1561 -0.89902,0.0776 -0.75196,-0.17578 0.23757,-0.40931 -3.87971,-2.69141 -4.85547,-2.69141 -0.21185,0 -0.49275,0.60124 -0.625,1.33789 -0.13224,0.73665 -0.0601,1.22114 0.16016,1.07617 0.22029,-0.14497 0.52141,-0.0547 0.66992,0.20118 0.14851,0.25586 0.9787,0.42197 1.84375,0.36718 1.03719,-0.0657 1.73329,0.21782 2.04297,0.83399 0.38641,0.76879 0.19236,0.99326 -1.0957,1.26757 -0.86097,0.18293 -2.45898,0.18004 -3.55078,-0.006 -1.14774,-0.19543 -1.98633,-0.11705 -1.98633,0.18359 0,0.68597 2.01521,1.81287 3.44726,1.92773 l 1.13672,0.0899 v 17.78125 c 0,11.97088 -0.17395,17.78125 -0.53125,17.78125 -0.33517,0 -0.47486,1.54829 -0.38086,4.20312 0.0818,2.31161 0.35277,4.11961 0.60157,4.01953 0.24879,-0.10004 0.62777,0.12398 0.84375,0.4961 0.46685,0.80435 -0.63341,2.12695 -1.76954,2.12695 -0.99684,0 -1.03319,0.74801 -0.0762,1.59375 1.00101,0.88462 4.18841,0.18573 6.39649,-1.40234 0.9754,-0.70151 2.04005,-1.27539 2.36523,-1.27539 0.32518,0 0.72353,-0.36705 0.88477,-0.81446 0.16123,-0.4474 0.61976,-0.8125 1.01953,-0.8125 0.39977,0 1.38018,-0.87298 2.17969,-1.93945 0.79951,-1.06648 1.88519,-2.39507 2.41211,-2.95313 2.52136,-2.67028 4.0703,-7.08217 5.14062,-14.64257 0.26028,-1.83857 0.63644,-2.13371 10.17578,-7.99805 5.44838,-3.34942 10.13182,-6.08984 10.40625,-6.08984 2.07358,0 2.29152,15.83588 0.32813,23.83007 -2.2121,9.00683 -8.39304,18.96672 -14.94727,24.08985 -2.46615,1.92764 -12.3164,7.53558 -12.3164,7.01172 0,-0.16043 -0.29351,-0.032 -0.65235,0.28515 -0.35884,0.3171 -1.21857,0.70585 -1.91015,0.86328 -2.0434,0.4653 -6.19804,1.94955 -8.38672,2.9961 l -2.03711,0.97265 0.2539,38.98438 0.25391,38.98437 1.14648,0.17383 c 2.27589,0.34415 1.08088,1.18164 -1.68554,1.18164 -1.75777,0 -2.71105,0.20626 -2.51563,0.54297 0.17312,0.29828 0.0151,0.56242 -0.35156,0.58789 -0.36668,0.0256 -0.0781,0.238 0.64258,0.47071 0.72071,0.2327 3.68427,0.45774 6.58398,0.5 2.89971,0.0423 5.38871,0.20171 5.53125,0.35351 0.14254,0.15183 28.92229,0.19992 63.95508,0.10742 69.26587,-0.1827 64.44729,0.0206 74.39062,-3.14258 5.76253,-1.83323 14.36801,-6.57754 19.86524,-10.95117 15.33945,-12.20412 24.79385,-29.9758 26.75195,-50.29101 0.38291,-3.97287 0.49166,-50.61669 0.36133,-154.28906 -0.16848,-134.00553 -0.26712,-148.99213 -1.00586,-152.66016 -6.47159,-32.13236 -29.42712,-54.51828 -59.53516,-58.0586 -3.33719,-0.39241 -12.69439,-0.53133 -37.11328,-0.46093 z m -105.93359,105.1582 c -0.28011,0 -0.50977,0.2447 -0.50977,0.54297 0,0.29827 0.22966,0.54102 0.50977,0.54102 0.28011,0 0.50977,-0.24275 0.50977,-0.54102 0,-0.29827 -0.22966,-0.54297 -0.50977,-0.54297 z m 2.4707,4.49609 c -0.0376,-0.0261 -0.34308,0.12332 -0.94336,0.42774 -0.70028,0.35512 -1.36765,0.73501 -1.48437,0.84375 -0.69892,0.65113 0.95822,0.0457 1.76953,-0.64649 0.46609,-0.39761 0.69581,-0.59887 0.6582,-0.625 z m 5.11524,1.05079 c -0.0752,-0.0706 -0.25143,0.0824 -0.45508,0.41796 -0.27154,0.44741 -0.49414,1.0572 -0.49414,1.35547 0,0.29827 0.2226,0.17788 0.49414,-0.26953 0.27153,-0.4474 0.49414,-1.05915 0.49414,-1.35742 0,-0.0746 -0.014,-0.12297 -0.0391,-0.14648 z m -0.14453,36.93945 c -0.18263,-0.0327 -0.31055,0.0873 -0.31055,0.32422 0,0.31587 0.22966,0.57422 0.50977,0.57422 0.28011,0 0.50781,-0.10675 0.50781,-0.23828 0,-0.13154 -0.2277,-0.38988 -0.50781,-0.57422 -0.07,-0.0461 -0.13835,-0.075 -0.19922,-0.0859 z m 4.58398,8.67773 c 0.0609,0.0109 0.12724,0.0379 0.19727,0.084 0.28012,0.18434 0.50976,0.44268 0.50976,0.57422 0,0.13153 -0.22964,0.24023 -0.50976,0.24023 -0.28011,0 -0.50782,-0.25835 -0.50782,-0.57422 0,-0.2369 0.12792,-0.35691 0.31055,-0.32422 z m -4.99609,42.92188 c -1.15006,0.0428 -1.05652,1.3028 0.4414,1.70312 0.95088,0.25413 1.20433,0.71275 1.26953,2.29297 l 0.082,1.97461 0.21484,-1.89648 c 0.11811,-1.04275 0.4495,-2.19785 0.73828,-2.56836 0.5569,-0.71454 0.33614,-0.86232 -2.17773,-1.44336 -0.21458,-0.0496 -0.40407,-0.0686 -0.56836,-0.0625 z m 3.58398,1.47265 c -0.65804,0.0653 -0.93555,1.49202 -0.93555,4.5293 0,2.32868 -0.21586,4.03516 -0.50976,4.03516 -0.32539,0 -0.50977,4.70018 -0.50977,13.01562 0,8.31545 -0.18437,13.01563 -0.50976,13.01563 -0.29359,0 -0.50781,1.69895 -0.50781,4.00976 -10e-6,3.74716 -0.0786,4.0293 -1.18946,4.32617 -0.6536,0.17469 -1.18801,0.62818 -1.1875,1.00782 5.2e-4,0.38067 0.64103,0.71465 1.42774,0.74609 0.78455,0.0313 1.31931,-0.12586 1.18945,-0.34961 -0.12987,-0.22374 0.13061,-0.55738 0.57812,-0.74023 0.69474,-0.28388 0.76076,-0.96549 0.45313,-4.66602 -0.25204,-3.03182 -0.19023,-4.33398 0.20312,-4.33398 0.36023,0 0.5625,1.46272 0.5625,4.06836 0,3.25387 0.15252,4.0664 0.76368,4.0664 0.42017,0 0.76367,-0.31332 0.76367,-0.69726 0,-0.38393 0.40372,-0.73001 0.89648,-0.76953 3.27663,-0.26283 4.71165,-2.31824 2.12305,-3.03907 -1.29444,-0.36044 -1.26795,-1.45898 0.0352,-1.45898 0.56589,0 1.01953,0.36058 1.01953,0.8125 0,1.28116 1.366,0.95276 2.77734,-0.66797 2.13602,-2.45293 3.84823,-7.00041 4.41797,-11.73242 0.67259,-5.5862 0.31606,-8.81301 -1.52539,-13.82617 -1.16439,-3.16992 -2.06938,-4.60674 -4.39063,-6.96289 -2.07896,-2.11023 -3.21063,-2.88728 -3.91406,-2.69141 -0.8544,0.23792 -0.90024,0.15185 -0.33984,-0.63086 0.35691,-0.49829 0.44822,-0.72697 0.20312,-0.50586 -0.2451,0.22112 -0.74182,0.13972 -1.10547,-0.18164 -0.30765,-0.27188 -0.56971,-0.40068 -0.78906,-0.37891 z m 3.13867,5.31055 c 0.56022,0 1.01758,0.2447 1.01758,0.54297 0,0.29827 -0.45736,0.54297 -1.01758,0.54297 -0.56023,0 -1.01953,-0.2447 -1.01953,-0.54297 0,-0.29827 0.4593,-0.54297 1.01953,-0.54297 z m -3.02539,71.58594 c 0.26358,0 0.47852,0.2447 0.47852,0.54297 0,0.29827 -0.35822,0.54101 -0.79492,0.54101 -0.43674,0 -0.65164,-0.24274 -0.47852,-0.54101 0.17312,-0.29827 0.53134,-0.54297 0.79492,-0.54297 z m 1.4668,35.79297 c 0.57676,0 1.04883,0.24275 1.04883,0.54101 0,0.29828 -0.33074,0.54297 -0.73438,0.54297 -0.40364,0 -0.87571,-0.24469 -1.04883,-0.54297 -0.17312,-0.29826 0.15762,-0.54101 0.73438,-0.54101 z m -0.0332,8.92383 c 0.0801,0.0127 0.1777,0.0416 0.29101,0.0879 0.43472,0.17763 0.79102,0.41988 0.79102,0.53711 0,0.43921 -0.97044,0.19108 -1.26953,-0.32422 -0.13383,-0.23059 -0.0529,-0.33894 0.1875,-0.30078 z m -1.1875,0.90625 c 0.10717,-7.6e-4 0.21088,0.0143 0.30273,0.0469 0.38144,0.13538 0.14962,0.3805 -0.53906,0.57227 -0.84714,0.23589 -1.0459,0.1661 -0.66797,-0.23633 0.22197,-0.23635 0.58276,-0.38055 0.9043,-0.38281 z m -7.91602,4.33984 c -0.23078,0 -0.46164,0.0381 -0.63672,0.11328 -0.35014,0.15044 -0.0636,0.27344 0.63672,0.27344 0.70032,0 0.98686,-0.123 0.63672,-0.27344 -0.17507,-0.0752 -0.40594,-0.11328 -0.63672,-0.11328 z m 7.5957,20.0625 c 0.17693,0.008 0.32945,0.0583 0.41407,0.14844 0.16538,0.17922 -0.13297,0.30647 -0.66797,0.2832 -0.59331,-0.026 -0.71292,-0.15306 -0.30664,-0.32617 0.18382,-0.0783 0.38362,-0.11324 0.56054,-0.10547 z" />
      <path
         id="path564"
         style="fill:#b73c60;stroke-width:0.525546"
         transform="matrix(1,0,0,0.9892604,198.85139,122.83825)"
         d="m 568.44922,420.59961 c -6.09229,-0.0464 -15.07424,0.004 -28.22461,0.14062 -19.18779,0.19956 -35.34408,0.46335 -35.9043,0.58594 -0.56023,0.1226 -2.7959,0.24083 -4.96679,0.26367 l -3.94727,0.041 v 4.06836 c 0,3.70579 0.0915,4.0664 1.01953,4.0664 1.0126,0 1.01758,0.36226 1.01758,65.07813 0,64.71587 -0.005,65.07617 -1.01758,65.07617 -0.92039,0 -1.01953,0.36167 -1.01953,3.75196 0,2.06351 -0.15132,4.17562 -0.33789,4.69335 -0.29995,0.83231 -0.0804,0.90492 1.9082,0.625 2.1286,-0.29961 2.18159,-0.27622 0.97656,0.43946 -0.75459,0.44816 -0.96252,0.7645 -0.50976,0.77734 0.42017,0.0118 1.93351,0.96677 3.36328,2.12109 1.42978,1.15433 3.4207,2.38772 4.42383,2.74024 1.00312,0.35253 1.89627,0.81066 1.98437,1.01758 0.31885,0.74875 4.53575,3.39048 4.96289,3.10937 0.24095,-0.15856 0.56029,0.0503 0.70899,0.46289 0.1487,0.41263 1.94847,1.76473 4,3.00586 2.05153,1.24113 5.33413,3.32594 7.29492,4.63086 1.9608,1.30492 4.94041,3.24482 6.62109,4.3125 1.68068,1.06768 3.97329,2.54558 5.09375,3.2832 1.12045,0.73764 3.18148,1.98943 4.58204,2.78321 1.40057,0.79377 4.56596,2.75252 7.0332,4.35156 2.46724,1.59904 4.58279,2.9082 4.70117,2.9082 0.11837,0 1.46934,0.85254 3.00195,1.89649 1.53261,1.04395 2.91375,1.89844 3.07032,1.89844 0.15658,0 2.05874,1.17899 4.22656,2.61914 2.16781,1.44013 5.41389,3.44789 7.21289,4.46289 4.73939,2.67395 8.35762,6.42346 10.33984,10.71093 1.53922,3.32927 1.66678,4.00338 1.64258,8.76954 -0.0221,4.35417 -0.2301,5.63599 -1.32812,8.17578 -2.10989,4.88027 -4.9574,7.81416 -11.125,11.4707 -1.26051,0.74731 -5.50029,3.38251 -9.42188,5.85547 -3.92159,2.47296 -9.87887,6.20362 -13.24023,8.29101 -3.36137,2.0874 -6.91413,4.31605 -7.89453,4.95118 -2.95694,1.91557 -3.66586,2.35402 -7.64063,4.74023 -2.10085,1.26123 -5.30817,3.31131 -7.12891,4.55664 -1.82074,1.24534 -4.51378,2.90994 -5.98437,3.69922 -1.4706,0.78928 -2.67574,1.61531 -2.67774,1.83398 -0.004,0.44667 -2.45265,1.75196 -3.28515,1.75196 -0.29694,0 -0.82591,0.4894 -1.17578,1.08593 -0.34987,0.59655 -0.89035,1.08399 -1.19922,1.08399 -0.48569,0 -3.57463,1.93134 -11.07617,6.92578 -1.01748,0.67743 -2.10154,1.36177 -2.41016,1.51953 -0.30861,0.15777 -0.44752,0.91949 -0.30859,1.69336 0.22976,1.27983 0.13534,1.37507 -1.04883,1.0586 -1.26431,-0.33789 -1.28589,-0.29985 -0.72266,1.28906 0.36099,1.01834 0.84,1.52902 1.26953,1.35351 0.37956,-0.15509 0.901,-0.28125 1.15821,-0.28125 0.2572,0 0.46679,-0.46271 0.46679,-1.02734 0,-1.35416 0.81966,-1.59571 3.43946,-1.01563 2.39813,0.531 2.96805,1.6372 0.76367,1.48243 -0.77032,-0.0542 -1.91663,-0.0707 -2.54688,-0.0391 l -1.14648,0.0566 v 69.94336 69.94141 l -1.6543,0.46875 c -1.98466,0.56032 -1.31411,0.86031 3.4375,1.53711 l 3.05469,0.43359 -3.05469,0.33203 c -3.88946,0.42186 -0.4619,0.52698 34.63282,1.06641 39.9571,0.61417 45.86708,0.33375 55.25781,-2.63086 11.68409,-3.68863 21.15179,-9.9676 29.93554,-19.85351 6.88228,-7.74584 11.45995,-15.87009 14.63282,-25.9668 3.51655,-11.19033 3.28687,0.40069 3.29687,-166.39063 0.009,-148.45268 -0.009,-151.20512 -1,-156.46679 -5.67286,-30.13213 -28.03507,-52.70709 -56.64453,-57.17969 -1.59273,-0.249 -4.79638,-0.39112 -10.88867,-0.4375 z m -76.09766,141.01758 c -0.23077,0 -0.46165,0.0381 -0.63672,0.11328 -0.35014,0.15044 -0.0636,0.27344 0.63672,0.27344 0.70032,0 0.98687,-0.123 0.63672,-0.27344 -0.17507,-0.0752 -0.40594,-0.11328 -0.63672,-0.11328 z m -1.85742,3.39258 c -0.45777,0.0104 -0.52101,0.16846 -0.25195,0.51367 0.27151,0.34835 1.07505,0.63476 1.78515,0.63476 1.6335,0 0.87183,-0.89938 -0.9414,-1.11132 -0.24284,-0.0284 -0.43921,-0.0406 -0.5918,-0.0371 z m 3.63867,1.96093 c -0.42017,0 -0.76367,0.24471 -0.76367,0.54297 0,0.29828 0.3435,0.54102 0.76367,0.54102 0.42017,0 0.76367,-0.24274 0.76367,-0.54102 0,-0.29826 -0.3435,-0.54297 -0.76367,-0.54297 z m 7.75977,1.94141 c 0.32203,-0.0269 0.47711,0.0765 0.35937,0.2793 -0.15698,0.27045 -0.61394,0.49023 -1.01757,0.49023 -1.05412,0 -0.90405,-0.36808 0.28515,-0.69922 0.14016,-0.039 0.2657,-0.0614 0.37305,-0.0703 z m -6.88867,28.32617 c -0.37015,-0.0172 -0.46753,0.24191 -0.54102,0.86914 -0.3451,2.94535 -0.28253,3.75067 0.30664,3.96875 0.40212,0.14886 0.63672,-0.28109 0.63672,-1.16601 0,-0.98724 0.26452,-1.39017 0.89258,-1.36328 2.62848,0.1124 3.67057,2.67382 1.08789,2.67382 -1.55351,0 -1.99946,0.90354 -0.70703,1.43164 0.66615,0.27222 0.76367,4.11384 0.76367,30.02344 0,25.90959 -0.0975,29.75123 -0.76367,30.02344 -0.42017,0.17168 -0.76367,0.6858 -0.76367,1.14258 0,0.83878 0.73445,1.03999 3.05664,0.83984 l 1.27148,-0.10937 -1.40039,1.57031 c -0.77032,0.86391 -1.40039,2.10692 -1.40039,2.76172 0,1.48617 0.68227,1.50166 2.86914,0.0625 0.94342,-0.62088 1.71484,-0.99413 1.71484,-0.82813 0,0.39996 7.34462,-3.72647 9.93164,-5.58008 1.12045,-0.8028 3.06762,-1.89583 4.32813,-2.42968 1.26051,-0.53385 2.63647,-1.27653 3.05664,-1.64844 0.86674,-0.76721 3.52143,-2.39215 9.42187,-5.77149 2.24091,-1.28342 5.67341,-3.38771 7.62696,-4.67578 1.95355,-1.28805 3.73521,-2.34179 3.95898,-2.34179 0.22376,0 2.2364,-1.15939 4.47266,-2.57618 2.23626,-1.41678 6.18417,-3.82838 8.77344,-5.35742 4.78068,-2.82314 5.52447,-3.79288 3.67773,-4.79492 -0.56595,-0.30708 -2.85661,-1.69209 -5.0918,-3.07617 -4.17438,-2.58488 -22.43621,-13.54274 -26.98242,-16.19141 -1.40057,-0.81598 -4.83948,-2.8199 -7.64062,-4.45312 -2.80113,-1.63321 -6.12426,-3.4954 -7.38477,-4.13672 -1.26051,-0.64133 -2.89103,-1.59522 -3.625,-2.11914 -2.69963,-1.92711 -7.94903,-5.01953 -8.51953,-5.01953 -0.32322,0 -0.58789,-0.19095 -0.58789,-0.42383 0,-0.23287 -0.64078,-0.6794 -1.42383,-0.99414 -0.47364,-0.19037 -0.79353,-0.3002 -1.01562,-0.31055 z m 6.25976,5 c 0.28011,0 0.16627,0.23626 -0.2539,0.52539 -0.42017,0.28915 -0.99333,0.52539 -1.27344,0.52539 -0.28012,0 -0.16627,-0.23624 0.2539,-0.52539 0.42017,-0.28913 0.99333,-0.52539 1.27344,-0.52539 z m -6.61328,66.96875 -0.26367,1.62109 c -0.14815,0.91074 -0.59505,1.64361 -1.02149,1.67383 -2.67558,0.1899 -2.68684,0.19453 -2.04687,1.01563 0.35059,0.44982 1.23397,0.7214 2.02734,0.62304 2.29717,-0.2848 2.53917,-0.65614 1.89063,-2.90624 z m 5.53711,30.70117 c 0.72596,0.0666 1.83984,0.61354 1.83984,1.05078 0,0.69827 -1.89966,0.63903 -2.3125,-0.0723 -0.1846,-0.31812 -0.21536,-0.70675 -0.0684,-0.86328 0.1,-0.10646 0.29903,-0.13744 0.54102,-0.11524 z m -8.12109,6.4375 c -0.40363,0 -0.73438,0.24275 -0.73438,0.54102 0,0.29826 0.47207,0.54297 1.04883,0.54297 0.57676,0 0.90749,-0.24471 0.73437,-0.54297 -0.17312,-0.29827 -0.64518,-0.54102 -1.04882,-0.54102 z" />
      <path
         id="path562"
         style="fill:#ca344a;stroke-width:0.525546"
         transform="matrix(1,0,0,0.9892604,198.85139,122.83825)"
         d="m 557.81445,421.40234 c -3.16218,0.0198 -5.84286,0.0591 -7.27929,0.11133 l -5.22266,0.18945 0.12891,86.37696 c 0.12387,82.03524 0.0867,86.36463 -0.75977,86.1289 -0.4902,-0.1365 -0.89258,0.006 -0.89258,0.31641 0,0.31751 0.78104,0.48784 1.78321,0.38867 0.9804,-0.0974 1.7832,-0.0962 1.7832,0.004 0,0.10003 -0.23326,0.83455 -0.51758,1.63086 -0.42184,1.18142 -0.74468,1.38638 -1.75195,1.11719 -2.76746,-0.73962 -1.56716,0.80451 2.13672,2.75 2.17388,1.14184 4.18082,2.38338 4.46093,2.75976 0.30095,0.40434 1.23257,0.59486 2.27539,0.46484 1.56634,-0.19529 1.66124,-0.13846 0.84375,0.49805 -0.85299,0.66415 -0.77762,0.81281 1.03516,2.02539 2.92657,1.95761 6.37984,4.09832 7.81445,4.84375 0.70029,0.36387 1.92109,1.21962 2.71289,1.90235 0.7918,0.68272 1.63424,1.24218 1.87305,1.24218 1.80866,0 11.71094,8.86005 11.71094,10.47852 0,0.35972 0.46297,1.57212 1.02734,2.69336 3.1041,6.167 1.01032,17.36373 -4.28515,22.92383 -1.87016,1.96361 -6.13954,4.93115 -11.20508,7.78711 -1.28022,0.7218 -2.83019,1.88117 -3.44336,2.57617 -0.61317,0.695 -1.36211,1.26367 -1.66406,1.26367 -0.66723,0 -8.98657,5.16784 -8.81641,5.47656 0.0664,0.12028 0.0446,0.17679 -0.0488,0.12696 -0.0934,-0.0498 -1.31799,0.52413 -2.72265,1.27539 -1.77868,0.95128 -2.39277,1.53824 -2.02149,1.93359 0.37128,0.39536 0.92708,0.2935 1.83203,-0.33789 0.71467,-0.4986 1.30078,-0.74918 1.30078,-0.55664 0,0.19253 0.34351,0.0471 0.76368,-0.32422 1.13771,-1.00543 0.92428,0.21736 -0.23243,1.33203 -0.68677,0.6618 -1.55961,0.88989 -2.81054,0.73438 -1.13365,-0.14093 -1.73808,-0.0106 -1.61328,0.3457 0.10982,0.31354 0.47459,0.5019 0.81054,0.41992 0.33595,-0.082 0.46452,0.10255 0.28711,0.4082 -0.44816,0.77216 -1.65578,0.69508 -1.9375,-0.12304 -0.18371,-0.53354 -0.38244,-0.52495 -0.93359,0.0391 -0.59267,0.6065 -0.58409,0.6905 0.0625,0.54297 0.67654,-0.15438 0.76367,9.72052 0.76367,86.32422 0,76.52621 -0.0878,86.49804 -0.76367,86.49804 -0.42017,0 -0.76367,0.36704 -0.76367,0.81446 0,0.53255 0.70345,0.92668 2.03711,1.14258 l 2.03711,0.33007 -2.03711,0.19727 c -1.12045,0.10906 3.69247,0.32738 10.69531,0.48437 7.00284,0.15711 13.19173,0.24643 13.75195,0.19922 0.56023,-0.0473 3.27518,-0.24665 6.03516,-0.44336 4.80998,-0.34274 10.58298,-1.32736 13.82617,-2.35937 4.50782,-1.43448 13.03973,-5.73138 17.0625,-8.59375 16.48545,-11.72999 27.07209,-29.969 29.53516,-50.88281 0.418,-3.55107 0.52764,-45.73289 0.40429,-154.83008 l -0.16992,-149.94922 -1.07812,-4.88086 c -3.05619,-13.81814 -8.60147,-24.81213 -17.47266,-34.64063 -3.80306,-4.21346 -9.61328,-9.55859 -10.39063,-9.55859 -0.14729,0 -1.25445,-0.69405 -2.45898,-1.54297 -5.09618,-3.59166 -13.20707,-7.12405 -20.26953,-8.82617 -4.15035,-1.00027 -6.57544,-1.17675 -17.06055,-1.24609 -3.36136,-0.0222 -7.00578,-0.0218 -10.16797,-0.002 z m -6.89453,175.39649 c 0.28012,0 0.50977,0.24274 0.50977,0.54101 0,0.29828 -0.22965,0.54297 -0.50977,0.54297 -0.28011,0 -0.50976,-0.24469 -0.50976,-0.54297 0,-0.29827 0.22965,-0.54101 0.50976,-0.54101 z m -2.45312,1.21094 c 0.18213,0.0281 0.40517,0.11721 0.66406,0.27148 0.75155,0.44787 0.75665,0.56633 0.0449,1.19531 -0.65609,0.57981 -0.84457,0.54447 -1.11328,-0.20117 -0.31999,-0.88797 -0.14212,-1.34985 0.4043,-1.26562 z m -3.03321,29.97461 c -0.20162,0.0121 -0.49245,0.0553 -0.87304,0.13281 -0.69702,0.14187 -1.14207,0.47527 -0.98828,0.74023 0.15835,0.27284 0.70827,0.23866 1.26757,-0.0801 0.99882,-0.56918 1.19861,-0.82917 0.59375,-0.79296 z m 0.97071,1.14062 c -0.3526,-0.0257 -0.47658,0.31478 -0.69141,1.16602 -0.2028,0.80354 -0.88979,1.89601 -1.52734,2.42773 -1.15521,0.96347 -1.15238,0.96527 0.90234,0.63867 1.52569,-0.2425 2.23144,-0.10905 2.7168,0.51367 0.81355,1.04381 0.36657,1.87649 -1.39063,2.58789 -1.29697,0.52508 -1.30982,0.57099 -0.33203,1.14063 0.56022,0.32637 1.13338,0.77111 1.27344,0.99023 0.14006,0.21913 0.82706,0.49623 1.52734,0.61524 1.36931,0.2327 3.37933,-0.35288 4.44531,-1.29492 0.4923,-0.43506 0.51572,-0.76806 0.0898,-1.31446 -0.46394,-0.59522 -0.21461,-0.70804 1.33789,-0.60547 2.61301,0.17264 2.87633,-1.01803 0.46289,-2.09179 -1.04589,-0.46533 -2.23551,-1.20314 -2.64453,-1.63867 -0.55264,-0.58846 -0.91847,-0.63825 -1.42188,-0.19336 -0.80664,0.71283 -2.84292,-0.21897 -2.64648,-1.21094 0.0672,-0.33956 -0.4501,-0.93459 -1.15039,-1.32227 -0.44511,-0.2464 -0.73962,-0.39278 -0.95117,-0.4082 z m -2.59766,8.3457 c -0.2889,0 -0.52539,0.36705 -0.52539,0.81446 0,0.4474 0.3435,0.8125 0.76367,0.8125 0.42441,0 0.76367,0.48336 0.76367,1.08593 0,0.78246 0.33953,1.08399 1.21875,1.08399 0.67031,0 1.34146,-0.34153 1.49219,-0.75977 0.35825,-0.9941 -0.0741,-1.41015 -1.46875,-1.41015 -0.62363,0 -1.26455,-0.3651 -1.42578,-0.8125 -0.16124,-0.44741 -0.52945,-0.81446 -0.81836,-0.81446 z m 0.32617,3.99219 c -0.1344,-2.8e-4 -0.2911,0.0753 -0.45703,0.25195 -0.28011,0.29828 -0.34145,0.83335 -0.13476,1.18946 0.28551,0.49188 0.47602,0.47685 0.78906,-0.0625 0.40273,-0.69386 0.20595,-1.37806 -0.19727,-1.37891 z m -3.33593,2.2207 c -0.0801,0.0127 -0.17771,0.0416 -0.29102,0.0879 -0.43472,0.17763 -0.79102,0.41988 -0.79102,0.53711 0,0.43923 0.97045,0.1911 1.26954,-0.32421 0.13381,-0.23059 0.0528,-0.33894 -0.1875,-0.30079 z m 2.40624,30.80469 c -0.31344,0.0477 -0.66682,0.34097 -0.82421,0.84375 -0.11088,0.3542 0.16196,0.64258 0.60547,0.64258 0.4435,0 0.80468,-0.38516 0.80468,-0.85742 0,-0.47885 -0.27249,-0.67659 -0.58594,-0.62891 z" />
      <path
         id="path560"
         style="fill:#da2e37;stroke-width:0.525546"
         transform="matrix(1,0,0,0.9892604,198.85139,122.83825)"
         d="m 584.78906,425.42773 c -0.45319,0 -0.68288,0.2447 -0.50976,0.54297 0.17312,0.29828 0.40277,0.54102 0.50976,0.54102 0.107,0 0.3347,-0.24274 0.50782,-0.54102 0.17311,-0.29827 -0.0546,-0.54297 -0.50782,-0.54297 z m 7.65235,0.89454 c -0.19561,-5e-4 -0.33674,0.0458 -0.42579,0.14062 -0.35617,0.37927 -0.25344,0.64848 0.32618,0.8457 0.46701,0.15892 1.19311,0.4032 1.61328,0.54297 0.42017,0.13977 0.76367,0.52047 0.76367,0.84571 0,0.32523 -0.2645,0.41595 -0.58789,0.20312 -0.36723,-0.24166 -0.44891,-0.1485 -0.21875,0.24805 0.20269,0.34923 0.58104,0.49387 0.8418,0.32226 0.29228,-0.19235 0.47461,76.34207 0.47461,199.5625 0,177.30413 -0.086,199.875 -0.76368,199.875 -0.60532,0 -0.78342,0.87295 -0.85742,4.20313 l -0.0937,4.20117 -0.30078,-4.33789 c -0.36986,-5.33494 -0.93017,-4.33387 -1.13867,2.0332 -0.1114,3.40198 0.0163,4.74615 0.45117,4.7461 0.33361,0 0.74876,-0.2447 0.92188,-0.54297 0.17312,-0.29828 0.98869,-0.54102 1.8125,-0.54102 1.89126,0 2.01586,1.37 0.16992,1.86328 -1.0133,0.27083 -1.26357,0.61086 -1.06055,1.4375 0.21387,0.87085 0.0747,1.01747 -0.71094,0.75196 -0.69051,-0.23336 -0.97656,-0.0703 -0.97656,0.55664 0,0.664 0.28824,0.79562 1.14648,0.52734 1.84497,-0.5768 9.60077,-4.55918 11.11719,-5.70898 0.76541,-0.58033 1.75617,-1.05469 2.20313,-1.05469 0.44696,0 0.8125,-0.3176 0.8125,-0.70508 0,-0.38742 0.93673,-1.30211 2.08203,-2.0332 2.5976,-1.65812 9.83543,-8.82233 11.48047,-11.36328 0.67584,-1.04396 2.13192,-3.10961 3.23633,-4.5918 3.02951,-4.06577 7.40395,-13.80906 9.25,-20.60352 2.53313,-9.32331 2.43631,-2.7922 2.44531,-162.98632 0.007,-128.83475 -0.0964,-150.55953 -0.73242,-154.28711 -1.32249,-7.75062 -2.85574,-12.70143 -6.04883,-19.52344 -2.3804,-5.08583 -5.85052,-11.11719 -6.39649,-11.11719 -0.21003,0 -0.62375,-0.54959 -0.91796,-1.2207 -0.80184,-1.82881 -6.22983,-8 -7.03711,-8 -0.38682,0 -0.94002,-0.46894 -1.22852,-1.04297 -0.67896,-1.35089 -6.42425,-6.00586 -7.41211,-6.00586 -0.41704,0 -0.75781,-0.20469 -0.75781,-0.45508 0,-0.54866 -2.28631,-1.71484 -3.36328,-1.71484 -0.42348,0 -0.63015,0.2447 -0.45703,0.54297 0.36339,0.62608 0.1488,0.67273 -0.97657,0.21289 -0.44308,-0.18105 -0.80468,-0.66223 -0.80468,-1.06836 0,-0.46095 0.31373,-0.60906 0.83398,-0.39649 0.57298,0.23414 0.7579,0.10164 0.59375,-0.42382 -0.13132,-0.42037 -0.81063,-0.78895 -1.50977,-0.81836 -0.69914,-0.0294 -2.71757,-0.83589 -4.48632,-1.79297 -1.64646,-0.89068 -2.7257,-1.3247 -3.3125,-1.32617 z m -2.32422,0.27929 c -0.91469,0.0498 -2.01758,0.87425 -2.01758,1.61719 0,0.2694 0.74393,0.0693 1.6543,-0.44531 1.30312,-0.73666 1.46117,-0.97912 0.74023,-1.14258 -0.1192,-0.027 -0.24628,-0.0364 -0.37695,-0.0293 z m 10.71484,7.50196 c 0.28011,0 0.50781,0.36703 0.50781,0.81445 0,0.4474 -0.2277,0.8125 -0.50781,0.8125 -0.28012,0 -0.50976,-0.3651 -0.50976,-0.8125 0,-0.44742 0.22964,-0.81445 0.50976,-0.81445 z m -19.83398,187.09765 c -0.29664,0 -0.53907,0.2447 -0.53907,0.54297 0,0.29827 0.10109,0.54297 0.22461,0.54297 0.12353,0 0.36595,-0.2447 0.53907,-0.54297 0.17312,-0.29827 0.072,-0.54297 -0.22461,-0.54297 z m 10.77539,12.71289 c -0.035,-0.003 -0.0709,0.008 -0.10938,0.0332 -0.28011,0.18434 -0.50976,1.17482 -0.50976,2.20117 0,1.02635 0.22965,1.86523 0.50976,1.86523 0.28011,0 0.50977,-0.99048 0.50977,-2.20117 0,-1.16322 -0.15573,-1.8744 -0.40039,-1.89844 z m 7.6875,203.67774 c 0.82561,-0.005 1.29688,0.22219 1.11523,0.53515 -0.39082,0.67334 -0.80274,0.67334 -1.78125,0 -0.59318,-0.40819 -0.44482,-0.52909 0.66602,-0.53515 z" />
    </g>
  </g>
</svg>
