<?xml version="1.0" encoding="UTF-8" standalone="no"?>
<svg
   xmlns:dc="http://purl.org/dc/elements/1.1/"
   xmlns:cc="http://creativecommons.org/ns#"
   xmlns:rdf="http://www.w3.org/1999/02/22-rdf-syntax-ns#"
   xmlns:svg="http://www.w3.org/2000/svg"
   xmlns="http://www.w3.org/2000/svg"
   xmlns:sodipodi="http://sodipodi.sourceforge.net/DTD/sodipodi-0.dtd"
   xmlns:inkscape="http://www.inkscape.org/namespaces/inkscape"
   version="1.1"
   id="svg544"
   width="1167"
   height="1368"
   viewBox="0 0 1167 1368"
   sodipodi:docname="logo.svg"
   inkscape:version="1.0.2-2 (e86c870879, 2021-01-15)">
  <metadata
     id="metadata550">
    <rdf:RDF>
      <cc:Work
         rdf:about="">
        <dc:format>image/svg+xml</dc:format>
        <dc:type
           rdf:resource="http://purl.org/dc/dcmitype/StillImage" />
        <dc:title></dc:title>
      </cc:Work>
    </rdf:RDF>
  </metadata>
  <defs
     id="defs548" />
  <sodipodi:namedview
     pagecolor="#ffffff"
     bordercolor="#666666"
     borderopacity="1"
     objecttolerance="10"
     gridtolerance="10"
     guidetolerance="10"
     inkscape:pageopacity="0"
     inkscape:pageshadow="2"
     inkscape:window-width="1920"
     inkscape:window-height="1027"
     id="namedview546"
     showgrid="false"
     inkscape:zoom="0.62865497"
     inkscape:cx="583.5"
     inkscape:cy="620.37209"
     inkscape:window-x="-8"
     inkscape:window-y="-8"
     inkscape:window-maximized="1"
     inkscape:current-layer="g552" />
  <g
     inkscape:groupmode="layer"
     inkscape:label="Image"
     id="g552">
    <g
       id="g558"
       transform="matrix(1,0,0,1.0108562,-58.855815,-35.433331)">
      <path
         style="fill:#5a62cc;stroke-width:0.522716"
         d="m 488.24716,962.72374 c -9.32632,-1.7489 -18.57132,-5.70651 -26.73408,-11.44436 -4.83762,-3.40052 -14.27548,-13.39335 -17.51963,-18.54991 -4.93744,-7.84796 -8.47538,-16.69233 -10.33284,-25.83059 -0.8839,-4.34866 -0.92689,-11.57724 -0.92689,-155.84964 0,-145.69934 0.0351,-151.45799 0.95066,-155.84963 3.01499,-14.46241 9.92294,-27.48499 19.80489,-37.33536 9.14693,-9.11771 19.52194,-14.85985 32.7207,-18.10956 l 4.58367,-1.12856 141.07543,-0.1625 c 124.72539,-0.14367 141.69886,-0.067 146.45465,0.66137 29.82925,4.56856 52.90964,28.93579 57.24376,60.43536 0.69137,5.02473 0.78406,22.96189 0.7804,151.02125 -0.005,95.17583 -0.18325,146.96581 -0.52315,150.09112 -3.48976,32.08802 -26.71164,57.4642 -57.0233,62.31346 -4.13148,0.66095 -25.3369,0.76809 -145.14981,0.73332 -132.18993,-0.0386 -140.60628,-0.096 -145.40446,-0.99577 z m 72.26668,-66.42982 c 1.14992,-0.48252 5.8723,-3.18851 10.49417,-6.01328 l 8.40341,-5.13601 0.13704,-12.25316 c 0.12669,-11.32784 0.0719,-12.22684 -0.72548,-11.90452 -0.47439,0.19176 -5.8298,3.35781 -11.90092,7.03566 -6.07112,3.67786 -11.18777,6.68702 -11.37033,6.68702 -0.18257,0 -0.33194,-55.52647 -0.33194,-123.39214 0,-78.11711 0.17864,-123.39214 0.48688,-123.39214 0.26779,0 1.70019,0.75503 3.18311,1.67785 2.44101,1.51903 66.5319,40.53303 86.98498,52.95031 4.62187,2.80599 10.23688,6.21758 12.47779,7.58132 2.24091,1.36373 25.67496,15.61127 52.07568,31.66119 26.40071,16.04991 48.00026,29.31847 47.99899,29.48568 -0.001,0.16722 -3.61091,2.49565 -8.02144,5.1743 -4.41052,2.67864 -23.25986,14.12479 -41.88742,25.43588 -18.62756,11.31109 -33.96799,20.65168 -34.08984,20.75687 -0.12186,0.10518 0.60046,1.09213 1.60514,2.19322 2.59362,2.84248 5.69917,8.13876 7.31302,12.47181 0.76076,2.04255 1.52167,3.63297 1.69092,3.53425 2.03166,-1.185 35.74037,-21.64158 72.37333,-43.9207 15.10263,-9.185 15.86494,-9.7056 18.32044,-12.51173 3.09017,-3.53142 4.19907,-6.58277 4.46756,-12.29338 0.30272,-6.43883 -0.85635,-9.81747 -4.88763,-14.24716 -2.43357,-2.67408 -5.38363,-4.67729 -19.17362,-13.01967 -8.96363,-5.42263 -26.61079,-16.1391 -39.21591,-23.81437 -12.60511,-7.67526 -27.27289,-16.60137 -32.59504,-19.83579 -23.68061,-14.39133 -112.9121,-68.6793 -118.96523,-72.37782 -5.18481,-3.16796 -9.75655,-4.35116 -13.90651,-3.59912 -4.3558,0.78935 -7.77726,2.62464 -10.76985,5.77699 -3.0349,3.19693 -4.76006,6.81572 -5.37191,11.26843 -0.60153,4.37752 -0.59432,254.51931 0.007,258.38884 1.92451,12.37515 14.44292,20.14237 25.19316,15.63137 z m 78.21796,-15.11753 c 19.02638,-3.61335 29.43378,-9.87105 37.19807,-22.36623 4.68476,-7.53925 6.9673,-16.97049 6.40939,-26.48305 -0.39165,-6.67785 -0.72848,-8.5838 -1.51697,-8.5838 -0.40533,0 -18.08967,10.40808 -19.49446,11.47343 -0.0443,0.0336 -0.42918,2.1956 -0.85534,4.80449 -1.03492,6.33575 -3.25408,10.9981 -7.19034,15.1066 -7.25206,7.5694 -18.26248,10.99296 -35.36553,10.99648 l -7.33159,0.002 -12.12619,7.37397 c -6.66941,4.05563 -11.96459,7.54033 -11.76707,7.74366 0.84779,0.87292 12.76216,1.40431 28.62513,1.27673 15.10626,-0.12146 17.78956,-0.27548 23.4149,-1.34379 z m -46.50241,-28.39658 c 3.87455,-2.36125 8.07597,-4.97169 9.33648,-5.80097 l 2.29184,-1.50779 v -21.59372 -21.59371 l 9.9313,0.004 c 5.46222,0.003 11.99396,0.24855 14.51498,0.54683 9.41325,1.11377 17.46089,4.18233 22.60365,8.61877 1.50756,1.30052 3.00733,2.57338 3.33281,2.82859 0.37744,0.29595 2.61284,-0.78703 6.17167,-2.98998 3.06894,-1.8997 6.66852,-4.1104 7.99906,-4.91266 1.33054,-0.80225 2.41916,-1.56344 2.41916,-1.69151 0,-0.12808 -1.66158,-1.54066 -3.69241,-3.13907 -4.15745,-3.27222 -9.39961,-6.17456 -13.75103,-7.61327 -1.61066,-0.53253 -2.92846,-1.11186 -2.92846,-1.28738 0,-0.17552 1.43842,-0.97923 3.19649,-1.78601 6.90102,-3.16692 13.06384,-8.4779 17.06525,-14.70644 4.07004,-6.33537 5.81836,-12.35849 5.8083,-20.01011 -0.0163,-12.38628 -4.0791,-21.74256 -12.47994,-28.74005 -7.10025,-5.91399 -15.09933,-9.38886 -25.81325,-11.21334 -12.40272,-2.11206 -34.21102,-1.43111 -52.33032,1.63396 l -2.16452,0.36616 v 69.73221 c 0,59.97017 0.1011,69.69135 0.72216,69.4403 0.39718,-0.16055 3.89224,-2.22384 7.76678,-4.5851 z m 11.76502,-93.1194 c -0.13465,-26.13021 -0.1214,-26.53344 0.88189,-26.83903 0.56023,-0.17063 4.4013,-0.5936 8.53571,-0.93992 8.81352,-0.73828 18.13675,-0.0648 24.31233,1.7562 11.80777,3.48179 18.33637,12.16431 18.33637,24.38592 0,7.55778 -2.01935,12.69858 -7.08402,18.03429 -7.35835,7.75214 -15.82379,10.12983 -36.06957,10.13086 l -8.77601,4.5e-4 z m -293.74676,-425.462 c 0,-0.7144 33.35899,-0.80473 297.17514,-0.80473 263.81615,0 297.17514,0.0903 297.17514,0.80473 0,0.7144 -33.35899,0.80473 -297.17514,0.80473 -263.81615,0 -297.17514,-0.0903 -297.17514,-0.80473 z"
         id="path572" />
      <path
         style="fill:#7158b1;stroke-width:0.522716"
         d="m 488.24716,962.72374 c -2.80114,-0.52528 -7.20411,-1.70491 -9.78438,-2.62139 -4.88031,-1.7335 -11.54865,-5.02657 -12.10758,-5.97921 -0.53507,-0.91197 0.53461,-0.61953 1.91367,0.52313 0.71221,0.59014 1.64633,1.07298 2.07582,1.07298 0.42948,0 0.89423,0.19319 1.03276,0.4293 0.13854,0.2361 2.27201,1.11487 4.74106,1.95281 2.46905,0.83794 4.94755,1.71097 5.50778,1.9401 2.29337,0.93799 7.37916,1.62008 8.28243,1.11085 0.61421,-0.34625 1.87318,-0.28418 3.79867,0.18734 3.16011,0.77378 4.28826,0.45553 2.06393,-0.5823 l -1.41259,-0.65908 1.65521,-0.0435 1.65522,-0.0435 v -4.2919 c 0,-2.5217 -0.2114,-4.2919 -0.51254,-4.2919 -0.34296,0 -0.50929,-67.35451 -0.50274,-203.58336 0.008,-161.93482 -0.1211,-204.02516 -0.63006,-205.74298 -0.61383,-2.072 -0.7268,-2.15983 -2.77763,-2.15983 -2.01316,0 -3.5955,1.02931 -2.28807,1.48839 1.03184,0.3623 0.65397,1.19366 -0.54645,1.20226 -0.91411,0.007 -0.99268,0.11028 -0.3884,0.51274 0.60313,0.40169 0.53679,0.48701 -0.32548,0.41859 -0.99883,-0.0793 -1.02549,-0.17842 -0.34298,-1.27566 0.68677,-1.10412 0.65523,-1.20331 -0.43846,-1.37851 -1.07134,-0.17161 -5.66692,0.6367 -7.54471,1.32704 -0.42017,0.15447 -2.41629,0.81485 -4.43582,1.46751 -2.01952,0.65266 -5.21099,2.00239 -7.09215,2.99938 -3.48152,1.84517 -4.9059,2.10746 -2.52659,0.46524 4.81264,-3.32171 16.31915,-7.19464 24.49516,-8.24472 3.22374,-0.41404 45.68406,-0.58821 143.11262,-0.58705 152.33305,0.002 143.17389,-0.19298 153.80787,3.27115 24.99086,8.14102 43.05688,30.49564 46.83475,57.95261 0.69137,5.02473 0.78406,22.96189 0.7804,151.02125 -0.005,95.17583 -0.18325,146.96581 -0.52315,150.09112 -3.48976,32.08802 -26.71164,57.4642 -57.0233,62.31346 -4.13148,0.66095 -25.3369,0.76809 -145.14981,0.73332 -132.18993,-0.0386 -140.60628,-0.096 -145.40446,-0.99577 z m 72.26668,-66.42982 c 1.14992,-0.48252 5.8723,-3.18851 10.49417,-6.01328 l 8.40341,-5.13601 0.13704,-12.25316 c 0.12669,-11.32784 0.0719,-12.22684 -0.72548,-11.90452 -0.47439,0.19176 -5.8298,3.35781 -11.90092,7.03566 -6.07112,3.67786 -11.18777,6.68702 -11.37033,6.68702 -0.18257,0 -0.33194,-55.52647 -0.33194,-123.39214 0,-78.11711 0.17864,-123.39214 0.48688,-123.39214 0.26779,0 1.70019,0.75503 3.18311,1.67785 2.44101,1.51903 66.5319,40.53303 86.98498,52.95031 4.62187,2.80599 10.23688,6.21758 12.47779,7.58132 2.24091,1.36373 25.67496,15.61127 52.07568,31.66119 26.40071,16.04991 48.00026,29.31847 47.99899,29.48568 -0.001,0.16722 -3.61091,2.49565 -8.02144,5.1743 -4.41052,2.67864 -23.25986,14.12479 -41.88742,25.43588 -18.62756,11.31109 -33.96799,20.65168 -34.08984,20.75687 -0.12186,0.10518 0.60046,1.09213 1.60514,2.19322 2.59362,2.84248 5.69917,8.13876 7.31302,12.47181 0.76076,2.04255 1.52167,3.63297 1.69092,3.53425 2.03166,-1.185 35.74037,-21.64158 72.37333,-43.9207 15.10263,-9.185 15.86494,-9.7056 18.32044,-12.51173 3.09017,-3.53142 4.19907,-6.58277 4.46756,-12.29338 0.30272,-6.43883 -0.85635,-9.81747 -4.88763,-14.24716 -2.43357,-2.67408 -5.38363,-4.67729 -19.17362,-13.01967 -8.96363,-5.42263 -26.61079,-16.1391 -39.21591,-23.81437 -12.60511,-7.67526 -27.27289,-16.60137 -32.59504,-19.83579 -23.68061,-14.39133 -112.9121,-68.6793 -118.96523,-72.37782 -5.18481,-3.16796 -9.75655,-4.35116 -13.90651,-3.59912 -4.3558,0.78935 -7.77726,2.62464 -10.76985,5.77699 -3.0349,3.19693 -4.76006,6.81572 -5.37191,11.26843 -0.60153,4.37752 -0.59432,254.51931 0.007,258.38884 1.92451,12.37515 14.44292,20.14237 25.19316,15.63137 z m 78.21796,-15.11753 c 19.02638,-3.61335 29.43378,-9.87105 37.19807,-22.36623 4.68476,-7.53925 6.9673,-16.97049 6.40939,-26.48305 -0.39165,-6.67785 -0.72848,-8.5838 -1.51697,-8.5838 -0.40533,0 -18.08967,10.40808 -19.49446,11.47343 -0.0443,0.0336 -0.42918,2.1956 -0.85534,4.80449 -1.03492,6.33575 -3.25408,10.9981 -7.19034,15.1066 -7.25206,7.5694 -18.26248,10.99296 -35.36553,10.99648 l -7.33159,0.002 -12.12619,7.37397 c -6.66941,4.05563 -11.96459,7.54033 -11.76707,7.74366 0.84779,0.87292 12.76216,1.40431 28.62513,1.27673 15.10626,-0.12146 17.78956,-0.27548 23.4149,-1.34379 z m -46.50241,-28.39658 c 3.87455,-2.36125 8.07597,-4.97169 9.33648,-5.80097 l 2.29184,-1.50779 v -21.59372 -21.59371 l 9.9313,0.004 c 5.46222,0.003 11.99396,0.24855 14.51498,0.54683 9.41325,1.11377 17.46089,4.18233 22.60365,8.61877 1.50756,1.30052 3.00733,2.57338 3.33281,2.82859 0.37744,0.29595 2.61284,-0.78703 6.17167,-2.98998 3.06894,-1.8997 6.66852,-4.1104 7.99906,-4.91266 1.33054,-0.80225 2.41916,-1.56344 2.41916,-1.69151 0,-0.12808 -1.66158,-1.54066 -3.69241,-3.13907 -4.15745,-3.27222 -9.39961,-6.17456 -13.75103,-7.61327 -1.61066,-0.53253 -2.92846,-1.11186 -2.92846,-1.28738 0,-0.17552 1.43842,-0.97923 3.19649,-1.78601 6.90102,-3.16692 13.06384,-8.4779 17.06525,-14.70644 4.07004,-6.33537 5.81836,-12.35849 5.8083,-20.01011 -0.0163,-12.38628 -4.0791,-21.74256 -12.47994,-28.74005 -7.10025,-5.91399 -15.09933,-9.38886 -25.81325,-11.21334 -12.40272,-2.11206 -34.21102,-1.43111 -52.33032,1.63396 l -2.16452,0.36616 v 69.73221 c 0,59.97017 0.1011,69.69135 0.72216,69.4403 0.39718,-0.16055 3.89224,-2.22384 7.76678,-4.5851 z m 11.76502,-93.1194 c -0.13465,-26.13021 -0.1214,-26.53344 0.88189,-26.83903 0.56023,-0.17063 4.4013,-0.5936 8.53571,-0.93992 8.81352,-0.73828 18.13675,-0.0648 24.31233,1.7562 11.80777,3.48179 18.33637,12.16431 18.33637,24.38592 0,7.55778 -2.01935,12.69858 -7.08402,18.03429 -7.35835,7.75214 -15.82379,10.12983 -36.06957,10.13086 l -8.77601,4.5e-4 z M 461.69675,951.27847 c -3.21264,-2.33055 -8.23667,-6.82546 -7.6289,-6.82546 0.18793,0 1.7824,1.28746 3.54328,2.86098 1.76088,1.57357 4.16041,3.42864 5.33229,4.12248 1.17188,0.69378 2.1307,1.45839 2.1307,1.69911 0,0.60907 0.0922,0.65977 -3.37737,-1.85711 z m -9.65811,-8.56905 -0.97021,-1.20709 1.14592,1.02201 c 0.63026,0.56207 1.14592,1.10527 1.14592,1.20709 0,0.4293 -0.40988,0.11234 -1.32163,-1.02201 z M 447.758,564.68314 c 0,-0.29507 0.22918,-0.68569 0.5093,-0.86805 0.28011,-0.18237 0.50929,-0.0902 0.50929,0.20492 0,0.29507 -0.22918,0.68569 -0.50929,0.86805 -0.28012,0.18236 -0.5093,0.0901 -0.5093,-0.20492 z m 3.31043,-4.35522 c 0.507,-0.59014 1.03641,-1.07298 1.17647,-1.07298 0.14006,0 -0.16017,0.48284 -0.66717,1.07298 -0.507,0.59013 -1.03641,1.07297 -1.17647,1.07297 -0.14005,0 0.16017,-0.48284 0.66717,-1.07297 z m 2.54932,-2.68573 c 0.50855,-0.59194 1.0351,-0.95991 1.1701,-0.8177 0.34221,0.36049 -0.92805,1.89396 -1.56887,1.89396 -0.28923,0 -0.10979,-0.48431 0.39877,-1.07626 z m 1.77971,-1.28908 c 0,-0.10214 0.34378,-0.48625 0.76395,-0.85358 0.44033,-0.38496 0.76394,-0.4371 0.76394,-0.12309 0,0.29963 -0.34377,0.68374 -0.76394,0.85359 -0.42017,0.16984 -0.76395,0.22522 -0.76395,0.12308 z m 2.54649,-2.40564 c 0,-0.26351 0.37619,-0.63116 0.83598,-0.81702 0.699,-0.28255 0.73051,-0.20404 0.19229,0.47909 -0.73345,0.93094 -1.02827,1.02783 -1.02827,0.33793 z m 2.23028,-1.5258 c 0.5627,-1.01432 4.89989,-4.02345 4.89989,-3.39954 0,0.30167 -0.74485,0.94592 -1.65522,1.43169 -0.91037,0.48576 -2.09568,1.27657 -2.63403,1.75736 -0.53836,0.48079 -0.81314,0.5755 -0.61064,0.21049 z M 310.24765,334.19841 c 0,-0.7144 33.35899,-0.80473 297.17514,-0.80473 263.81615,0 297.17514,0.0903 297.17514,0.80473 0,0.7144 -33.35899,0.80473 -297.17514,0.80473 -263.81615,0 -297.17514,-0.0903 -297.17514,-0.80473 z"
         id="path570" />
      <path
         style="fill:#8f4c8e;stroke-width:0.522716"
         d="m 554.03775,963.20915 c 8.45358,-0.20907 16.01637,-0.55103 16.80621,-0.75983 1.3791,-0.36459 1.39688,-0.40987 0.44807,-1.14068 -0.64439,-0.49635 -2.31211,-0.761 -4.79527,-0.761 -4.78657,0 -4.56069,-0.44261 0.33148,-0.64953 l 3.66947,-0.15521 0.12135,-29.77505 0.12135,-29.77506 0.2676,29.77506 0.26761,29.77505 0.12084,-29.60601 c 0.12019,-29.4456 -0.0712,-33.44356 -1.52783,-31.90915 -0.80545,0.84845 -2.53105,0.78499 -3.72813,-0.13702 -1.22585,-0.94422 -0.77827,-1.45935 1.62563,-1.87095 1.02428,-0.17537 1.80939,-0.53332 1.74467,-0.79539 -0.0647,-0.26208 0.1714,-0.66471 0.52473,-0.89476 0.87564,-0.57002 1.18168,-2.82235 0.33932,-2.49713 -0.35205,0.13589 -0.57916,0.53015 -0.5047,0.87614 0.0745,0.34592 -0.15472,0.58895 -0.5093,0.53997 -1.41791,-0.19582 -2.39281,0.0785 -3.16323,0.89003 -0.44482,0.46857 -1.7981,1.40608 -3.00728,2.08335 -1.63072,0.91331 -2.19851,1.04169 -2.19851,0.497 0,-0.40387 0.44274,-0.88231 0.98388,-1.06327 0.54113,-0.1809 4.02374,-2.22454 7.73912,-4.54136 3.71539,-2.31683 7.57165,-4.62254 8.56948,-5.12378 l 1.81423,-0.91133 -0.14788,-12.39324 c -0.0813,-6.81632 -0.17864,-12.47581 -0.21624,-12.57665 -0.0805,-0.21606 -3.6479,1.86469 -14.02638,8.18125 -4.17549,2.5413 -7.69276,4.51423 -7.81614,4.38424 -0.12338,-0.12999 0.71126,-0.73912 1.85476,-1.35361 1.1435,-0.6145 2.45259,-1.71775 2.90907,-2.45162 0.45648,-0.73388 1.16091,-1.33432 1.5654,-1.33432 0.40448,0 0.5954,-0.23866 0.42427,-0.53035 -0.17806,-0.30348 0.0251,-0.39442 0.47494,-0.21257 0.44989,0.18185 0.91079,-0.0245 1.07761,-0.48244 0.16033,-0.4401 0.96981,-0.94309 1.79886,-1.11776 0.82904,-0.17466 1.66101,-0.74494 1.84881,-1.26729 0.53167,-1.47883 1.33407,-2.12759 3.15145,-2.54806 1.17753,-0.27244 1.51652,-0.55666 1.13865,-0.9547 -0.37787,-0.39804 -0.80101,-0.34196 -1.42135,0.18839 -0.48581,0.41534 -0.72602,0.47869 -0.5338,0.14078 0.19343,-0.34006 -0.0472,-0.77638 -0.53886,-0.97717 -0.83725,-0.34191 -0.83504,-0.40412 0.0385,-1.08158 0.80675,-0.6257 0.82648,-0.77796 0.15232,-1.17538 -0.68639,-0.40463 -0.78544,-8.67111 -0.87077,-72.67139 -0.053,-39.71815 0.0541,-72.47119 0.23796,-72.78452 0.18384,-0.31334 0.10133,-0.72134 -0.18336,-0.90668 -0.34062,-0.22175 -0.51759,-10.59843 -0.51759,-30.34862 v -30.01164 h -1.27325 c -1.26381,0 -1.27324,-0.0358 -1.27324,-4.82838 0,-4.73506 0.0236,-4.82839 1.21875,-4.82839 1.21044,0 2.10243,-1.25958 1.55398,-2.19436 -0.1575,-0.26845 -0.63013,-0.48808 -1.0503,-0.48808 -0.42017,0 -0.62393,-0.23866 -0.45279,-0.53034 0.17842,-0.30412 -0.026,-0.39405 -0.47924,-0.21085 -0.43472,0.17573 -0.7904,0.0522 -0.7904,-0.27439 0,-0.32664 -0.51567,-0.59758 -1.14592,-0.6021 -0.92664,-0.007 -0.99973,-0.10773 -0.38198,-0.52827 0.60926,-0.41475 0.51472,-0.52172 -0.46685,-0.52827 -0.67694,-0.004 -1.07592,-0.17137 -0.88661,-0.37078 0.1893,-0.19941 -0.17357,-0.95913 -0.80639,-1.68827 l -1.15058,-1.3257 2.29184,1.3633 c 2.38919,1.42122 6.41655,3.82718 15.02428,8.97556 7.18011,4.2945 45.43963,27.44966 63.1529,38.22096 15.73147,9.56617 15.88157,9.65743 66.84531,40.64007 26.40071,16.04991 48.00026,29.31847 47.99899,29.48568 -10e-4,0.16722 -3.61091,2.49565 -8.02144,5.1743 -4.41052,2.67864 -23.25986,14.12479 -41.88742,25.43588 -18.62756,11.31109 -33.96799,20.65168 -34.08984,20.75687 -0.12186,0.10518 0.60046,1.09213 1.60514,2.19322 2.59362,2.84248 5.69917,8.13876 7.31302,12.47181 0.76076,2.04255 1.52167,3.63297 1.69092,3.53425 2.03166,-1.185 35.74037,-21.64158 72.37333,-43.9207 15.10263,-9.185 15.86494,-9.7056 18.32044,-12.51173 3.09017,-3.53142 4.19907,-6.58277 4.46756,-12.29338 0.30272,-6.43883 -0.85635,-9.81747 -4.88763,-14.24716 -2.43357,-2.67408 -5.38363,-4.67729 -19.17362,-13.01967 -8.96363,-5.42263 -26.61079,-16.1391 -39.21591,-23.81437 -12.60511,-7.67526 -27.27289,-16.60169 -32.59504,-19.8365 -76.96927,-46.78189 -118.98818,-72.54643 -119.93959,-73.54278 -0.67819,-0.71023 -0.63531,-0.76767 0.38198,-0.5117 0.82909,0.20861 1.15703,0.0426 1.18613,-0.6003 0.0267,-0.59105 0.12856,-0.65667 0.30407,-0.19595 0.18798,0.49348 0.56228,0.33921 1.3016,-0.53649 0.70104,-0.83035 1.11189,-1.01158 1.26627,-0.55855 0.12568,0.36884 0.55319,0.67061 0.95002,0.67061 0.39683,0 0.72292,-0.30177 0.72464,-0.67061 0.002,-0.36883 0.28821,-1.27416 0.63662,-2.01183 0.49086,-1.03923 0.57259,-7.38098 0.36304,-28.16559 l -0.27046,-26.82438 -0.11152,26.94166 c -0.10517,25.4091 -0.16222,26.92144 -1.00279,26.58615 -0.96008,-0.38295 -2.16451,-1.48843 -2.16451,-1.98669 0,-0.16861 0.57296,-0.30656 1.27324,-0.30656 h 1.27325 v -25.7514 -25.75141 h -1.27325 c -1.25202,0 -1.27324,-0.0715 -1.27324,-4.2919 v -4.2919 h -2.57655 c -1.588,0 -2.45578,-0.20583 -2.26178,-0.53649 0.20821,-0.35487 35.86508,-0.53541 105.32733,-0.53332 115.4358,0.003 109.78393,-0.15029 120.2915,3.27266 24.99086,8.14102 43.05688,30.49564 46.83475,57.95261 0.69137,5.02473 0.78406,22.96189 0.7804,151.02125 -0.005,95.17583 -0.18325,146.96581 -0.52315,150.09112 -3.48976,32.08802 -26.71164,57.4642 -57.0233,62.31346 -4.12167,0.65939 -22.26444,0.76138 -122.48607,0.68858 -64.70626,-0.0472 -110.73118,-0.25655 -102.27761,-0.46562 z m 21.55394,-72.67314 c 0,-0.4426 -0.24271,-0.80473 -0.53936,-0.80473 -0.29664,0 -0.4098,0.22082 -0.25147,0.49067 0.15833,0.26985 -3e-5,0.61294 -0.35192,0.76235 -0.38597,0.16395 -0.28621,0.28852 0.25148,0.31411 0.4902,0.0231 0.89127,-0.3198 0.89127,-0.7624 z m 63.14011,-9.35887 c 19.02992,-3.61624 29.43399,-9.87212 37.19807,-22.36698 4.68476,-7.53925 6.9673,-16.97049 6.40939,-26.48305 -0.39165,-6.67785 -0.72848,-8.5838 -1.51697,-8.5838 -0.40533,0 -18.08967,10.40808 -19.49446,11.47343 -0.0443,0.0336 -0.42918,2.1956 -0.85534,4.80449 -1.03492,6.33575 -3.25408,10.9981 -7.19034,15.1066 -7.26027,7.57797 -18.25935,10.99297 -35.41765,10.99648 l -7.3837,0.002 -12.22426,7.3458 c -6.72334,4.04013 -12.31974,7.42 -12.43646,7.51083 -1.30874,1.01788 11.22264,1.67631 29.24217,1.53645 15.38426,-0.11943 18.02494,-0.26916 23.66955,-1.34176 z m -47.35188,-27.76905 c 2.38096,-1.44492 6.21979,-3.78263 8.53073,-5.19491 l 4.20171,-2.56779 V 823.9646 802.28381 l 9.80397,0.004 c 5.39219,0.003 11.86664,0.24846 14.38766,0.54674 9.41325,1.11377 17.46089,4.18233 22.60365,8.61877 1.50756,1.30051 3.00733,2.57338 3.33281,2.82859 0.37744,0.29595 2.61284,-0.78704 6.17167,-2.98998 3.06894,-1.89971 6.66852,-4.1104 7.99906,-4.91266 1.33054,-0.80226 2.41916,-1.56344 2.41916,-1.69152 0,-0.12807 -1.66158,-1.54066 -3.69241,-3.13907 -4.15745,-3.27222 -9.39961,-6.17455 -13.75103,-7.61326 -1.61066,-0.53254 -2.92846,-1.11186 -2.92846,-1.28738 0,-0.17552 1.43842,-0.97923 3.19649,-1.78602 6.90102,-3.16691 13.06384,-8.47789 17.06525,-14.70643 4.07004,-6.33538 5.81836,-12.35849 5.8083,-20.01011 -0.0163,-12.38628 -4.0791,-21.74256 -12.47994,-28.74006 -7.10914,-5.92159 -14.84392,-9.27893 -26.06789,-11.31497 -6.23384,-1.13082 -28.82065,-1.28871 -37.94267,-0.26524 -7.34543,0.82415 -15.70966,2.11518 -16.33305,2.52102 -0.53749,0.34992 -0.67756,138.80191 -0.141,139.36712 0.18304,0.1928 1.04248,-0.106 1.90987,-0.664 0.8674,-0.55799 3.52515,-2.19674 5.90612,-3.64166 z m 12.73244,-93.71765 c 0,-23.97935 0.0788,-26.53058 0.82866,-26.8337 0.45577,-0.18423 4.25505,-0.61923 8.44285,-0.96667 8.9146,-0.73959 18.15582,-0.0761 24.34047,1.74759 11.80777,3.48179 18.33637,12.16431 18.33637,24.38592 0,7.55778 -2.01935,12.69858 -7.08402,18.03429 -7.35943,7.75327 -15.82303,10.12983 -36.07895,10.13086 l -8.78538,4.5e-4 z m -32.3404,-82.6773 c 0,-18.73649 -0.17189,-34.0663 -0.38197,-34.06624 -0.21009,5e-5 -0.38198,15.33023 -0.38198,34.06706 0,18.73683 0.17189,34.06663 0.38198,34.06624 0.21008,-4e-4 0.38197,-15.33058 0.38197,-34.06706 z m 0.76395,-66.27268 c 0,-0.63768 -0.47569,-1.27983 -1.14592,-1.54693 -1.51503,-0.60376 -1.71131,-0.31806 -0.89086,1.29678 0.82049,1.61495 2.03678,1.76433 2.03678,0.25015 z m -3.81974,-1.59217 c -0.17312,-0.29507 -0.0339,-0.53649 0.30948,-0.53649 0.34333,0 0.48133,-0.15054 0.30667,-0.33452 -0.17466,-0.18399 -0.7221,-0.171 -1.21653,0.0289 -0.76701,0.31004 -0.78892,0.43668 -0.14929,0.86279 0.96777,0.6447 1.1373,0.64003 0.74967,-0.0207 z m -11.45919,288.4082 c 1.54062,-0.41745 2.89663,-0.65892 3.01334,-0.53665 0.46719,0.48938 -0.45866,0.80398 -3.0716,1.04384 l -2.74288,0.25172 z m -1.46882,-24.59045 c 0.045,-0.91857 0.11504,-0.98113 0.2932,-0.2617 0.12876,0.52002 0.48136,0.78446 0.78356,0.58773 0.32666,-0.21267 0.4021,-0.10655 0.18604,0.26169 -0.60496,1.03113 -1.32561,0.69572 -1.2628,-0.58772 z m -0.0188,-6.61668 c 0.0245,-0.62498 0.14512,-0.7521 0.3077,-0.32413 0.14712,0.38728 0.12903,0.85 -0.0402,1.02827 -0.16923,0.17827 -0.2896,-0.13859 -0.26749,-0.70414 z m 10.81298,-7.96584 c -0.66306,-0.79559 -0.37106,-1.37798 0.69087,-1.37798 0.37348,0 0.67906,0.48284 0.67906,1.07297 0,1.2361 -0.50103,1.34764 -1.36996,0.30501 z m -5.89377,-226.00086 c -0.49363,-0.13564 -0.76659,-0.46976 -0.60657,-0.7425 0.16002,-0.27274 0.01,-0.49589 -0.33329,-0.49589 -0.34334,0 -0.49275,-0.13851 -0.33204,-0.3078 0.29919,-0.31515 3.44265,1.20314 3.44265,1.6628 0,0.29002 -0.85878,0.24389 -2.17075,-0.11661 z m -4.95826,-3.53082 c -10e-4,-0.9038 0.0687,-0.9052 1.39941,-0.0283 0.77031,0.50763 1.46345,0.96169 1.54031,1.00901 0.0769,0.0473 -0.55287,0.06 -1.39941,0.0283 -1.11284,-0.0418 -1.53947,-0.32125 -1.54031,-1.009 z m 6.11039,-22.38599 c -0.65837,-0.44818 -0.64492,-0.5212 0.0973,-0.52828 0.47367,-0.004 1.00286,0.23321 1.17598,0.52828 0.39836,0.67898 -0.27585,0.67898 -1.27324,0 z m -4.16988,-1.43946 c 0.36765,-0.15497 0.80692,-0.13592 0.97616,0.0423 0.16923,0.17827 -0.13157,0.30507 -0.66846,0.28177 -0.5933,-0.0258 -0.71398,-0.15286 -0.3077,-0.32412 z m -2.57832,-0.52531 c 0.35015,-0.14883 0.92311,-0.14883 1.27325,0 0.35014,0.14883 0.0637,0.2706 -0.63662,0.2706 -0.70029,0 -0.98677,-0.12177 -0.63663,-0.2706 z m 6.75841,-0.99888 c 0.35433,-0.44973 0.74912,-0.70722 0.87731,-0.57218 0.35319,0.37205 -0.36443,1.38988 -0.97994,1.38988 -0.33772,0 -0.29908,-0.30783 0.10263,-0.8177 z M 310.24765,334.19841 c 0,-0.7144 33.35899,-0.80473 297.17514,-0.80473 263.81615,0 297.17514,0.0903 297.17514,0.80473 0,0.7144 -33.35899,0.80473 -297.17514,0.80473 -263.81615,0 -297.17514,-0.0903 -297.17514,-0.80473 z"
         id="path568" />
      <path
         style="fill:#a54473;stroke-width:0.522716"
         d="m 650.89567,963.51184 c -0.14254,-0.15017 -2.63166,-0.3073 -5.53137,-0.3492 -2.89971,-0.0418 -5.86187,-0.26454 -6.58258,-0.49475 -0.7207,-0.23021 -1.01037,-0.43933 -0.64369,-0.46465 0.36667,-0.0252 0.52503,-0.28756 0.35191,-0.58263 -0.19542,-0.3331 0.75866,-0.53649 2.51643,-0.53649 2.76642,0 3.96117,-0.8293 1.68528,-1.16975 l -1.14592,-0.17147 -0.25465,-38.56524 -0.25465,-38.56525 2.03719,-0.96364 c 2.18868,-1.03531 6.34419,-2.50379 8.38759,-2.96409 0.69159,-0.15574 1.55103,-0.53992 1.90987,-0.85361 0.35884,-0.31374 0.65244,-0.44062 0.65244,-0.28192 0,0.51824 9.85039,-5.02845 12.31654,-6.93539 6.55423,-5.06811 12.73428,-14.92242 14.94638,-23.83252 1.96339,-7.90834 1.74511,-23.57442 -0.32847,-23.57442 -0.27443,0 -4.95674,2.711 -10.40512,6.02445 -9.53934,5.80136 -9.91615,6.09437 -10.17643,7.91319 -1.07032,7.47921 -2.61886,11.84279 -5.14022,14.4844 -0.52692,0.55206 -1.61217,1.86694 -2.41168,2.92197 -0.79951,1.05502 -1.78073,1.91822 -2.1805,1.91822 -0.39977,0 -0.85877,0.36213 -1.02,0.80473 -0.16124,0.4426 -0.55921,0.80473 -0.88439,0.80473 -0.32518,0 -1.38928,0.5678 -2.36468,1.26177 -2.20808,1.57102 -5.39471,2.26204 -6.39572,1.38692 -0.95702,-0.83666 -0.92185,-1.57571 0.075,-1.57571 1.13613,0 2.23718,-1.30906 1.77033,-2.10477 -0.21598,-0.36812 -0.59626,-0.58834 -0.84505,-0.48937 -0.2488,0.099 -0.51929,-1.69106 -0.6011,-3.97784 -0.094,-2.62632 0.0468,-4.15777 0.38197,-4.15777 0.3573,0 0.53072,-5.74761 0.53072,-17.58993 v -17.58992 l -1.13691,-0.0902 c -1.43205,-0.11363 -3.44677,-1.22821 -3.44677,-1.90681 0,-0.29741 0.83735,-0.37335 1.98509,-0.18002 1.0918,0.1839 2.68952,0.18596 3.55049,0.005 1.28806,-0.27137 1.48221,-0.49357 1.0958,-1.25411 -0.30968,-0.60955 -1.00522,-0.89075 -2.04241,-0.82576 -0.86505,0.0542 -1.69433,-0.10854 -1.84284,-0.36166 -0.14851,-0.25313 -0.45027,-0.34289 -0.67056,-0.19947 -0.22029,0.14341 -0.29233,-0.33549 -0.16009,-1.06423 0.13225,-0.72874 0.41379,-1.32498 0.62564,-1.32498 0.97576,0 5.0926,2.2582 4.85503,2.66311 -0.14706,0.25066 0.1913,0.32939 0.75191,0.17496 0.57986,-0.15973 1.0193,-0.0168 1.0193,0.33156 0,0.54538 1.894,1.60166 3.33948,1.86241 0.29609,0.0534 0.86905,0.39605 1.27324,0.7614 2.55879,2.31294 3.31135,2.79036 4.39853,2.79036 0.66877,0 1.87243,-0.51128 2.67479,-1.13616 0.80238,-0.62489 1.69575,-0.98194 1.98527,-0.79345 0.28953,0.18849 0.71239,0.0358 0.93969,-0.33918 0.52109,-0.85979 2.53177,-2.30881 6.90682,-4.97749 1.89077,-1.15332 3.43776,-2.35779 3.43776,-2.6766 0,-0.92207 -3.95914,-4.14656 -8.65806,-7.05149 -4.61456,-2.85278 -5.64983,-3.3642 -7.60378,-3.7563 -2.6433,-0.53043 -2.83916,-1.82624 -0.41766,-2.76323 2.86009,-1.10671 8.65713,-5.35292 12.01235,-8.79877 7.78855,-7.99895 11.26436,-17.58629 10.64793,-29.3703 -0.73433,-14.03795 -8.31049,-25.36733 -21.38337,-31.97668 -1.47261,-0.74452 -3.27385,-1.70399 -4.00275,-2.13215 -0.72891,-0.42817 -1.76024,-0.87256 -2.29184,-0.98753 -3.08668,-0.66755 -4.32837,-1.07143 -4.5723,-1.48719 -0.15076,-0.2572 -1.06273,-0.46744 -2.0266,-0.46744 -1.25549,0 -1.75248,-0.23968 -1.75248,-0.84517 0,-0.63166 0.41813,-0.80106 1.65522,-0.67061 1.36871,0.14435 1.68221,-0.0249 1.81116,-0.97785 0.0858,-0.63383 0.65873,-1.32332 1.27324,-1.53221 1.05897,-0.35996 1.06513,-0.39402 0.11809,-0.65241 -0.54958,-0.14993 -1.08434,-0.004 -1.18837,0.32511 -0.22869,0.72272 -5.70653,0.81732 -5.70653,0.0986 0,-0.27455 0.51567,-0.57632 1.14592,-0.67061 1.14345,-0.17106 1.14647,-0.19899 1.40057,-12.94659 0.25354,-12.71947 0.24965,-12.78009 -0.89127,-13.90807 -0.63026,-0.6231 -1.14592,-1.42713 -1.14592,-1.78673 0,-1.02469 1.21944,-1.26005 2.28319,-0.44069 1.15783,0.89182 1.98756,0.97729 1.50514,0.15504 -0.429,-0.7312 0.94463,0.0128 3.98338,2.15754 1.18778,0.83832 3.36281,2.0654 4.8334,2.72684 1.4706,0.66146 2.67382,1.41432 2.67382,1.67306 0,0.25873 0.25217,0.47042 0.56038,0.47042 0.4482,0 7.45765,4.03557 11.15346,6.42142 0.42017,0.27125 4.3163,2.58869 8.65806,5.14987 4.34176,2.56118 11.56105,6.88181 16.04287,9.6014 4.48182,2.71959 13.64918,8.27171 20.37191,12.33805 6.72273,4.06633 15.89008,9.61297 20.3719,12.32587 4.48182,2.7129 12.3254,7.44912 17.43019,10.52493 7.18771,4.33085 9.1408,5.73417 8.65805,6.22089 -0.34284,0.34568 -6.00918,3.87593 -12.59185,7.845 -6.58267,3.96907 -15.75003,9.50835 -20.37191,12.30952 -4.62187,2.80116 -17.1124,10.35819 -27.75672,16.79338 -10.64431,6.43519 -20.22726,12.23154 -21.29543,12.88079 l -1.94212,1.18047 2.15526,2.6202 c 3.64315,4.42905 6.80358,10.24539 7.76413,14.28881 0.19277,0.81144 0.64323,1.47534 1.00104,1.47534 0.35781,0 6.5987,-3.64845 13.86865,-8.10767 30.82993,-18.91035 41.60309,-25.4946 57.0177,-34.84762 18.60845,-11.29092 21.58216,-13.74933 23.64237,-19.54551 1.6134,-4.5391 1.37735,-11.57243 -0.53116,-15.82638 -2.6244,-5.84964 -2.03073,-5.4445 -57.74345,-39.40558 -4.48182,-2.73201 -10.89897,-6.65347 -14.26033,-8.71438 -3.36137,-2.0609 -10.35147,-6.34091 -15.53358,-9.51111 -5.1821,-3.17022 -11.48466,-7.0442 -14.00568,-8.60887 -6.82644,-4.2368 -13.52157,-8.34995 -15.53358,-9.54303 -5.32379,-3.15691 -6.44729,-3.89662 -7.28785,-4.79829 -0.5069,-0.54375 -1.09363,-0.87667 -1.30384,-0.73981 -0.58624,0.38166 -5.43306,-3.73478 -5.27387,-4.47913 0.0889,-0.41551 -0.20788,-0.53881 -0.81125,-0.33709 -0.5723,0.19134 -1.49376,-0.13136 -2.31264,-0.80987 -0.7487,-0.62038 -2.15208,-1.35796 -3.11862,-1.63908 -0.96655,-0.28112 -2.06778,-0.83813 -2.44718,-1.23779 -0.3794,-0.39966 -1.08679,-0.81304 -1.57198,-0.91863 -0.48518,-0.10559 -0.87635,-0.41827 -0.86926,-0.69485 0.0224,-0.87281 1.7969,-0.83957 2.43142,0.0455 0.33438,0.46644 1.36571,0.91476 2.29184,0.99625 0.92613,0.0815 1.88382,0.17464 2.1282,0.20698 0.24439,0.0324 0.18509,0.38787 -0.13177,0.79005 -0.46721,0.593 -0.32736,0.68114 0.73972,0.46627 l 1.31583,-0.26497 -1.31548,-0.90902 c -0.72352,-0.49996 -1.18178,-1.04986 -1.01835,-1.22201 0.16342,-0.17215 -0.17851,-0.47202 -0.75984,-0.66638 l -1.05698,-0.35338 v -51.19841 c 0,-32.27582 0.18032,-51.19841 0.48788,-51.19841 0.26832,0 0.5548,-1.84867 0.63662,-4.10816 0.16155,-4.46182 -0.0685,-4.16633 3.71383,-4.76916 0.84034,-0.13393 29.03854,-0.40105 62.66267,-0.59359 47.2864,-0.27077 62.4379,-0.19849 66.8875,0.31911 30.10804,3.50229 53.06372,25.64841 59.53531,57.43568 0.73874,3.62864 0.83754,18.45489 1.00602,151.02125 0.13033,102.55898 0.0209,148.70051 -0.36201,152.63071 -1.9581,20.09704 -11.41188,37.67919 -26.75133,49.75225 -5.49723,4.32666 -14.10301,9.01953 -19.86554,10.83308 -9.94334,3.12922 -5.12535,2.92793 -74.39122,3.10867 -35.03279,0.0915 -63.8126,0.0435 -63.95514,-0.1067 z m -7.19604,-81.07905 c -0.16923,-0.17827 -0.6085,-0.19732 -0.97615,-0.0424 -0.40628,0.17125 -0.28561,0.2984 0.3077,0.32415 0.53688,0.0231 0.83769,-0.10354 0.66845,-0.28182 z m 0.20756,-24.24041 c -0.36742,-0.12902 -0.91019,0.0205 -1.20615,0.33225 -0.37793,0.39811 -0.17909,0.46793 0.66805,0.23457 0.68868,-0.18971 0.91954,-0.43289 0.5381,-0.56682 z m 1.96757,-0.32471 c 0,-0.11597 -0.35568,-0.35462 -0.7904,-0.53035 -0.45324,-0.1832 -0.65767,-0.0933 -0.47924,0.21085 0.29909,0.50977 1.26964,0.754 1.26964,0.3195 z m 0,-8.90945 c 0,-0.29506 -0.4719,-0.53648 -1.04866,-0.53648 -0.57676,0 -0.907,0.24142 -0.73388,0.53648 0.17312,0.29507 0.64501,0.53649 1.04865,0.53649 0.40364,0 0.73389,-0.24142 0.73389,-0.53649 z m -2.03719,-35.40818 c 0,-0.29506 -0.21566,-0.53648 -0.47924,-0.53648 -0.26358,0 -0.62089,0.24142 -0.79401,0.53648 -0.17312,0.29507 0.0425,0.53649 0.47924,0.53649 0.4367,0 0.79401,-0.24142 0.79401,-0.53649 z m 1.52789,-119.8733 c 0,-0.13012 -0.22918,-0.38579 -0.5093,-0.56815 -0.28011,-0.18236 -0.5093,-0.0759 -0.5093,0.23658 0,0.31248 0.22919,0.56815 0.5093,0.56815 0.28012,0 0.5093,-0.10646 0.5093,-0.23658 z M 635.05218,862.5516 c 0.35015,-0.14883 0.92311,-0.14883 1.27325,0 0.35014,0.14882 0.0637,0.27059 -0.63662,0.27059 -0.70029,0 -0.98677,-0.12177 -0.63663,-0.27059 z m 2.84453,-82.14188 c -5.1e-4,-0.37556 0.53381,-0.82421 1.18741,-0.99702 1.11087,-0.29369 1.18836,-0.57277 1.18836,-4.27968 0,-2.286 0.21571,-3.96549 0.5093,-3.96549 0.32539,0 0.5093,-4.64956 0.5093,-12.8757 0,-8.22614 0.18391,-12.87571 0.5093,-12.87571 0.2939,0 0.50929,-1.68832 0.50929,-3.99199 0,-4.00622 0.49377,-5.18201 1.72439,-4.10616 0.36365,0.31791 0.86172,0.39905 1.10682,0.18031 0.2451,-0.21874 0.15362,0.006 -0.20329,0.49894 -0.5604,0.7743 -0.51394,0.85945 0.34046,0.62409 0.70343,-0.19377 1.83464,0.57618 3.9136,2.66374 2.32125,2.33085 3.22665,3.75086 4.39104,6.88673 1.84145,4.95932 2.19734,8.15193 1.52475,13.67814 -0.56974,4.68119 -2.28263,9.18076 -4.41865,11.60735 -1.41134,1.60332 -2.77684,1.92834 -2.77684,0.66094 0,-0.44707 -0.45271,-0.80473 -1.0186,-0.80473 -1.30311,0 -1.32964,1.08774 -0.0352,1.44431 2.5886,0.71308 1.15199,2.74483 -2.12464,3.00483 -0.49276,0.0391 -0.89592,0.38185 -0.89592,0.76165 0,0.37982 -0.34377,0.69057 -0.76394,0.69057 -0.61116,0 -0.76395,-0.80473 -0.76395,-4.02366 0,-2.57765 -0.20208,-4.02365 -0.56231,-4.02365 -0.39335,0 -0.45405,1.2882 -0.20201,4.28746 0.30763,3.66079 0.24137,4.33553 -0.45337,4.61636 -0.44751,0.18089 -0.7074,0.51 -0.57753,0.73134 0.12986,0.22135 -0.40579,0.37711 -1.19034,0.34615 -0.78671,-0.0311 -1.42689,-0.36254 -1.42741,-0.73912 z m 9.50594,-37.67603 c 0,-0.29507 -0.45837,-0.53649 -1.01859,-0.53649 -0.56023,0 -1.0186,0.24142 -1.0186,0.53649 0,0.29507 0.45837,0.53648 1.0186,0.53648 0.56022,0 1.01859,-0.24141 1.01859,-0.53648 z m -6.03006,-3.29489 c -0.0652,-1.56325 -0.31899,-2.01645 -1.26987,-2.26785 -1.71191,-0.4526 -1.58929,-2.01532 0.12732,-1.62282 2.51387,0.5748 2.73551,0.71996 2.17861,1.42682 -0.28878,0.36653 -0.62169,1.51041 -0.7398,2.54196 l -0.21476,1.87556 z m -1.6094,-54.67743 c 0,-0.31249 0.22918,-0.41895 0.50929,-0.23658 0.28012,0.18236 0.5093,0.43803 0.5093,0.56815 0,0.13012 -0.22918,0.23658 -0.5093,0.23658 -0.28011,0 -0.50929,-0.25567 -0.50929,-0.56815 z m -0.4937,-35.10827 c 0,-0.29507 0.22216,-0.89862 0.4937,-1.34122 0.27153,-0.44261 0.49369,-0.56332 0.49369,-0.26825 0,0.29507 -0.22216,0.89862 -0.49369,1.34122 -0.27154,0.4426 -0.4937,0.56331 -0.4937,0.26825 z m -6.59403,-1.5368 c 0.11672,-0.10757 0.78517,-0.48301 1.48545,-0.83432 1.20056,-0.60229 1.21681,-0.59112 0.28463,0.19557 -0.81131,0.6847 -2.469,1.28289 -1.77008,0.63875 z m -0.55174,-5.1693 c 0,-0.29507 0.22919,-0.53649 0.5093,-0.53649 0.28011,0 0.5093,0.24142 0.5093,0.53649 0,0.29507 -0.22919,0.53649 -0.5093,0.53649 -0.28011,0 -0.5093,-0.24142 -0.5093,-0.53649 z M 418.37919,334.48264 c -14.61771,-0.16712 -26.74536,-0.4805 -26.95033,-0.6964 -0.20496,-0.21591 115.17423,-0.39256 256.3982,-0.39256 229.11922,0 256.77087,0.0876 256.77087,0.81341 0,0.72587 -24.73618,0.80082 -229.82053,0.69641 -126.4013,-0.0644 -241.78049,-0.25374 -256.39821,-0.42086 z m -31.8324,-0.91895 c 0.36765,-0.15498 0.80692,-0.13592 0.97616,0.0423 0.16923,0.17827 -0.13157,0.30507 -0.66845,0.28177 -0.59331,-0.0257 -0.71399,-0.15286 -0.30771,-0.32412 z"
         id="path566" />
      <path
         style="fill:#b73c60;stroke-width:0.522716"
         d="m 732.71,963.24075 c -35.09472,-0.53364 -38.5217,-0.6381 -34.63224,-1.05543 l 3.05579,-0.3279 -3.05579,-0.43059 c -4.75161,-0.66953 -5.42242,-0.96627 -3.43776,-1.52057 l 1.65522,-0.46229 v -69.19155 -69.19155 l 1.14592,-0.0569 c 0.63025,-0.0313 1.77617,-0.0131 2.54649,0.0405 2.20438,0.15311 1.63418,-0.94225 -0.76395,-1.46754 -2.6198,-0.57385 -3.43776,-0.33476 -3.43776,1.00486 0,0.55857 -0.21044,1.01558 -0.46764,1.01558 -0.25721,0 -0.77819,0.12553 -1.15775,0.27896 -0.42953,0.17362 -0.90909,-0.33219 -1.27008,-1.3396 -0.56323,-1.57184 -0.5424,-1.60861 0.72191,-1.27435 1.18417,0.31308 1.27903,0.21836 1.04927,-1.04772 -0.13893,-0.76556 -9e-5,-1.51961 0.30852,-1.67568 0.30862,-0.15607 1.39361,-0.83207 2.41109,-1.50222 7.50154,-4.9408 10.59052,-6.8516 11.07621,-6.8516 0.30887,0 0.84783,-0.48284 1.1977,-1.07298 0.34987,-0.59013 0.87908,-1.07297 1.17602,-1.07297 0.8325,0 3.28102,-1.29268 3.28549,-1.73455 0.002,-0.21633 1.20719,-1.03216 2.67779,-1.81296 1.47059,-0.7808 4.1635,-2.4276 5.98424,-3.65956 1.82074,-1.23196 5.02932,-3.26075 7.13017,-4.50843 3.97477,-2.36058 4.68252,-2.79509 7.63946,-4.69009 0.9804,-0.62831 4.53275,-2.8319 7.89412,-4.89688 3.36136,-2.06498 9.32014,-5.7561 13.24173,-8.2025 3.92159,-2.4464 8.1615,-5.05286 9.42201,-5.79214 6.1676,-3.61727 9.01337,-6.52069 11.12326,-11.34855 1.09802,-2.51251 1.30619,-3.77994 1.3283,-8.08735 0.0242,-4.71497 -0.10205,-5.3824 -1.64127,-8.67591 -1.98222,-4.24143 -5.60113,-7.9492 -10.34052,-10.59444 -1.799,-1.0041 -5.04458,-2.99127 -7.21239,-4.41594 -2.16782,-1.42468 -4.0696,-2.59032 -4.22618,-2.59032 -0.15657,0 -1.53863,-0.84497 -3.07124,-1.87771 -1.53261,-1.03274 -2.88341,-1.87771 -3.00178,-1.87771 -0.11838,0 -2.23388,-1.29425 -4.70112,-2.87612 -2.46724,-1.58187 -5.63181,-3.5186 -7.03238,-4.30385 -1.40056,-0.78525 -3.46322,-2.02476 -4.58367,-2.75447 -1.12046,-0.7297 -3.4123,-2.19091 -5.09298,-3.24712 -1.68068,-1.05622 -4.66007,-2.97658 -6.62087,-4.26748 -1.96079,-1.29091 -5.24361,-3.35167 -7.29514,-4.57947 -2.05153,-1.2278 -3.85172,-2.56635 -4.00042,-2.97455 -0.1487,-0.40819 -0.46751,-0.61383 -0.70846,-0.45697 -0.42714,0.27809 -4.64417,-2.33705 -4.96302,-3.07776 -0.0881,-0.2047 -0.98095,-0.65752 -1.98407,-1.00626 -1.00313,-0.34873 -2.99369,-1.56837 -4.42347,-2.7103 -1.42977,-1.14193 -2.94337,-2.08583 -3.36354,-2.09755 -0.45276,-0.0127 -0.2453,-0.32603 0.5093,-0.76938 1.20503,-0.70799 1.15275,-0.73129 -0.97585,-0.43489 -1.98865,0.27691 -2.20981,0.20535 -1.90986,-0.61802 0.18657,-0.51217 0.33922,-2.60139 0.33922,-4.64274 0,-3.35387 0.0982,-3.71153 1.01859,-3.71153 1.01294,0 1.0186,-0.35766 1.0186,-64.37851 0,-64.02085 -0.006,-64.37851 -1.0186,-64.37851 -0.92805,0 -1.01859,-0.35766 -1.01859,-4.02365 v -4.02366 l 3.94705,-0.041 c 2.17089,-0.0226 4.40543,-0.14028 4.96566,-0.26156 0.56022,-0.12128 16.71769,-0.38202 35.90548,-0.57943 26.30075,-0.27058 35.92681,-0.19808 39.11228,0.29457 28.60946,4.42457 50.97309,26.75611 56.64595,56.56463 0.99058,5.20516 1.00815,7.92794 0.99939,154.7863 -0.01,165.00004 0.21982,153.53503 -3.29673,164.60518 -3.17287,9.98828 -7.75064,18.02406 -14.63292,25.68671 -8.78375,9.77974 -18.25132,15.9913 -29.93541,19.64032 -9.39073,2.93277 -15.30167,3.21126 -55.25878,2.60369 z M 700.8789,816.26864 c 0,-0.57673 -1.98129,-1.34684 -2.38122,-0.92557 -0.147,0.15485 -0.1162,0.53902 0.0684,0.85372 0.41284,0.70365 2.31278,0.76267 2.31278,0.0719 z m 0.22529,-130.3526 c 0.15698,-0.26755 -0.17327,-0.3601 -0.73389,-0.20567 -1.1892,0.32758 -1.33953,0.69212 -0.28541,0.69212 0.40364,0 0.86232,-0.2189 1.0193,-0.48645 z m -10.92054,136.21781 c 0,-0.29507 0.33025,-0.53649 0.73388,-0.53649 0.40364,0 0.87554,0.24142 1.04866,0.53649 0.17312,0.29506 -0.15713,0.53648 -0.73389,0.53648 -0.57676,0 -1.04865,-0.24142 -1.04865,-0.53648 z m -0.013,-33.01052 c -0.63997,-0.81228 -0.63022,-0.81707 2.04536,-1.00493 0.42644,-0.0299 0.87465,-0.75608 1.0228,-1.65703 l 0.26371,-1.60374 0.58459,2.00647 c 0.64854,2.22594 0.407,2.59333 -1.89017,2.87508 -0.79337,0.0973 -1.6757,-0.17086 -2.02629,-0.61585 z m 6.12461,-3.5754 c 0,-0.64776 0.63025,-1.87699 1.40057,-2.73162 l 1.40057,-1.55387 -1.27325,0.10856 c -2.32219,0.198 -3.05578,-0.002 -3.05578,-0.83177 0,-0.45187 0.34377,-0.96054 0.76394,-1.13038 0.6662,-0.26929 0.76395,-4.06949 0.76395,-29.70082 0,-25.63134 -0.0978,-29.43154 -0.76395,-29.70083 -1.29243,-0.52243 -0.84615,-1.41545 0.70736,-1.41545 2.58268,0 1.53915,-2.53353 -1.08933,-2.64473 -0.62806,-0.0266 -0.89127,0.37158 -0.89127,1.34821 0,0.87542 -0.2345,1.30006 -0.63662,1.1528 -0.58917,-0.21574 -0.65129,-1.01232 -0.30619,-3.92604 0.11759,-0.99279 0.29322,-1.0552 1.55627,-0.553 0.78305,0.31136 1.42373,0.75459 1.42373,0.98496 0,0.23038 0.26446,0.41887 0.58768,0.41887 0.5705,0 5.8188,3.05963 8.51843,4.96604 0.73397,0.5183 2.36582,1.46146 3.62633,2.0959 1.26051,0.63443 4.58368,2.47543 7.38481,4.0911 2.80114,1.61568 6.2389,3.59804 7.63947,4.40526 4.54621,2.62022 22.80799,13.46206 26.98237,16.01918 2.23519,1.36922 4.52703,2.73803 5.09298,3.04181 1.84674,0.99128 1.10191,1.95194 -3.67877,4.74476 -2.58927,1.51262 -6.53742,3.89697 -8.77368,5.29854 -2.23626,1.40157 -4.24901,2.54832 -4.47277,2.54832 -0.22377,0 -2.00521,1.04255 -3.95876,2.31677 -1.95355,1.27423 -5.38538,3.35557 -7.62629,4.62521 -5.90045,3.34304 -8.55527,4.95228 -9.42201,5.71125 -0.42017,0.36792 -1.79527,1.10105 -3.05578,1.62916 -1.26051,0.52812 -3.20858,1.61 -4.32903,2.40418 -2.58702,1.8337 -9.9313,5.91614 -9.9313,5.52048 0,-0.16422 -0.77191,0.20395 -1.71533,0.81816 -2.18687,1.42371 -2.86835,1.40921 -2.86835,-0.061 z m 3.56508,-66.4197 c 0.42017,-0.28603 0.53476,-0.52005 0.25465,-0.52005 -0.28011,0 -0.85307,0.23402 -1.27324,0.52005 -0.42017,0.28604 -0.53477,0.52006 -0.25465,0.52006 0.28011,0 0.85307,-0.23402 1.27324,-0.52006 z m -7.63946,-34.87169 c 0,-0.29506 0.34377,-0.53648 0.76394,-0.53648 0.42017,0 0.76395,0.24142 0.76395,0.53648 0,0.29507 -0.34378,0.53649 -0.76395,0.53649 -0.42017,0 -0.76394,-0.24142 -0.76394,-0.53649 z m -3.12676,-1.96778 c -0.35874,-0.45533 -0.12835,-0.58433 0.84301,-0.47201 1.81323,0.20967 2.57523,1.09857 0.94173,1.09857 -0.7101,0 -1.51323,-0.28195 -1.78474,-0.62656 z m 1.47154,-3.7524 c 0.35014,-0.14882 0.9231,-0.14882 1.27324,0 0.35015,0.14883 0.0637,0.2706 -0.63662,0.2706 -0.70028,0 -0.98676,-0.12177 -0.63662,-0.2706 z m 43.79322,-343.85288 c -0.096,-0.1011 -36.60269,-0.25159 -81.12604,-0.33444 -44.52335,-0.0828 -90.46268,-0.27537 -102.08739,-0.42782 -11.62472,-0.15246 63.14653,-0.33352 166.15833,-0.40237 169.30728,-0.11315 187.29419,-0.0449 187.29419,0.71082 0,0.75405 -8.3343,0.82626 -85.03232,0.7368 -46.76775,-0.0546 -85.1108,-0.1819 -85.20677,-0.28299 z"
         id="path564" />
      <path
         style="fill:#ca344a;stroke-width:0.522716"
         d="m 755.11909,962.67942 c -7.00284,-0.15531 -11.8157,-0.3706 -10.69525,-0.47849 l 2.03719,-0.19609 -2.03719,-0.32623 c -1.33366,-0.21358 -2.03719,-0.60414 -2.03719,-1.13097 0,-0.44261 0.34378,-0.80474 0.76395,-0.80474 0.67586,0 0.76394,-9.86541 0.76394,-85.56976 0,-75.781 -0.0874,-85.55004 -0.76394,-85.39732 -0.64659,0.14595 -0.65637,0.0635 -0.0637,-0.53649 0.55115,-0.55795 0.75,-0.56611 0.93371,-0.0383 0.28172,0.80934 1.49073,0.88469 1.93889,0.12083 0.17741,-0.30237 0.0477,-0.48344 -0.28825,-0.40236 -0.33595,0.0811 -0.70067,-0.10637 -0.81049,-0.41654 -0.1248,-0.35245 0.48062,-0.48029 1.61427,-0.34088 1.25093,0.15384 2.12306,-0.0716 2.80983,-0.72629 1.15671,-1.1027 1.36964,-2.31419 0.23193,-1.31956 -0.42017,0.36733 -0.76395,0.51203 -0.76395,0.32157 0,-0.19047 -0.58473,0.0573 -1.2994,0.55054 -0.90495,0.62461 -1.46122,0.72639 -1.8325,0.33528 -0.37128,-0.3911 0.24215,-0.97175 2.02083,-1.91282 1.40466,-0.74319 2.63037,-1.31098 2.72378,-1.26177 0.0934,0.0493 0.11555,-0.008 0.0492,-0.12699 -0.17016,-0.30541 8.14885,-5.41665 8.81608,-5.41665 0.30195,0 1.05069,-0.56252 1.66386,-1.25006 0.61317,-0.68753 2.16231,-1.83427 3.44253,-2.54832 5.06554,-2.82528 9.33639,-5.7612 11.20655,-7.70372 5.29547,-5.50038 7.38786,-16.57742 4.28376,-22.67819 -0.56437,-1.1092 -1.02612,-2.30788 -1.02612,-2.66374 0,-1.60109 -9.90213,-10.36688 -11.71079,-10.36688 -0.23881,0 -1.08205,-0.55259 -1.87385,-1.22798 -0.7918,-0.67539 -2.0126,-1.5225 -2.71289,-1.88246 -1.43461,-0.73743 -4.88777,-2.8547 -7.81434,-4.79128 -1.81278,-1.19956 -1.88935,-1.34769 -1.03636,-2.00471 0.81749,-0.62968 0.72262,-0.68497 -0.84372,-0.49177 -1.04282,0.12862 -1.97312,-0.0593 -2.27407,-0.4593 -0.28011,-0.37234 -2.28792,-1.60118 -4.4618,-2.73076 -3.70388,-1.92459 -4.90297,-3.45211 -2.13551,-2.72044 1.00727,0.2663 1.32949,0.0628 1.75133,-1.10593 0.28432,-0.78776 0.51695,-1.51325 0.51695,-1.61221 0,-0.099 -0.80214,-0.1014 -1.78254,-0.005 -1.00217,0.0981 -1.78254,-0.0701 -1.78254,-0.3842 0,-0.3073 0.40107,-0.44823 0.89127,-0.31319 0.84648,0.23319 0.88472,-4.04903 0.76085,-85.20325 l -0.13042,-85.44878 5.22339,-0.18812 c 2.87287,-0.10345 10.72382,-0.15212 17.44654,-0.10815 10.48511,0.0686 12.91112,0.24399 17.06147,1.23352 7.06246,1.68384 15.17393,5.17758 20.27011,8.73067 1.20453,0.8398 2.31056,1.52691 2.45785,1.52691 0.77735,0 6.58811,5.28783 10.39117,9.45604 8.87119,9.72294 14.41606,20.59796 17.47225,34.2677 l 1.07946,4.82839 0.1696,148.33881 c 0.12335,107.92553 0.0127,149.65427 -0.4053,153.1672 -2.46307,20.68921 -13.04989,38.73188 -29.53534,50.33589 -4.02277,2.83163 -12.55365,7.08238 -17.06147,8.50145 -3.24319,1.02093 -9.01589,1.99578 -13.82587,2.33484 -2.75998,0.19459 -5.47651,0.39202 -6.03674,0.4388 -0.56022,0.0467 -6.74819,-0.0419 -13.75103,-0.19732 z m -7.13618,-247.98609 c -1.03555,-0.61046 -1.49614,-0.18623 -1.06948,0.98502 0.26871,0.73763 0.45761,0.77114 1.1137,0.19756 0.71173,-0.62223 0.70735,-0.73952 -0.0442,-1.18258 z m 2.29785,-0.92997 c 0,-0.29507 -0.22918,-0.53649 -0.5093,-0.53649 -0.28011,0 -0.50929,0.24142 -0.50929,0.53649 0,0.29507 0.22918,0.53649 0.50929,0.53649 0.28012,0 0.5093,-0.24142 0.5093,-0.53649 z m -9.05064,77.15362 c 0.31478,-0.99477 1.41118,-1.15976 1.41118,-0.21236 0,0.46719 -0.36288,0.84943 -0.80639,0.84943 -0.44351,0 -0.71567,-0.28668 -0.60479,-0.63707 z m -2.6632,-30.69005 c 0,-0.11597 0.35568,-0.35462 0.7904,-0.53034 0.45323,-0.18321 0.65766,-0.0933 0.47924,0.21084 -0.29909,0.50978 -1.26964,0.75401 -1.26964,0.3195 z m 3.82591,-1.38808 c -0.20669,-0.35228 -0.14661,-0.88193 0.1335,-1.177 0.66373,-0.69916 1.19129,0.20002 0.65432,1.11523 -0.31304,0.53356 -0.50231,0.5484 -0.78782,0.0618 z m 1.26706,-2.69297 c 0,-0.5961 -0.33953,-1.07298 -0.76394,-1.07298 -0.42017,0 -0.76395,-0.36213 -0.76395,-0.80473 0,-0.4426 0.23638,-0.80473 0.52528,-0.80473 0.28891,0 0.6572,0.36213 0.81844,0.80473 0.16123,0.4426 0.80339,0.80473 1.42702,0.80473 1.39463,0 1.82696,0.41024 1.46871,1.39367 -0.15073,0.41375 -0.82249,0.75228 -1.4928,0.75228 -0.87922,0 -1.21876,-0.29892 -1.21876,-1.07297 z m 4.07438,-0.96709 c -0.70028,-0.11773 -1.38783,-0.39142 -1.52789,-0.60819 -0.14006,-0.21677 -0.71302,-0.65829 -1.27324,-0.98116 -0.97779,-0.56352 -0.96447,-0.60872 0.3325,-1.12816 1.7572,-0.70376 2.20469,-1.52717 1.39114,-2.55977 -0.48536,-0.61604 -1.19197,-0.7482 -2.71766,-0.5083 -2.05472,0.32309 -2.05781,0.32093 -0.9026,-0.63219 0.63755,-0.52601 1.3251,-1.60677 1.5279,-2.40168 0.34373,-1.34735 0.45501,-1.39805 1.64196,-0.74804 0.70029,0.38351 1.21823,0.9721 1.15099,1.30801 -0.19644,0.98132 1.8407,1.90315 2.64734,1.19797 0.50341,-0.44011 0.86847,-0.391 1.42111,0.19114 0.40902,0.43086 1.59941,1.16002 2.6453,1.62035 2.41344,1.06223 2.14991,2.23944 -0.4631,2.06866 -1.5525,-0.10147 -1.80274,0.0106 -1.3388,0.59943 0.42587,0.54053 0.4033,0.87047 -0.089,1.30085 -1.06599,0.93193 -3.07664,1.51128 -4.44595,1.28108 z m -5.31078,-10.23636 c -0.15379,-0.26212 0.29067,-0.59143 0.98769,-0.73178 1.52239,-0.30656 1.61137,-0.0992 0.27962,0.65156 -0.5593,0.31531 -1.10896,0.35011 -1.26731,0.0802 z M 693.49408,333.92429 c -18.20739,-0.15076 21.8425,-0.33183 88.99975,-0.40236 82.65946,-0.0868 122.1041,0.0484 122.1041,0.41842 0,0.55978 -142.87498,0.54891 -211.10385,-0.0161 z"
         id="path562" />
      <path
         style="fill:#da2e37;stroke-width:0.522716"
         d="m 791.53387,957.06047 c 0,-0.62024 0.28587,-0.78145 0.97638,-0.5506 0.78562,0.26266 0.92446,0.11722 0.71059,-0.74427 -0.20302,-0.81777 0.0475,-1.1535 1.0608,-1.42142 1.84594,-0.48799 1.72003,-1.84386 -0.17123,-1.84386 -0.82381,0 -1.63948,0.24142 -1.8126,0.53649 -0.17312,0.29507 -0.58772,0.53654 -0.92133,0.53654 -0.43485,5e-5 -0.56257,-1.32882 -0.45117,-4.69426 0.2085,-6.29869 0.76972,-7.28953 1.13958,-2.01189 l 0.30078,4.2919 0.0934,-4.15777 c 0.074,-3.29441 0.25202,-4.15778 0.85734,-4.15778 0.67768,0 0.76394,-22.32738 0.76394,-197.72733 0,-121.8971 -0.18182,-197.60896 -0.4741,-197.41867 -0.26076,0.16976 -0.63995,0.026 -0.84264,-0.31948 -0.23016,-0.39229 -0.14777,-0.4844 0.21946,-0.24533 0.32339,0.21054 0.58799,0.11955 0.58799,-0.20219 0,-0.32174 -0.34378,-0.69812 -0.76395,-0.83639 -0.42017,-0.13827 -1.14605,-0.38003 -1.61306,-0.53724 -0.57962,-0.19511 -0.6835,-0.46027 -0.32732,-0.83547 0.35619,-0.37521 1.54244,-0.003 3.73772,1.17181 1.76875,0.9468 3.78794,1.74525 4.48708,1.77433 0.69914,0.0291 1.3786,0.39312 1.50992,0.80897 0.16415,0.51982 -0.0217,0.65082 -0.59468,0.4192 -0.52025,-0.21029 -0.83344,-0.0624 -0.83344,0.3936 0,0.40177 0.36252,0.87704 0.8056,1.05614 1.12537,0.4549 1.34033,0.40851 0.97694,-0.21085 -0.17312,-0.29506 0.0318,-0.53648 0.45528,-0.53648 1.07697,0 3.36445,1.15281 3.36445,1.69558 0,0.2477 0.34122,0.45037 0.75826,0.45037 0.98786,0 6.73213,4.60548 7.41109,5.94186 0.2885,0.56787 0.84103,1.03247 1.22785,1.03247 0.80728,0 6.2363,6.10403 7.03814,7.9132 0.29422,0.6639 0.70686,1.20709 0.91689,1.20709 0.54597,0 4.01658,5.96679 6.39698,10.998 3.19309,6.74875 4.7271,11.64617 6.04959,19.31355 0.63606,3.68755 0.73904,25.1796 0.73161,152.63071 -0.009,158.4737 0.0887,152.01203 -2.44443,161.23522 -1.84605,6.72149 -6.22015,16.36019 -9.24966,20.38229 -1.10441,1.46627 -2.561,3.51093 -3.23684,4.54367 -1.64504,2.51366 -8.88232,9.59964 -11.47992,11.23995 -1.1453,0.72324 -2.08237,1.62857 -2.08237,2.01183 0,0.38332 -0.36569,0.6969 -0.81265,0.6969 -0.44696,0 -1.43889,0.46975 -2.2043,1.04384 -1.51642,1.13746 -9.27108,5.0778 -11.11605,5.64841 -0.85825,0.2654 -1.14592,0.13423 -1.14592,-0.52264 z m 7.89411,-5.09664 c 0.18165,-0.3096 -0.29025,-0.533 -1.11586,-0.52827 -1.11084,0.006 -1.25986,0.12446 -0.66668,0.52827 0.97851,0.66611 1.39172,0.66611 1.78254,0 z m 0.76395,-398.87849 c 0,-0.44261 -0.22919,-0.80474 -0.5093,-0.80474 -0.28012,0 -0.5093,0.36213 -0.5093,0.80474 0,0.4426 0.22918,0.80473 0.5093,0.80473 0.28011,0 0.5093,-0.36213 0.5093,-0.80473 z m -10.18596,199.06854 c 0,-1.01532 0.22919,-1.99525 0.5093,-2.17761 0.30758,-0.20024 0.5093,0.53092 0.5093,1.84604 0,1.19769 -0.22919,2.17762 -0.5093,2.17762 -0.28011,0 -0.5093,-0.83072 -0.5093,-1.84605 z M 779.31072,737.9053 c 0,-0.29507 0.24272,-0.53649 0.53936,-0.53649 0.29665,0 0.39771,0.24142 0.22459,0.53649 -0.17312,0.29507 -0.41583,0.53649 -0.53936,0.53649 -0.12352,0 -0.22459,-0.24142 -0.22459,-0.53649 z m 7.63947,-191.44659 c 0,-0.83996 1.44108,-1.78603 2.3947,-1.57212 0.72094,0.16171 0.56364,0.4023 -0.73948,1.13105 -0.91037,0.5091 -1.65522,0.70758 -1.65522,0.44107 z m -3.81973,-2.22542 c -0.17312,-0.29507 0.0561,-0.53649 0.50929,-0.53649 0.45324,0 0.68242,0.24142 0.5093,0.53649 -0.17312,0.29507 -0.4023,0.53649 -0.5093,0.53649 -0.10699,0 -0.33617,-0.24142 -0.50929,-0.53649 z m 52.7123,-210.30312 -36.92408,-0.27884 52.83963,-0.12882 c 34.96842,-0.0853 52.83962,0.0526 52.83962,0.40766 0,0.34896 -5.56316,0.49145 -15.91555,0.40766 -8.75355,-0.0709 -32.53138,-0.2543 -52.83962,-0.40766 z"
         id="path560" />
    </g>
  </g>
</svg>
