<?xml version="1.0" encoding="UTF-8" standalone="no"?>
<svg
   xmlns:dc="http://purl.org/dc/elements/1.1/"
   xmlns:cc="http://creativecommons.org/ns#"
   xmlns:rdf="http://www.w3.org/1999/02/22-rdf-syntax-ns#"
   xmlns:svg="http://www.w3.org/2000/svg"
   xmlns="http://www.w3.org/2000/svg"
   xmlns:sodipodi="http://sodipodi.sourceforge.net/DTD/sodipodi-0.dtd"
   xmlns:inkscape="http://www.inkscape.org/namespaces/inkscape"
   width="210mm"
   height="297mm"
   viewBox="0 0 210 297"
   version="1.1"
   id="svg8"
   inkscape:version="1.0.2-2 (e86c870879, 2021-01-15)"
   sodipodi:docname="logoV2.svg">
  <defs
     id="defs2" />
  <sodipodi:namedview
     id="base"
     pagecolor="#ffffff"
     bordercolor="#666666"
     borderopacity="1.0"
     inkscape:pageopacity="0.0"
     inkscape:pageshadow="2"
     inkscape:zoom="0.7"
     inkscape:cx="401.51174"
     inkscape:cy="522.60863"
     inkscape:document-units="mm"
     inkscape:current-layer="layer1"
     inkscape:document-rotation="0"
     showgrid="false"
     inkscape:window-width="1920"
     inkscape:window-height="1027"
     inkscape:window-x="-8"
     inkscape:window-y="-8"
     inkscape:window-maximized="1" />
  <metadata
     id="metadata5">
    <rdf:RDF>
      <cc:Work
         rdf:about="">
        <dc:format>image/svg+xml</dc:format>
        <dc:type
           rdf:resource="http://purl.org/dc/dcmitype/StillImage" />
        <dc:title></dc:title>
      </cc:Work>
    </rdf:RDF>
  </metadata>
  <g
     inkscape:label="Layer 1"
     inkscape:groupmode="layer"
     id="layer1">
    <g
       id="g558"
       transform="matrix(0.24550488,0,0,0.21828468,-51.985379,-35.359291)">
      <path
         id="path572"
         style="fill:#5a62cc;stroke-width:0.457346"
         transform="matrix(1.0777111,0,0,1.2121022,162.48207,200.08169)"
         d="m 504.97852,279.12109 c -17.82025,0.001 -40.50457,0.0192 -69.4375,0.0488 l -130.90235,0.13281 -4.2539,0.93165 c -12.24703,2.68105 -21.87397,7.41917 -30.36133,14.9414 -9.16939,8.12668 -15.57937,18.86911 -18.37696,30.80078 -0.84954,3.62316 -0.88281,8.37428 -0.88281,128.57813 0,119.0266 0.0412,124.99042 0.86133,128.57812 1.72352,7.53919 5.00648,14.83588 9.58789,21.31055 3.01022,4.25423 11.76707,12.49921 16.25586,15.30469 7.57416,4.7338 16.15282,7.99854 24.80664,9.4414 4.4522,0.74233 12.26188,0.79042 134.91992,0.82227 111.1735,0.0287 130.85003,-0.0602 134.6836,-0.60547 28.12596,-4.0007 49.67203,-24.93712 52.91015,-51.41016 0.31539,-2.57842 0.48169,-45.30487 0.48633,-123.82617 0.003,-105.65063 -0.0831,-120.45023 -0.72461,-124.5957 -4.0216,-25.98755 -25.4369,-46.09026 -53.11523,-49.85938 -3.30965,-0.45068 -12.99629,-0.59779 -66.45703,-0.59375 z m -141.08985,54.96485 c 3.04312,0.1353 6.33125,1.17456 9.93945,3.13476 5.61666,3.05133 88.41366,47.83986 110.38672,59.71289 4.93839,2.66844 18.54991,10.03305 30.2461,16.36524 11.69619,6.3322 28.06943,15.17274 36.38672,19.64648 12.79562,6.88257 15.53292,8.53409 17.79101,10.74024 3.7406,3.65455 4.818,6.44374 4.53711,11.75586 -0.24913,4.71132 -1.27914,7.22715 -4.14648,10.14062 -2.27844,2.31509 -2.98639,2.74452 -17,10.32227 -33.99145,18.38056 -65.26914,35.25868 -67.1543,36.23632 -0.15705,0.0815 -0.86246,-1.23088 -1.56836,-2.91601 -1.49748,-3.57482 -4.37856,-7.94398 -6.78516,-10.28906 -0.93223,-0.90842 -1.6033,-1.72378 -1.49023,-1.81055 0.11306,-0.0868 14.34649,-7.7932 31.63086,-17.125 17.28437,-9.3318 34.7747,-18.77446 38.86719,-20.98438 4.09249,-2.20992 7.44243,-4.12961 7.44336,-4.26757 10e-4,-0.13795 -20.04009,-11.08479 -44.53711,-24.32617 -24.49703,-13.2414 -46.24099,-24.996 -48.32032,-26.1211 -2.07932,-1.1251 -7.28952,-3.94088 -11.57812,-6.25586 -18.97826,-10.24442 -78.4479,-42.43037 -80.71289,-43.68359 -1.37599,-0.76134 -2.70465,-1.38477 -2.95313,-1.38477 -0.28601,0 -0.45312,37.35316 -0.45312,101.80078 0,55.99006 0.13919,101.79883 0.30859,101.79883 0.1694,0 4.91744,-2.48134 10.55078,-5.51562 5.63335,-3.03428 10.60279,-5.64649 11.04297,-5.80469 0.73989,-0.26592 0.78943,0.4747 0.67188,9.82031 l -0.12696,10.10938 -7.79687,4.23828 c -4.2886,2.33047 -8.67128,4.56285 -9.73828,4.96094 -9.97507,3.72163 -21.59122,-2.68683 -23.37696,-12.89649 -0.55796,-3.19241 -0.56401,-209.56232 -0.006,-213.17383 0.56773,-3.67354 2.16831,-6.65936 4.98437,-9.29687 2.7768,-2.60073 5.95243,-4.1144 9.99414,-4.76563 0.96268,-0.15511 1.94852,-0.21111 2.96289,-0.16601 z m 61.57031,90.70508 c 6.12948,0.0231 11.67264,0.35243 15.98829,1.00586 9.94136,1.50521 17.36485,4.37283 23.95312,9.25195 7.79508,5.77302 11.56495,13.49209 11.58008,23.71094 0.009,6.31268 -1.61407,11.28105 -5.39063,16.50781 -3.71287,5.13862 -9.43058,9.52006 -15.83398,12.13281 -1.6313,0.6656 -2.9668,1.3298 -2.9668,1.47461 0,0.14481 1.22423,0.62316 2.71875,1.0625 4.03765,1.18695 8.90015,3.58163 12.75781,6.28125 1.8844,1.31871 3.42774,2.48418 3.42774,2.58984 0,0.10566 -1.0115,0.73267 -2.24609,1.39453 -1.2346,0.66188 -4.57423,2.48546 -7.42188,4.05274 -3.30221,1.81746 -5.37634,2.71096 -5.72656,2.4668 -0.30201,-0.21056 -1.69295,-1.26104 -3.0918,-2.33399 -4.77193,-3.66012 -12.24012,-6.1905 -20.97461,-7.10937 -2.33923,-0.24609 -8.4004,-0.4487 -13.46875,-0.45118 l -9.21484,-0.004 v 17.81445 17.81641 l -2.12695,1.24414 c -1.16962,0.68417 -5.06695,2.83709 -8.66211,4.78516 -3.59516,1.94807 -6.8385,3.65074 -7.20704,3.7832 -0.57627,0.20712 -0.66992,-7.8129 -0.66992,-57.28906 v -57.53125 l 2.00781,-0.30079 c 10.50798,-1.58045 22.35257,-2.39404 32.56836,-2.35546 z m -0.875,13.70898 c -2.05059,0.0101 -4.12542,0.0899 -6.16992,0.24219 -3.83629,0.28572 -7.40009,0.63462 -7.91992,0.77539 -0.93094,0.25211 -0.9433,0.58481 -0.81836,22.14258 l 0.12695,21.88672 h 8.14258 c 18.78591,-8.5e-4 26.641,-1.96376 33.46875,-8.35938 4.69947,-4.40203 6.57422,-8.64364 6.57422,-14.87891 0,-10.08298 -6.05733,-17.24466 -17.01367,-20.11718 -4.29771,-1.12677 -10.23884,-1.72168 -16.39063,-1.69141 z m 56.38086,76.0293 c 0.73164,0 1.04284,1.57272 1.40625,7.08203 0.51768,7.84798 -1.60031,15.62768 -5.94726,21.84765 -7.20443,10.30869 -16.86119,15.47207 -34.51563,18.45313 -5.21971,0.88137 -7.70957,1.00917 -21.72656,1.10937 -14.71913,0.10526 -25.77389,-0.33451 -26.56055,-1.05468 -0.18327,-0.16775 4.72948,-3.04273 10.91797,-6.38868 l 11.25196,-6.08203 6.80273,-0.002 c 15.86979,-0.003 26.08727,-2.82741 32.81641,-9.07226 3.65242,-3.38957 5.71158,-7.23582 6.67187,-12.4629 0.39543,-2.15236 0.75186,-3.93712 0.79297,-3.96484 1.30349,-0.87893 17.71374,-9.46484 18.08984,-9.46484 z" />
      <path
         id="path570"
         style="fill:#7158b1;stroke-width:0.457346"
         transform="matrix(1.0777111,0,0,1.2121022,162.48207,200.08169)"
         d="m 438.37695,279.06445 c -90.40322,-9.5e-4 -129.80363,0.14279 -132.79492,0.48438 -7.58646,0.86633 -18.2629,4.06228 -22.72851,6.80273 -2.20775,1.35486 -0.88478,1.13753 2.3457,-0.38476 1.74551,-0.82253 4.70618,-1.93616 6.58008,-2.47461 1.8739,-0.53846 3.72536,-1.0835 4.11523,-1.21094 1.74239,-0.56954 6.00787,-1.23533 7.00195,-1.09375 1.01483,0.14454 1.0435,0.22581 0.40625,1.13672 -0.63329,0.90524 -0.60844,0.98731 0.31836,1.05273 0.8001,0.0564 0.86238,-0.0143 0.30274,-0.3457 -0.56071,-0.33203 -0.48882,-0.4161 0.35937,-0.42187 1.11386,-0.007 1.46525,-0.69329 0.50782,-0.99219 -1.21316,-0.37875 0.25505,-1.22852 2.12304,-1.22852 1.90295,0 2.00661,0.0718 2.57617,1.78125 0.47226,1.41723 0.59337,36.14191 0.58594,169.74024 -0.006,112.39056 0.14662,167.95898 0.46485,167.95898 0.27942,0 0.47656,1.46058 0.47656,3.54102 v 3.54101 l -1.53516,0.0371 -1.53711,0.0352 1.31055,0.54297 c 2.06394,0.85622 1.01818,1.11884 -1.91406,0.48047 -1.78665,-0.38902 -2.95547,-0.43996 -3.52539,-0.1543 -0.83814,0.42012 -5.55755,-0.14216 -7.68555,-0.91602 -0.51983,-0.18903 -2.81836,-0.9083 -5.10938,-1.59961 -2.29101,-0.69131 -4.27184,-1.41654 -4.40039,-1.61133 -0.12854,-0.19479 -0.55852,-0.35546 -0.95703,-0.35546 -0.39852,0 -1.26688,-0.3979 -1.92773,-0.88477 -1.27962,-0.94271 -2.27188,-1.18403 -1.77539,-0.43164 0.51862,0.78594 6.70597,3.50343 11.23437,4.93359 2.39422,0.75611 6.48092,1.72875 9.08008,2.16211 4.4522,0.74233 12.26188,0.79042 134.91992,0.82227 111.1735,0.0287 130.85003,-0.0602 134.6836,-0.60547 28.12596,-4.0007 49.67203,-24.93712 52.91015,-51.41016 0.31539,-2.57842 0.48169,-45.30487 0.48633,-123.82617 0.003,-105.65063 -0.0831,-120.45023 -0.72461,-124.5957 -3.50546,-22.65236 -20.2682,-41.0941 -43.45703,-47.81055 -9.86719,-2.85795 -1.36811,-2.69757 -142.7168,-2.69922 z m -157.77734,8.75391 c -0.77744,0.14179 -3.91619,2.13496 -4.37305,2.86719 -0.1879,0.30113 0.0669,0.22283 0.56641,-0.17383 0.49953,-0.39666 1.59863,-1.04846 2.44336,-1.44922 0.84472,-0.40077 1.53711,-0.93276 1.53711,-1.18164 0,-0.0643 -0.0628,-0.0828 -0.17383,-0.0625 z m -5.29492,3.33594 c -0.0861,0.0179 -0.2109,0.057 -0.37305,0.11523 -0.42664,0.15334 -0.77539,0.45643 -0.77539,0.67383 0,0.56918 0.27452,0.49069 0.95508,-0.27734 0.37456,-0.4227 0.4518,-0.56543 0.19336,-0.51172 z m -2.29492,1.80273 c -0.12615,0.0181 -0.30353,0.10878 -0.50782,0.26758 -0.38987,0.30305 -0.70703,0.61886 -0.70703,0.70312 0,0.0843 0.31716,0.0386 0.70703,-0.10156 0.38988,-0.14013 0.70899,-0.45592 0.70899,-0.70312 0,-0.12953 -0.075,-0.18409 -0.20117,-0.16602 z m -1.9375,1.34766 c -0.21238,0.0588 -0.57578,0.32123 -0.92969,0.6875 -0.47189,0.48836 -0.63752,0.88867 -0.36914,0.88867 0.59461,0 1.77261,-1.26509 1.45508,-1.5625 -0.0313,-0.0293 -0.0855,-0.0333 -0.15625,-0.0137 z m -2.20313,2.01758 c -0.12996,0 -0.62135,0.39789 -1.0918,0.88476 -0.47044,0.48687 -0.74909,0.88672 -0.61914,0.88672 0.12996,0 0.62136,-0.39985 1.0918,-0.88672 0.47044,-0.48687 0.7491,-0.88476 0.61914,-0.88476 z m -3.50781,3.6914 c -0.0565,0.0102 -0.11862,0.0327 -0.1836,0.0703 -0.25992,0.15045 -0.47265,0.47336 -0.47265,0.7168 0,0.2434 0.21273,0.32037 0.47265,0.16992 0.25992,-0.15045 0.47266,-0.47336 0.47266,-0.71679 0,-0.18261 -0.1196,-0.27091 -0.28906,-0.24024 z m 98.52734,34.07227 c 3.04312,0.1353 6.33125,1.17456 9.93945,3.13476 5.61666,3.05133 88.41366,47.83986 110.38672,59.71289 4.93839,2.66844 18.54991,10.03305 30.2461,16.36524 11.69619,6.3322 28.06943,15.17274 36.38672,19.64648 12.79562,6.88257 15.53292,8.53409 17.79101,10.74024 3.7406,3.65455 4.818,6.44374 4.53711,11.75586 -0.24913,4.71132 -1.27914,7.22715 -4.14648,10.14062 -2.27844,2.31509 -2.98639,2.74452 -17,10.32227 -33.99145,18.38056 -65.26914,35.25868 -67.1543,36.23632 -0.15705,0.0815 -0.86246,-1.23088 -1.56836,-2.91601 -1.49748,-3.57482 -4.37856,-7.94398 -6.78516,-10.28906 -0.93223,-0.90842 -1.6033,-1.72378 -1.49023,-1.81055 0.11306,-0.0868 14.34649,-7.7932 31.63086,-17.125 17.28437,-9.3318 34.7747,-18.77446 38.86719,-20.98438 4.09249,-2.20992 7.44243,-4.12961 7.44336,-4.26757 10e-4,-0.13795 -20.04009,-11.08479 -44.53711,-24.32617 -24.49703,-13.2414 -46.24099,-24.996 -48.32032,-26.1211 -2.07932,-1.1251 -7.28952,-3.94088 -11.57812,-6.25586 -18.97826,-10.24442 -78.4479,-42.43037 -80.71289,-43.68359 -1.37599,-0.76134 -2.70465,-1.38477 -2.95313,-1.38477 -0.28601,0 -0.45312,37.35316 -0.45312,101.80078 0,55.99006 0.13919,101.79883 0.30859,101.79883 0.1694,0 4.91744,-2.48134 10.55078,-5.51562 5.63335,-3.03428 10.60279,-5.64649 11.04297,-5.80469 0.73989,-0.26592 0.78943,0.4747 0.67188,9.82031 l -0.12696,10.10938 -7.79687,4.23828 c -4.2886,2.33047 -8.67128,4.56285 -9.73828,4.96094 -9.97507,3.72163 -21.59122,-2.68683 -23.37696,-12.89649 -0.55796,-3.19241 -0.56401,-209.56232 -0.006,-213.17383 0.56773,-3.67354 2.16831,-6.65936 4.98437,-9.29687 2.7768,-2.60073 5.95243,-4.1144 9.99414,-4.76563 0.96268,-0.15511 1.94852,-0.21111 2.96289,-0.16601 z m 61.57031,90.70508 c 6.12948,0.0231 11.67264,0.35243 15.98829,1.00586 9.94136,1.50521 17.36485,4.37283 23.95312,9.25195 7.79508,5.77302 11.56495,13.49209 11.58008,23.71094 0.009,6.31268 -1.61407,11.28105 -5.39063,16.50781 -3.71287,5.13862 -9.43058,9.52006 -15.83398,12.13281 -1.6313,0.6656 -2.9668,1.3298 -2.9668,1.47461 0,0.14481 1.22423,0.62316 2.71875,1.0625 4.03765,1.18695 8.90015,3.58163 12.75781,6.28125 1.8844,1.31871 3.42774,2.48418 3.42774,2.58984 0,0.10566 -1.0115,0.73267 -2.24609,1.39453 -1.2346,0.66188 -4.57423,2.48546 -7.42188,4.05274 -3.30221,1.81746 -5.37634,2.71096 -5.72656,2.4668 -0.30201,-0.21056 -1.69295,-1.26104 -3.0918,-2.33399 -4.77193,-3.66012 -12.24012,-6.1905 -20.97461,-7.10937 -2.33923,-0.24609 -8.4004,-0.4487 -13.46875,-0.45118 l -9.21484,-0.004 v 17.81445 17.81641 l -2.12695,1.24414 c -1.16962,0.68417 -5.06695,2.83709 -8.66211,4.78516 -3.59516,1.94807 -6.8385,3.65074 -7.20704,3.7832 -0.57627,0.20712 -0.66992,-7.8129 -0.66992,-57.28906 v -57.53125 l 2.00781,-0.30079 c 10.50798,-1.58045 22.35257,-2.39404 32.56836,-2.35546 z m -0.875,13.70898 c -2.05059,0.0101 -4.12542,0.0899 -6.16992,0.24219 -3.83629,0.28572 -7.40009,0.63462 -7.91992,0.77539 -0.93094,0.25211 -0.9433,0.58481 -0.81836,22.14258 l 0.12695,21.88672 h 8.14258 c 18.78591,-8.5e-4 26.641,-1.96376 33.46875,-8.35938 4.69947,-4.40203 6.57422,-8.64364 6.57422,-14.87891 0,-10.08298 -6.05733,-17.24466 -17.01367,-20.11718 -4.29771,-1.12677 -10.23884,-1.72168 -16.39063,-1.69141 z m 56.38086,76.0293 c 0.73164,0 1.04284,1.57272 1.40625,7.08203 0.51768,7.84798 -1.60031,15.62768 -5.94726,21.84765 -7.20443,10.30869 -16.86119,15.47207 -34.51563,18.45313 -5.21971,0.88137 -7.70957,1.00917 -21.72656,1.10937 -14.71913,0.10526 -25.77389,-0.33451 -26.56055,-1.05468 -0.18327,-0.16775 4.72948,-3.04273 10.91797,-6.38868 l 11.25196,-6.08203 6.80273,-0.002 c 15.86979,-0.003 26.08727,-2.82741 32.81641,-9.07226 3.65242,-3.38957 5.71158,-7.23582 6.67187,-12.4629 0.39543,-2.15236 0.75186,-3.93712 0.79297,-3.96484 1.30349,-0.87893 17.71374,-9.46484 18.08984,-9.46484 z m -213.1875,97.15234 0.90039,0.99609 c 0.84601,0.93586 1.22657,1.19793 1.22657,0.84375 0,-0.084 -0.47964,-0.53237 -1.06446,-0.99609 z m 2.78321,2.43359 c -0.56395,0 4.09714,3.71008 7.07812,5.63282 3.21939,2.07646 3.13477,2.03374 3.13477,1.53125 0,-0.1986 -0.89114,-0.82997 -1.97852,-1.40235 -1.08738,-0.57242 -3.31336,-2.10217 -4.94726,-3.40039 -1.63391,-1.29817 -3.11273,-2.36133 -3.28711,-2.36133 z" />
      <path
         id="path568"
         style="fill:#8f4c8e;stroke-width:0.457346"
         transform="matrix(1.0777111,0,0,1.2121022,162.48207,200.08169)"
         d="m 469.47656,279.0625 c -64.4535,-0.002 -97.53922,0.14863 -97.73242,0.44141 -0.18001,0.2728 0.62416,0.4414 2.09766,0.4414 h 2.39062 v 3.54102 c 0,3.48188 0.0199,3.54101 1.18164,3.54101 h 1.18164 v 21.2461 21.24414 h -1.18164 c -0.64978,0 -1.18164,0.1148 -1.18164,0.2539 0,0.41108 1.11696,1.32274 2.00781,1.63868 0.77996,0.27661 0.83406,-0.97076 0.93165,-21.9336 l 0.10351,-22.22656 0.25,22.12891 c 0.19444,17.14757 0.11953,22.3809 -0.33594,23.23828 -0.32328,0.60858 -0.58994,1.35391 -0.59179,1.6582 -0.002,0.3043 -0.30366,0.55469 -0.67188,0.55469 -0.36821,0 -0.76424,-0.25039 -0.88086,-0.55469 -0.14325,-0.37375 -0.52529,-0.22411 -1.17578,0.46094 -0.68601,0.72246 -1.03261,0.85048 -1.20703,0.44336 -0.16286,-0.3801 -0.25843,-0.32552 -0.2832,0.16211 -0.027,0.5304 -0.33031,0.66624 -1.09961,0.49414 -0.94394,-0.21118 -0.98476,-0.16212 -0.35547,0.42383 0.8828,0.822 39.87181,22.0762 111.29101,60.67187 4.93839,2.66876 18.54991,10.035 30.2461,16.36719 11.69619,6.3322 28.06943,15.17274 36.38672,19.64648 12.79562,6.88257 15.53487,8.53409 17.79296,10.74024 3.7406,3.65455 4.81605,6.44374 4.53516,11.75586 -0.24913,4.71132 -1.27914,7.22715 -4.14648,10.14062 -2.27844,2.31509 -2.98639,2.74452 -17,10.32227 -33.99145,18.38056 -65.26914,35.25868 -67.1543,36.23632 -0.15705,0.0815 -0.86246,-1.23088 -1.56836,-2.91601 -1.49748,-3.57482 -4.37856,-7.94398 -6.78516,-10.28906 -0.93223,-0.90842 -1.6033,-1.72378 -1.49023,-1.81055 0.11306,-0.0868 14.34649,-7.7932 31.63086,-17.125 17.28437,-9.3318 34.7747,-18.77446 38.86719,-20.98438 4.09249,-2.20992 7.44243,-4.12961 7.44336,-4.26757 10e-4,-0.13795 -20.04009,-11.08479 -44.53711,-24.32617 -47.28887,-25.56108 -47.42828,-25.63709 -62.02539,-33.5293 -16.43601,-8.88646 -51.93724,-27.99019 -58.59961,-31.5332 -7.98705,-4.24749 -11.7245,-6.23178 -13.94141,-7.4043 l -2.125,-1.125 1.06641,1.09375 c 0.58719,0.60155 0.92369,1.22806 0.74804,1.39258 -0.17566,0.16451 0.19609,0.30334 0.82422,0.30664 0.91079,0.005 0.99697,0.0934 0.43164,0.43554 -0.5732,0.34695 -0.50435,0.42978 0.35547,0.43555 0.58481,0.004 1.0625,0.22661 1.0625,0.49609 0,0.26945 0.331,0.37155 0.73438,0.22657 0.42055,-0.15115 0.60891,-0.0771 0.44336,0.17382 -0.1588,0.24064 0.03,0.4375 0.41992,0.4375 0.38987,0 0.82846,0.18087 0.97461,0.40235 0.5089,0.7712 -0.31825,1.81055 -1.44141,1.81055 -1.10897,0 -1.13086,0.0779 -1.13086,3.98437 0,3.95394 0.009,3.98242 1.18164,3.98242 h 1.18164 v 24.76172 c 0,16.29416 0.16441,24.85416 0.48047,25.03711 0.26416,0.15291 0.34051,0.48954 0.16992,0.74805 -0.1706,0.2585 -0.26988,27.28084 -0.2207,60.04883 0.0792,52.80106 0.1717,59.62125 0.80859,59.95507 0.62555,0.32788 0.606,0.45254 -0.14257,0.96875 -0.81055,0.55892 -0.81204,0.6105 -0.0352,0.89258 0.45621,0.16566 0.67948,0.52609 0.5,0.80664 -0.17836,0.27878 0.0453,0.22548 0.49609,-0.11718 0.57561,-0.43755 0.96774,-0.48269 1.31836,-0.1543 0.35063,0.32839 0.036,0.56234 -1.05664,0.78711 -1.68633,0.34689 -2.43049,0.88151 -2.92383,2.10156 -0.17425,0.43095 -0.94753,0.90278 -1.71679,1.04687 -0.76927,0.14411 -1.5192,0.55879 -1.66797,0.92188 -0.15479,0.37781 -0.58255,0.54651 -1,0.39648 -0.4174,-0.15002 -0.60663,-0.0746 -0.44141,0.17579 0.15879,0.24064 -0.0173,0.4375 -0.39258,0.4375 -0.37532,0 -1.02956,0.4961 -1.45312,1.10156 -0.42356,0.60545 -1.63817,1.51647 -2.69922,2.02344 -1.06104,0.50696 -1.83519,1.00799 -1.7207,1.11523 0.11448,0.10724 3.37754,-1.52058 7.25195,-3.61719 9.63011,-5.21124 12.94093,-6.9263 13.01563,-6.74804 0.0349,0.0832 0.12378,4.75144 0.19921,10.375 l 0.13868,10.22461 -1.6836,0.75195 c -0.92588,0.41353 -4.50369,2.31515 -7.95117,4.22656 -3.44747,1.91141 -6.67953,3.5988 -7.18164,3.74805 -0.50212,0.14929 -0.91406,0.54375 -0.91406,0.87695 0,0.44938 0.52788,0.34334 2.04101,-0.41016 1.12199,-0.55875 2.37827,-1.33217 2.79102,-1.71875 0.71487,-0.66952 1.61792,-0.89592 2.93359,-0.73437 0.32901,0.0404 0.54179,-0.15992 0.47266,-0.44531 -0.0691,-0.28545 0.14208,-0.61055 0.46875,-0.72266 0.78162,-0.26831 0.49805,1.58832 -0.31445,2.05859 -0.32786,0.1898 -0.54637,0.52207 -0.48633,0.73829 0.06,0.21621 -0.66872,0.51156 -1.61914,0.65625 -2.23056,0.33957 -2.64723,0.76592 -1.50977,1.54492 1.11076,0.76067 2.71357,0.81326 3.46094,0.11328 1.35159,-1.26591 1.52754,2.03122 1.41601,26.32422 l -0.11132,24.42578 -0.24805,-24.56445 -0.24805,-24.56446 -0.11328,24.56446 -0.11328,24.56445 -3.4043,0.12891 c -4.5394,0.17071 -4.74806,0.53515 -0.30664,0.53515 2.30411,0 3.8513,0.21746 4.44922,0.62695 0.88039,0.60293 0.86364,0.64062 -0.41601,0.94141 -0.73289,0.17226 -7.74974,0.45447 -15.59375,0.62695 -7.84401,0.17249 34.86189,0.34583 94.90234,0.38477 92.99489,0.0601 109.82983,-0.0244 113.6543,-0.56836 28.12596,-4.0007 49.67203,-24.93712 52.91015,-51.41016 0.31539,-2.57842 0.48169,-45.30487 0.48633,-123.82617 0.003,-105.65063 -0.0831,-120.45023 -0.72461,-124.5957 -3.50546,-22.65236 -20.2682,-41.0941 -43.45703,-47.81055 -9.74989,-2.82398 -4.50518,-2.69869 -111.61719,-2.70117 z m -98.22265,53.26758 c -0.16862,0.0301 -0.43506,0.21977 -0.68164,0.49804 -0.37275,0.42065 -0.40908,0.67383 -0.0957,0.67383 0.57113,0 1.23593,-0.83954 0.90821,-1.14648 -0.0297,-0.0279 -0.0747,-0.0354 -0.13086,-0.0254 z m -6.36329,1.22851 c -0.21413,0 -0.42739,0.0304 -0.58984,0.0918 -0.32489,0.12279 -0.0599,0.22461 0.58984,0.22461 0.64983,0 0.91669,-0.10182 0.5918,-0.22461 -0.16244,-0.0614 -0.37766,-0.0918 -0.5918,-0.0918 z m 2.32422,0.43946 c -0.16417,-0.006 -0.35091,0.022 -0.52148,0.0859 -0.37698,0.1413 -0.26536,0.2463 0.28516,0.26758 0.49817,0.0192 0.77616,-0.0853 0.61914,-0.23242 -0.0785,-0.0735 -0.21865,-0.11477 -0.38282,-0.12109 z m 3.4375,0.83789 c -0.6887,0.006 -0.70074,0.0658 -0.0898,0.43554 0.92547,0.56017 1.55128,0.56017 1.18164,0 -0.16064,-0.24343 -0.65228,-0.43884 -1.0918,-0.43554 z m 6.40821,1.82422 c 0.20459,-0.004 0.37209,0.0315 0.45312,0.10742 0.16207,0.15178 0.0334,0.27539 -0.28515,0.27539 -0.31862,0 -0.44775,0.19797 -0.28711,0.44141 0.35968,0.54511 0.20267,0.54946 -0.69532,0.0176 -0.5935,-0.35154 -0.57303,-0.45515 0.13868,-0.71093 0.22938,-0.0825 0.47118,-0.12654 0.67578,-0.13086 z m 1.28125,0.63086 c 0.19779,-0.0387 0.55291,0.0456 1.08008,0.23242 0.6219,0.22036 1.06445,0.74929 1.06445,1.27539 0,1.24922 -1.1293,1.12532 -1.89063,-0.20703 -0.4758,-0.83267 -0.58356,-1.23625 -0.2539,-1.30078 z m -13.26368,15.88671 c -0.17039,0.003 -0.18601,0.18968 -0.18554,0.5625 7.8e-4,0.56741 0.39709,0.7995 1.42969,0.83399 0.78549,0.0261 1.36823,0.0156 1.29687,-0.0234 -0.0713,-0.039 -0.71297,-0.41518 -1.42773,-0.83398 -0.61738,-0.36173 -0.94289,-0.54213 -1.11329,-0.53907 z m 3.45118,2.16993 c -0.10633,-0.0101 -0.1821,-0.001 -0.2168,0.0312 -0.14912,0.13966 -0.01,0.2539 0.30859,0.2539 0.31854,0 0.45708,0.18319 0.3086,0.40821 -0.14848,0.22501 0.10446,0.50137 0.5625,0.61328 1.21736,0.29741 2.01562,0.33497 2.01562,0.0957 0,-0.33182 -2.23424,-1.33158 -2.97851,-1.40234 z m 10.89258,10.02148 c 0.19493,-5e-5 0.35546,12.64762 0.35546,28.10547 0,15.45784 -0.16053,28.10514 -0.35546,28.10547 -0.19495,3.2e-4 -0.35352,-12.64734 -0.35352,-28.10547 0,-15.45813 0.15857,-28.10543 0.35352,-28.10547 z m 45.1914,59.56836 c 7.02061,0.0436 13.70549,0.31087 16.59766,0.77734 10.41463,1.67976 17.59293,4.4486 24.18945,9.33399 7.79508,5.77303 11.56495,13.49209 11.58008,23.71094 0.009,6.31268 -1.61407,11.28104 -5.39063,16.50781 -3.71287,5.13862 -9.43058,9.52202 -15.83398,12.13476 -1.6313,0.66562 -2.9668,1.32785 -2.9668,1.47266 0,0.14481 1.22423,0.62315 2.71875,1.0625 4.03765,1.18695 8.90015,3.58163 12.75781,6.28125 1.8844,1.31871 3.42774,2.48418 3.42774,2.58984 0,0.10567 -1.0115,0.73266 -2.24609,1.39453 -1.2346,0.66188 -4.57423,2.48545 -7.42188,4.05274 -3.30221,1.81745 -5.37634,2.71096 -5.72656,2.4668 -0.30201,-0.21056 -1.69295,-1.26105 -3.0918,-2.33399 -4.77193,-3.66012 -12.24012,-6.1905 -20.97461,-7.10937 -2.33923,-0.24609 -8.34624,-0.4487 -13.34961,-0.45118 l -9.09765,-0.004 v 17.88672 17.88672 l -3.89844,2.11914 c -2.14431,1.16515 -5.70674,3.09308 -7.91602,4.28515 -2.20928,1.19208 -4.67561,2.54551 -5.48047,3.00586 -0.80484,0.46036 -1.60164,0.70594 -1.77148,0.54688 -0.49787,-0.46631 -0.36787,-114.69178 0.13086,-114.98047 0.57844,-0.33482 8.33853,-1.40014 15.1543,-2.08008 4.23212,-0.42219 11.58877,-0.60028 18.60937,-0.55664 z m -0.0137,13.56836 c -2.05678,0.011 -4.14299,0.0896 -6.21094,0.24219 -3.88583,0.28664 -7.41108,0.64683 -7.83398,0.79883 -0.69579,0.25007 -0.76953,2.35344 -0.76953,22.13671 v 21.86329 h 8.15234 c 18.79532,-8.5e-4 26.6478,-1.96283 33.47656,-8.35938 4.69947,-4.40203 6.57422,-8.64364 6.57422,-14.87891 0,-10.08298 -6.05733,-17.24466 -17.01367,-20.11718 -4.30402,-1.12843 -10.20466,-1.71849 -16.375,-1.68555 z m 56.36523,76.02344 c 0.73164,0 1.04284,1.57272 1.40625,7.08203 0.51768,7.84798 -1.60031,15.62768 -5.94726,21.84765 -7.20423,10.30843 -16.85791,15.46968 -34.51563,18.45313 -5.23759,0.88491 -7.68795,1.00889 -21.96289,1.10742 -16.72018,0.11539 -28.34718,-0.42781 -27.13281,-1.26758 0.1083,-0.0749 5.30053,-2.86215 11.53906,-6.19531 l 11.34375,-6.06055 6.85157,-0.002 c 15.92105,-0.003 26.12653,-2.82034 32.86328,-9.07226 3.65242,-3.38957 5.71158,-7.23582 6.67187,-12.4629 0.39543,-2.15236 0.75186,-3.93712 0.79297,-3.96484 1.30349,-0.87893 17.71374,-9.46484 18.08984,-9.46484 z m -105.36132,27.4414 c -0.98536,0 -1.25783,0.48035 -0.64258,1.13672 0.80627,0.86019 1.27148,0.76785 1.27148,-0.25195 0,-0.48687 -0.28236,-0.88477 -0.6289,-0.88477 z m -10.58008,7.25 c -0.0497,0.0465 -0.0843,0.20118 -0.0957,0.45899 -0.0205,0.46658 0.091,0.72715 0.24805,0.58008 0.15703,-0.14708 0.17362,-0.52815 0.0371,-0.84766 -0.0754,-0.17654 -0.13977,-0.23794 -0.18945,-0.19141 z m 0.0117,5.30274 c -0.0421,0.0334 -0.069,0.23632 -0.0899,0.61523 -0.0583,1.05886 0.61054,1.33507 1.17188,0.48438 0.20048,-0.30381 0.13123,-0.3903 -0.17188,-0.21485 -0.28041,0.16231 -0.60708,-0.0573 -0.72656,-0.48632 -0.0827,-0.29677 -0.14146,-0.43188 -0.18359,-0.39844 z m 17.78515,14.44726 c 0.27526,0 0.50196,0.29696 0.50196,0.66211 0,0.36515 -0.37328,0.64992 -0.82813,0.63086 -0.49892,-0.0211 -0.59056,-0.1245 -0.23242,-0.25976 0.32651,-0.12327 0.47308,-0.40628 0.32617,-0.62891 -0.14691,-0.22263 -0.0428,-0.4043 0.23242,-0.4043 z m -13.99804,5.99024 c -0.46658,0.0296 -1.44153,0.20654 -2.51368,0.46484 l -2.59961,0.62695 2.54493,-0.20898 c 2.42452,-0.19789 3.28506,-0.45758 2.85156,-0.86133 -0.0271,-0.0252 -0.12768,-0.0314 -0.2832,-0.0215 z" />
      <path
         id="path566"
         style="fill:#a54473;stroke-width:0.457346"
         transform="matrix(1.0777111,0,0,1.2121022,162.48207,200.08169)"
         d="m 534.54492,279.10156 c -7.5527,0.0191 -16.65973,0.0574 -27.6289,0.11328 -31.19958,0.15885 -57.36284,0.37779 -58.14258,0.48828 -3.5096,0.49735 -3.29737,0.25449 -3.44727,3.93555 -0.0759,1.86411 -0.34087,3.38867 -0.58984,3.38867 -0.28538,0 -0.45313,15.61227 -0.45313,42.24024 v 42.23828 l 0.98047,0.29297 c 0.53941,0.16035 0.85672,0.4068 0.70508,0.54883 -0.15165,0.14202 0.27396,0.59534 0.94531,1.00781 l 1.22071,0.75 -1.22071,0.21875 c -0.99013,0.17727 -1.12102,0.10447 -0.6875,-0.38477 0.29401,-0.3318 0.34982,-0.62366 0.12305,-0.65039 -0.22676,-0.0267 -1.11526,-0.10463 -1.97461,-0.17187 -0.85935,-0.0672 -1.81668,-0.43745 -2.12695,-0.82227 -0.58877,-0.73019 -2.23508,-0.75719 -2.25586,-0.0371 -0.007,0.22818 0.35644,0.48711 0.80664,0.57422 0.4502,0.0871 1.10694,0.42809 1.45898,0.75781 0.35204,0.32973 1.37268,0.78761 2.26953,1.01954 0.89685,0.23192 2.19982,0.84169 2.89454,1.35351 0.75983,0.55978 1.61545,0.82583 2.14648,0.66797 0.55986,-0.16642 0.83444,-0.0655 0.75195,0.27734 -0.14771,0.6141 4.35057,4.01019 4.89453,3.69532 0.19506,-0.11292 0.73864,0.16272 1.20899,0.61132 0.77995,0.74389 1.82181,1.3545 6.76172,3.95899 1.86693,0.9843 8.07986,4.37763 14.41406,7.87305 2.33923,1.29087 8.18766,4.48608 12.99609,7.10156 4.80844,2.61545 11.29508,6.14738 14.41407,7.84765 3.11898,1.70028 9.07182,4.93551 13.23046,7.18946 51.69542,28.01833 51.14492,27.68373 53.58008,32.50976 1.77089,3.50957 1.9912,9.31183 0.49414,13.05664 -1.91165,4.78193 -4.67086,6.80985 -21.9375,16.125 -14.3031,7.71637 -24.30134,13.14872 -52.9082,28.75 -6.74573,3.67892 -12.53518,6.68946 -12.86719,6.68946 -0.33201,0 -0.75082,-0.54735 -0.92968,-1.2168 -0.89129,-3.33587 -3.82268,-8.13504 -7.20313,-11.78906 l -2,-2.16211 1.80078,-0.97266 c 0.99115,-0.53564 9.88299,-5.31784 19.75977,-10.62695 9.87678,-5.30912 21.46726,-11.54448 25.75586,-13.85547 4.2886,-2.311 12.79433,-6.88172 18.90234,-10.15625 6.10801,-3.27453 11.36743,-6.18551 11.68555,-6.4707 0.44794,-0.40155 -1.36574,-1.55981 -8.03516,-5.13282 -4.7367,-2.53758 -12.01323,-6.44541 -16.17187,-8.68359 -4.15865,-2.23818 -12.66633,-6.81515 -18.9043,-10.16992 -6.23797,-3.35479 -14.7437,-7.93404 -18.90234,-10.17774 -4.15865,-2.24369 -10.85804,-5.80886 -14.88672,-7.92187 -4.02869,-2.11301 -7.64333,-4.02426 -8.03321,-4.24805 -3.42931,-1.96836 -9.93372,-5.29883 -10.34961,-5.29883 -0.28598,0 -0.51953,-0.17326 -0.51953,-0.38671 0,-0.21347 -1.11591,-0.83515 -2.48047,-1.38086 -1.36455,-0.5457 -3.38419,-1.55838 -4.48632,-2.25 -2.81964,-1.76944 -4.09338,-2.38255 -3.69532,-1.7793 0.44764,0.67837 -0.32214,0.60686 -1.39648,-0.12891 -0.98705,-0.67598 -2.11914,-0.4821 -2.11914,0.36328 0,0.29668 0.47964,0.96055 1.06445,1.47461 1.05865,0.9306 1.06143,0.98088 0.82617,11.47461 -0.23577,10.51694 -0.23783,10.54052 -1.29882,10.68164 -0.58481,0.0778 -1.06446,0.32623 -1.06446,0.55274 0,0.59295 5.08272,0.51422 5.29492,-0.082 0.0965,-0.27152 0.59357,-0.39128 1.10352,-0.26758 0.87875,0.21317 0.87323,0.24209 -0.10938,0.53906 -0.57019,0.17234 -1.10202,0.74075 -1.18164,1.26367 -0.11965,0.7862 -0.41162,0.92573 -1.68164,0.80664 -1.14788,-0.10762 -1.53515,0.0316 -1.53515,0.55274 0,0.49953 0.46199,0.69726 1.62695,0.69726 0.89437,0 1.73902,0.17453 1.87891,0.38672 0.22634,0.34301 1.38003,0.67583 4.24414,1.22656 0.49326,0.0949 1.44865,0.46121 2.125,0.81446 0.67634,0.35324 2.34842,1.14552 3.71484,1.75976 12.13023,5.4528 19.16042,14.79937 19.8418,26.38086 0.57198,9.72196 -2.65393,17.63123 -9.88086,24.23047 -3.11329,2.84287 -8.49263,6.34672 -11.14649,7.25977 -2.24689,0.77303 -2.06402,1.84168 0.38868,2.27929 1.81305,0.32349 2.77287,0.74408 7.05468,3.09766 4.3601,2.3966 8.03516,5.05764 8.03516,5.81836 0,0.26302 -1.43698,1.25748 -3.19141,2.20898 -4.05957,2.2017 -5.92468,3.39613 -6.4082,4.10547 -0.21091,0.30937 -0.60244,0.43481 -0.87109,0.2793 -0.26865,-0.15551 -1.09923,0.14071 -1.84375,0.65625 -0.74451,0.51553 -1.85993,0.9375 -2.48047,0.9375 -1.00879,0 -1.70775,-0.39453 -4.08203,-2.30274 -0.37505,-0.30141 -0.9069,-0.58485 -1.18164,-0.6289 -1.34125,-0.21512 -3.09766,-1.08521 -3.09766,-1.53516 0,-0.2874 -0.40922,-0.40717 -0.94727,-0.27539 -0.52018,0.12741 -0.83372,0.0642 -0.69726,-0.14258 0.22044,-0.33405 -3.59851,-2.19726 -4.50391,-2.19726 -0.19657,0 -0.45932,0.49058 -0.58203,1.09179 -0.1227,0.60122 -0.056,0.99723 0.14844,0.87891 0.2044,-0.11832 0.48524,-0.0448 0.62304,0.16406 0.13781,0.20883 0.90827,0.34355 1.71094,0.29883 0.9624,-0.0536 1.60718,0.17876 1.89453,0.68164 0.35855,0.62746 0.17761,0.80932 -1.01757,1.03321 -0.79889,0.14929 -2.2799,0.14781 -3.29297,-0.004 -1.06498,-0.1595 -1.84375,-0.0969 -1.84375,0.14844 0,0.55985 1.87043,1.48047 3.19922,1.57422 l 1.05468,0.0742 v 14.51172 c 0,9.77007 -0.16065,14.51172 -0.49218,14.51172 -0.31101,0 -0.4427,1.26294 -0.35547,3.42969 0.0759,1.88662 0.32773,3.36488 0.55859,3.2832 0.23085,-0.0816 0.5828,0.0986 0.7832,0.40235 0.43319,0.65647 -0.58837,1.73632 -1.64257,1.73632 -0.92497,0 -0.95638,0.61053 -0.0684,1.30079 0.92883,0.72198 3.88473,0.15158 5.93359,-1.14454 0.90507,-0.57253 1.89358,-1.04101 2.19531,-1.04101 0.30173,0 0.6707,-0.29891 0.82031,-0.66406 0.14961,-0.36515 0.57437,-0.66407 0.94532,-0.66407 0.37094,0 1.28158,-0.71162 2.02344,-1.58203 0.74185,-0.87041 1.74935,-1.9547 2.23828,-2.41015 2.33955,-2.17937 3.77639,-5.77878 4.76953,-11.94922 0.24151,-1.50055 0.59188,-1.7431 9.44336,-6.5293 5.05551,-2.73364 9.39965,-4.9707 9.65429,-4.9707 1.92406,0 2.12651,12.92473 0.30469,19.44922 -2.05259,7.35094 -7.78752,15.48085 -13.86914,19.66211 -2.28832,1.57325 -11.42773,6.15021 -11.42773,5.72265 0,-0.13093 -0.27251,-0.0264 -0.60547,0.23242 -0.33297,0.2588 -1.12977,0.57464 -1.77149,0.70313 -1.89605,0.37975 -5.75234,1.59117 -7.7832,2.44531 l -1.89062,0.79688 0.23632,31.8164 0.23633,31.81641 1.0625,0.14062 c 2.11178,0.28088 1.00444,0.96485 -1.5625,0.96485 -1.63102,0 -2.51726,0.16855 -2.33594,0.44336 0.16064,0.24343 0.0141,0.45968 -0.32617,0.48047 -0.34024,0.0209 -0.0711,0.19288 0.59766,0.38281 0.66874,0.18992 3.4168,0.37372 6.10742,0.4082 2.69062,0.0346 5.00055,0.16517 5.13281,0.28906 0.13226,0.12392 26.83709,0.16338 59.34375,0.0879 64.27128,-0.14911 59.801,0.0172 69.02735,-2.56445 5.347,-1.4962 13.3308,-5.36795 18.43164,-8.9375 14.23336,-9.96043 23.00731,-24.46656 24.82422,-41.04687 0.35529,-3.24247 0.45491,-41.30939 0.33398,-125.92188 -0.15633,-109.36896 -0.24617,-121.60007 -0.93164,-124.59375 -6.00494,-26.22491 -27.30712,-44.49533 -55.24414,-47.38476 -3.09656,-0.32027 -11.77745,-0.43441 -34.43555,-0.37696 z M 436.25,364.92773 c -0.25991,0 -0.47266,0.19797 -0.47266,0.44141 0,0.24344 0.21275,0.44336 0.47266,0.44336 0.25991,0 0.47266,-0.19992 0.47266,-0.44336 0,-0.24344 -0.21275,-0.44141 -0.47266,-0.44141 z m 2.29102,3.66993 c -0.0349,-0.0213 -0.31606,0.0992 -0.87305,0.34765 -0.64979,0.28984 -1.2706,0.60071 -1.37891,0.68946 -0.64852,0.53142 0.88977,0.0375 1.64258,-0.52735 0.43248,-0.32451 0.64427,-0.48844 0.60938,-0.50976 z m 4.74609,0.85742 c -0.0698,-0.0576 -0.23291,0.066 -0.42188,0.33984 -0.25196,0.36515 -0.45703,0.86399 -0.45703,1.10742 0,0.24343 0.20507,0.14445 0.45703,-0.2207 0.25196,-0.36515 0.45899,-0.86398 0.45899,-1.10742 0,-0.0609 -0.0139,-0.1 -0.0371,-0.11914 z m -0.13281,30.14844 c -0.16946,-0.0267 -0.28907,0.0703 -0.28907,0.26367 0,0.2578 0.21275,0.46875 0.47266,0.46875 0.25992,0 0.47266,-0.088 0.47266,-0.19532 0,-0.10735 -0.21274,-0.3183 -0.47266,-0.46874 -0.065,-0.0376 -0.12711,-0.0595 -0.18359,-0.0684 z m 4.2539,7.08007 c 0.0565,0.009 0.11862,0.0327 0.1836,0.0703 0.25992,0.15045 0.47265,0.3614 0.47265,0.46875 0,0.10735 -0.21273,0.19531 -0.47265,0.19531 -0.25992,0 -0.47266,-0.21095 -0.47266,-0.46875 0,-0.19335 0.1196,-0.29231 0.28906,-0.26563 z m -4.63672,35.03321 c -1.06713,0.0349 -0.9817,1.06194 0.40821,1.38867 0.88231,0.20741 1.11919,0.58139 1.17969,1.87109 l 0.0742,1.61133 0.20118,-1.54687 c 0.10959,-0.85105 0.41759,-1.79527 0.68554,-2.09766 0.51675,-0.58317 0.31112,-0.70156 -2.02148,-1.17578 -0.19911,-0.0405 -0.3749,-0.0558 -0.52735,-0.0508 z m 3.32618,1.19922 c -0.61059,0.0533 -0.86914,1.22033 -0.86914,3.69921 0,1.90056 -0.19995,3.29297 -0.47266,3.29297 -0.30193,0 -0.47266,3.83638 -0.47266,10.62305 0,6.78667 -0.17073,10.62109 -0.47265,10.62109 -0.27242,0 -0.47266,1.38551 -0.47266,3.27149 0,3.05825 -0.0708,3.28895 -1.10156,3.53125 -0.60647,0.14257 -1.10399,0.51242 -1.10352,0.82226 4.9e-4,0.31069 0.59619,0.58567 1.32617,0.61133 0.72798,0.0255 1.22402,-0.10449 1.10352,-0.28711 -0.12051,-0.18261 0.11992,-0.45428 0.53516,-0.60351 0.64464,-0.23169 0.70732,-0.78644 0.42187,-3.80664 -0.23386,-2.47443 -0.17749,-3.53907 0.1875,-3.53907 0.33426,0 0.52149,1.19372 0.52149,3.32032 0,2.65566 0.14189,3.32031 0.70898,3.32031 0.38987,0 0.70898,-0.25696 0.70898,-0.57031 0,-0.31334 0.37285,-0.59665 0.83008,-0.62891 3.04036,-0.2145 4.3746,-1.89022 1.97266,-2.47852 -1.2011,-0.29417 -1.17594,-1.1914 0.0332,-1.1914 0.52509,0 0.94336,0.29522 0.94336,0.66406 0,1.04562 1.26855,0.77784 2.57813,-0.54492 1.98199,-2.00197 3.57095,-5.71413 4.09961,-9.57617 0.62409,-4.5592 0.2946,-7.19366 -1.41407,-11.28516 -1.08043,-2.58713 -1.9223,-3.75866 -4.07617,-5.68164 -1.92905,-1.72226 -2.97815,-2.35713 -3.63086,-2.19727 -0.79279,0.19418 -0.8364,0.12319 -0.3164,-0.51562 0.33117,-0.40668 0.41688,-0.59257 0.18945,-0.41211 -0.22743,0.18046 -0.68992,0.11384 -1.02735,-0.14844 -0.28547,-0.2219 -0.52693,-0.32831 -0.73046,-0.31054 z m 2.91211,4.33593 c 0.51982,0 0.94531,0.19993 0.94531,0.44336 0,0.24344 -0.42549,0.44141 -0.94531,0.44141 -0.51984,0 -0.94532,-0.19797 -0.94532,-0.44141 0,-0.24343 0.42548,-0.44336 0.94532,-0.44336 z m -2.8086,58.42383 c 0.24458,0 0.44531,0.19993 0.44531,0.44336 0,0.24344 -0.33111,0.44336 -0.73632,0.44336 -0.40525,0 -0.60595,-0.19992 -0.44532,-0.44336 0.16064,-0.24343 0.49176,-0.44336 0.73633,-0.44336 z m 1.36133,29.21289 c 0.53517,0 0.97461,0.19993 0.97461,0.44336 0,0.24344 -0.30711,0.44141 -0.68164,0.44141 -0.37454,0 -0.81202,-0.19797 -0.97266,-0.44141 -0.16063,-0.24343 0.14452,-0.44336 0.67969,-0.44336 z m -0.0293,7.28321 c 0.0743,0.0104 0.16439,0.0345 0.26953,0.0723 0.40338,0.14498 0.73438,0.34182 0.73438,0.4375 0,0.35847 -0.90216,0.1569 -1.17969,-0.26367 -0.12417,-0.1882 -0.0472,-0.27724 0.17578,-0.24609 z m -1.10351,0.74023 c 0.0994,-6.2e-4 0.19602,0.0105 0.28125,0.0371 0.35393,0.11049 0.13902,0.31224 -0.5,0.46875 -0.78606,0.19252 -0.96982,0.13509 -0.61914,-0.19336 0.20596,-0.1929 0.53954,-0.31066 0.83789,-0.3125 z m -7.34375,3.54297 c -0.21414,0 -0.42935,0.0304 -0.5918,0.0918 -0.32489,0.12277 -0.058,0.22265 0.5918,0.22265 0.64982,0 0.91473,-0.0999 0.58984,-0.22265 -0.16244,-0.0614 -0.37571,-0.0918 -0.58984,-0.0918 z m 7.04883,16.37304 c 0.16417,0.006 0.30429,0.0476 0.38281,0.1211 0.15703,0.14708 -0.12098,0.25148 -0.61914,0.23242 -0.55053,-0.0212 -0.66214,-0.12629 -0.28516,-0.26758 0.17057,-0.0639 0.35732,-0.0923 0.52149,-0.0859 z" />
      <path
         id="path564"
         style="fill:#b73c60;stroke-width:0.457346"
         transform="matrix(1.0777111,0,0,1.2121022,162.48207,200.08169)"
         d="m 550.56836,279.54688 c -4.3154,0.0194 -9.44971,0.0575 -15.55078,0.11328 -17.80421,0.16286 -32.79658,0.37845 -33.31641,0.47851 -0.51983,0.10006 -2.59307,0.19815 -4.60742,0.2168 l -3.66211,0.0332 v 3.32031 c 0,3.02449 0.0842,3.31836 0.94531,3.31836 0.93959,0 0.94336,0.29525 0.94336,53.11328 0,52.81804 -0.003,53.11329 -0.94336,53.11329 -0.85402,0 -0.94531,0.29551 -0.94531,3.0625 0,1.68414 -0.14329,3.40753 -0.31641,3.83007 -0.27832,0.6793 -0.0718,0.73822 1.77344,0.50977 1.97511,-0.24453 2.02244,-0.22473 0.9043,0.35937 -0.70019,0.36577 -0.89277,0.62429 -0.47266,0.63477 0.38988,0.01 1.79442,0.78836 3.1211,1.73047 1.32668,0.94211 3.17467,1.94862 4.10547,2.23633 0.93078,0.28771 1.76004,0.6612 1.84179,0.83008 0.29586,0.61109 4.20718,2.76849 4.60352,2.53906 0.22357,-0.12941 0.52022,0.0402 0.6582,0.37695 0.13798,0.33677 1.80734,1.44018 3.71094,2.45313 1.9036,1.01295 4.95013,2.71428 6.76953,3.77929 1.81941,1.06501 4.58504,2.64814 6.14453,3.51953 1.55949,0.87139 3.68494,2.07768 4.72461,2.67969 1.03966,0.60202 2.95434,1.62364 4.25391,2.27149 1.29957,0.64784 4.23605,2.24571 6.52539,3.55078 2.28933,1.30506 4.25148,2.37304 4.36132,2.37304 0.10984,0 1.36306,0.69681 2.78516,1.54883 1.4221,0.85203 2.70433,1.54883 2.84961,1.54883 0.14529,0 1.91037,0.96329 3.92188,2.13867 2.01149,1.17537 5.02408,2.81419 6.69335,3.64258 4.39765,2.18236 7.75447,5.241 9.59376,8.74024 1.42823,2.71718 1.54589,3.26829 1.52343,7.1582 -0.0205,3.55367 -0.21357,4.59902 -1.23242,6.67187 -1.95775,3.98305 -4.5994,6.37899 -10.32227,9.36328 -1.16961,0.60992 -5.10337,2.75904 -8.74218,4.77735 -3.63882,2.01831 -9.16813,5.06394 -12.28711,6.76758 -3.11899,1.70363 -6.41451,3.52265 -7.32422,4.04101 -2.74372,1.5634 -3.39973,1.92163 -7.08789,3.86914 -1.94936,1.02935 -4.92774,2.70237 -6.61719,3.71875 -1.68945,1.01639 -4.18818,2.37536 -5.55273,3.01953 -1.36456,0.64417 -2.48252,1.31762 -2.48438,1.4961 -0.004,0.36455 -2.27636,1.42969 -3.04883,1.42969 -0.27552,-10e-6 -0.7652,0.39985 -1.08984,0.88671 -0.32464,0.48688 -0.82668,0.88477 -1.11328,0.88477 -0.45067,0 -3.31672,1.57612 -10.27735,5.65234 -0.94411,0.55289 -1.94996,1.11148 -2.23632,1.24024 -0.28636,0.12876 -0.41602,0.74926 -0.28711,1.38086 0.21319,1.04453 0.12612,1.12353 -0.97266,0.86523 -1.17314,-0.27577 -1.19254,-0.24601 -0.66992,1.05078 0.33496,0.83113 0.77918,1.24871 1.17773,1.10547 0.35219,-0.12658 0.83556,-0.23047 1.07422,-0.23047 0.23866,0 0.4336,-0.37706 0.4336,-0.83789 0,-1.1052 0.76051,-1.30156 3.1914,-0.82812 2.22521,0.43337 2.75441,1.33725 0.70899,1.21093 -0.71478,-0.0442 -1.77848,-0.059 -2.36328,-0.0332 l -1.06446,0.0469 v 57.08398 57.08399 l -1.53515,0.38085 c -1.84155,0.45731 -1.21953,0.70154 3.18945,1.25391 l 2.83594,0.35547 -2.83594,0.27148 c -3.609,0.34431 -0.42936,0.42888 32.13477,0.86914 37.0759,0.50126 42.5618,0.27309 51.27539,-2.14648 10.84157,-3.01049 19.62696,-8.13667 27.77734,-16.20508 6.38602,-6.32178 10.63209,-12.95094 13.57617,-21.1914 3.26298,-9.13302 3.05127,0.32639 3.06055,-135.80079 0.008,-121.16005 -0.009,-123.40684 -0.92774,-127.70117 -5.2638,-24.59241 -26.01599,-43.01569 -52.5625,-46.66601 -2.21683,-0.30484 -7.79402,-0.41573 -20.74023,-0.35742 z M 490.5957,394.63867 c -0.21413,0 -0.42935,0.0304 -0.59179,0.0918 -0.3249,0.12279 -0.058,0.22461 0.59179,0.22461 0.64982,0 0.91475,-0.10182 0.58985,-0.22461 -0.16245,-0.0614 -0.37571,-0.0918 -0.58985,-0.0918 z m -1.72265,2.76758 c -0.42477,0.008 -0.48403,0.13818 -0.23438,0.41992 0.25193,0.28431 0.99736,0.51758 1.65625,0.51758 1.51571,0 0.80944,-0.73327 -0.87304,-0.90625 -0.22533,-0.0232 -0.40724,-0.0341 -0.54883,-0.0312 z m 3.37695,1.60156 c -0.38987,0 -0.70898,0.19993 -0.70898,0.44336 0,0.24344 0.31911,0.44141 0.70898,0.44141 0.38987,0 0.70898,-0.19797 0.70898,-0.44141 0,-0.24343 -0.31911,-0.44336 -0.70898,-0.44336 z m 7.19922,1.58399 c 0.29881,-0.0219 0.44323,0.063 0.33398,0.22851 -0.14566,0.22073 -0.57077,0.40039 -0.94531,0.40039 -0.97811,0 -0.83978,-0.30005 0.26367,-0.57031 0.13005,-0.0319 0.24805,-0.0513 0.34766,-0.0586 z m -6.39258,23.11914 c -0.34346,-0.0141 -0.43181,0.19707 -0.5,0.70898 -0.32022,2.40386 -0.26348,3.06029 0.2832,3.23828 0.37313,0.12149 0.5918,-0.22894 0.5918,-0.95117 0,-0.80573 0.2434,-1.13327 0.82617,-1.11133 2.43895,0.0917 3.40817,2.18164 1.01172,2.18164 -1.44149,0 -1.85548,0.73696 -0.65625,1.16797 0.61812,0.22217 0.70703,3.35772 0.70703,24.50391 0,21.14618 -0.0889,24.28174 -0.70703,24.5039 -0.38987,0.14013 -0.70898,0.55885 -0.70898,0.93165 0,0.68457 0.67924,0.8489 2.83398,0.68554 l 1.18164,-0.0879 -1.29883,1.28125 c -0.71477,0.70508 -1.30078,1.7195 -1.30078,2.25391 0,1.21294 0.63293,1.22536 2.66211,0.0508 0.87539,-0.50673 1.5918,-0.81127 1.5918,-0.67578 0,0.32642 6.81437,-3.04186 9.21484,-4.55469 1.03966,-0.65521 2.84796,-1.54672 4.01758,-1.98242 1.16962,-0.4357 2.44607,-1.04217 2.83594,-1.3457 0.80424,-0.62616 3.2672,-1.95289 8.74219,-4.71094 2.07932,-1.04747 5.26348,-2.76515 7.07617,-3.81641 1.81268,-1.05125 3.46619,-1.91015 3.67383,-1.91015 0.20762,0 2.07538,-0.94721 4.15039,-2.10352 2.07501,-1.15631 5.73806,-3.12316 8.14062,-4.37109 4.43596,-2.30412 5.12764,-3.09625 3.41406,-3.91407 -0.52514,-0.25062 -2.65254,-1.38014 -4.72656,-2.50976 -3.87337,-2.10966 -20.81871,-11.05508 -25.03711,-13.2168 -1.29958,-0.66597 -4.48873,-2.29985 -7.08789,-3.63281 -2.59915,-1.33295 -5.6839,-2.85354 -6.85351,-3.37695 -1.16962,-0.52343 -2.68224,-1.30092 -3.36329,-1.72852 -2.50496,-1.57281 -7.37493,-4.09766 -7.90429,-4.09766 -0.29992,0 -0.54688,-0.15563 -0.54688,-0.3457 0,-0.19006 -0.59372,-0.55562 -1.32031,-0.8125 -0.43949,-0.15537 -0.73728,-0.2435 -0.94336,-0.25195 z m 5.80859,4.08008 c 0.25992,0 0.15355,0.1937 -0.23632,0.42968 -0.38988,0.23599 -0.92173,0.42774 -1.18164,0.42774 -0.25993,0 -0.15355,-0.19175 0.23632,-0.42774 0.38988,-0.23598 0.92173,-0.42968 1.18164,-0.42968 z m -6.13476,54.65625 -0.24609,1.32421 c -0.13747,0.7433 -0.55353,1.34252 -0.94922,1.36719 -2.48265,0.15499 -2.49031,0.15799 -1.89649,0.82813 0.32531,0.36712 1.14275,0.58808 1.87891,0.50781 2.13152,-0.23245 2.35568,-0.53467 1.7539,-2.37109 z m 5.13672,25.05664 c 0.67361,0.0544 1.70703,0.50056 1.70703,0.85742 0,0.56989 -1.76341,0.52192 -2.14649,-0.0586 -0.17128,-0.25963 -0.1989,-0.57732 -0.0625,-0.70507 0.0928,-0.0869 0.27742,-0.11188 0.50196,-0.0937 z m -7.53516,5.2539 c -0.37452,0 -0.68164,0.19993 -0.68164,0.44336 0,0.24343 0.43749,0.44336 0.97266,0.44336 0.53517,0 0.84227,-0.19993 0.68164,-0.44336 -0.16064,-0.24343 -0.59812,-0.44336 -0.97266,-0.44336 z" />
      <path
         id="path562"
         style="fill:#ca344a;stroke-width:0.457346"
         transform="matrix(1.0777111,0,0,1.2121022,162.48207,200.08169)"
         d="m 551.33789,280.20312 c -2.93417,0.0162 -5.42105,0.0472 -6.75391,0.0899 l -4.8457,0.1543 0.11914,70.49609 c 0.11494,66.95328 0.0804,70.48731 -0.70508,70.29492 -0.45485,-0.11141 -0.82617,0.004 -0.82617,0.25781 0,0.25914 0.72244,0.39734 1.65235,0.31641 0.9097,-0.0795 1.65429,-0.0758 1.65429,0.006 0,0.0816 -0.21469,0.68017 -0.47851,1.33008 -0.39143,0.96421 -0.69036,1.13181 -1.625,0.91211 -2.56791,-0.60364 -1.45634,0.65633 1.98047,2.24414 2.01712,0.93192 3.88071,1.94477 4.14062,2.25195 0.27925,0.33001 1.14175,0.48502 2.10938,0.37891 1.45339,-0.1594 1.54174,-0.11325 0.7832,0.40625 -0.79148,0.54205 -0.72113,0.66464 0.96094,1.65429 2.71554,1.59771 5.92079,3.34474 7.25195,3.95313 0.64979,0.29697 1.78287,0.99553 2.51758,1.55273 0.7347,0.55721 1.51669,1.01367 1.73828,1.01367 1.67824,1e-5 10.86719,7.23182 10.86719,8.55274 0,0.29359 0.42749,1.28216 0.95117,2.19726 2.88027,5.03322 0.93902,14.1711 -3.97461,18.70899 -1.73531,1.6026 -5.69816,4.02458 -10.39844,6.35547 -1.18791,0.5891 -2.62636,1.53629 -3.19531,2.10351 -0.56896,0.56723 -1.26279,1.03125 -1.54297,1.03125 -0.61912,0 -8.33758,4.21679 -8.17969,4.46875 0.0616,0.0982 0.0398,0.14615 -0.0469,0.10547 -0.0867,-0.0406 -1.22397,0.42592 -2.52735,1.03906 -1.65042,0.7764 -2.2195,1.25547 -1.875,1.57813 0.34451,0.32267 0.86148,0.23992 1.70118,-0.27539 0.66313,-0.40693 1.20507,-0.61222 1.20507,-0.45508 0,0.15713 0.31912,0.0374 0.70899,-0.26562 1.05567,-0.82059 0.85846,0.1801 -0.21485,1.08984 -0.63724,0.54013 -1.44669,0.72653 -2.60742,0.59961 -1.0519,-0.11502 -1.61385,-0.01 -1.49804,0.28125 0.1019,0.25589 0.44022,0.41066 0.75195,0.34375 0.31172,-0.0669 0.43219,0.0826 0.26758,0.33203 -0.41585,0.6302 -1.53743,0.56811 -1.79883,-0.0996 -0.17046,-0.43545 -0.35578,-0.42906 -0.86719,0.0312 -0.54993,0.495 -0.53942,0.56182 0.0605,0.44141 0.62775,-0.126 0.70703,7.93477 0.70703,70.45508 0,62.45707 -0.0799,70.5957 -0.70703,70.5957 -0.38987,0 -0.70899,0.2989 -0.70899,0.66406 0,0.43464 0.65118,0.75739 1.88868,0.93359 l 1.89062,0.26758 -1.89062,0.16211 c -1.03966,0.089 3.42789,0.2664 9.92578,0.39453 v 0.002 c 6.49788,0.12822 12.23799,0.20063 12.75781,0.16211 0.51983,-0.0386 3.0406,-0.20079 5.60156,-0.36133 4.46315,-0.27973 9.82075,-1.08546 12.83008,-1.92774 4.18277,-1.17075 12.09738,-4.67754 15.83008,-7.01367 15.29672,-9.57346 25.12078,-24.45848 27.40625,-41.52734 0.38786,-2.89821 0.49141,-37.32527 0.37695,-126.36524 l -0.1582,-122.38086 -1.00195,-3.98437 c -2.83582,-11.27771 -7.98139,-20.24993 -16.2129,-28.27148 -3.52883,-3.43883 -8.91932,-7.80079 -9.64062,-7.80079 -0.13667,0 -1.16358,-0.56692 -2.28125,-1.25976 -4.72871,-2.93135 -12.25539,-5.81394 -18.80859,-7.20313 -3.85108,-0.81637 -6.10103,-0.96098 -15.83008,-1.01758 -3.11898,-0.0181 -6.50138,-0.0162 -9.43555,0 z m -6.39648,143.14844 c 0.25992,0 0.47265,0.19993 0.47265,0.44336 0,0.24344 -0.21273,0.44141 -0.47265,0.44141 -0.25992,0 -0.47266,-0.19797 -0.47266,-0.44141 0,-0.24343 0.21274,-0.44336 0.47266,-0.44336 z m -2.27539,0.98828 c 0.169,0.0229 0.37501,0.0948 0.61523,0.22071 0.69736,0.36553 0.70142,0.46321 0.041,0.97656 -0.60879,0.47321 -0.78387,0.44449 -1.03321,-0.16406 -0.29692,-0.72473 -0.13006,-1.10195 0.37696,-1.03321 z m -2.81641,24.46289 c -0.18708,0.01 -0.45739,0.0481 -0.81055,0.11133 -0.64676,0.11579 -1.05871,0.38727 -0.91601,0.60352 0.14693,0.22268 0.65681,0.19373 1.17578,-0.0664 0.92679,-0.46454 1.11202,-0.67799 0.55078,-0.64844 z m 0.90234,0.9336 c -0.32717,-0.021 -0.44323,0.25448 -0.64257,0.94922 -0.18818,0.65581 -0.8264,1.54845 -1.41797,1.98242 -1.07191,0.78634 -1.06867,0.78804 0.83789,0.52148 1.41567,-0.19792 2.07112,-0.0883 2.52148,0.41993 0.75489,0.8519 0.33948,1.53071 -1.29101,2.11132 -1.20345,0.42855 -1.21588,0.46478 -0.3086,0.92969 0.51983,0.26637 1.05168,0.63171 1.18164,0.81055 0.12996,0.17884 0.76819,0.40482 1.41797,0.50195 1.27057,0.18992 3.13588,-0.28779 4.125,-1.05664 0.4568,-0.35507 0.47915,-0.62827 0.084,-1.07422 -0.43049,-0.48579 -0.19837,-0.57785 1.24218,-0.49414 2.4246,0.1409 2.6691,-0.83068 0.42969,-1.70703 -0.97047,-0.37978 -2.07555,-0.98047 -2.45508,-1.33594 -0.51279,-0.48027 -0.85125,-0.5213 -1.31836,-0.1582 -0.74847,0.58178 -2.6393,-0.17868 -2.45703,-0.98828 0.0624,-0.27713 -0.41856,-0.76368 -1.06836,-1.08008 -0.41301,-0.2011 -0.68455,-0.31945 -0.88086,-0.33203 z m -2.41211,6.81055 c -0.26806,-10e-6 -0.48632,0.29891 -0.48632,0.66406 0,0.36515 0.31911,0.66406 0.70898,0.66406 0.39381,0 0.70898,0.39298 0.70898,0.88477 0,0.6386 0.31504,0.88476 1.13086,0.88476 0.62198,0 1.24491,-0.27779 1.38477,-0.61914 0.33242,-0.81134 -0.0692,-1.15039 -1.36328,-1.15039 -0.57866,0 -1.17462,-0.29891 -1.32422,-0.66406 -0.14961,-0.36515 -0.49169,-0.66406 -0.75977,-0.66406 z m 0.30274,3.25781 c -0.12472,-2.3e-4 -0.26986,0.0628 -0.42383,0.20703 -0.25991,0.24344 -0.31483,0.68007 -0.12305,0.9707 0.26493,0.40145 0.44,0.38941 0.73047,-0.0508 0.37369,-0.56629 0.19055,-1.12626 -0.18359,-1.12695 z m -3.09375,1.8125 c -0.0743,0.0104 -0.16635,0.0345 -0.27149,0.0723 -0.40337,0.14497 -0.73242,0.34183 -0.73242,0.4375 0,0.35848 0.90021,0.15691 1.17774,-0.26367 0.12416,-0.18819 0.0492,-0.27724 -0.17383,-0.24609 z m 2.23047,25.14062 c -0.29085,0.0389 -0.61763,0.27911 -0.76368,0.68946 -0.10288,0.28907 0.14902,0.52539 0.56055,0.52539 0.41153,0 0.75,-0.31574 0.75,-0.70118 0,-0.3908 -0.25603,-0.55258 -0.54687,-0.51367 z" />
      <path
         id="path560"
         style="fill:#da2e37;stroke-width:0.457346"
         transform="matrix(1.0777111,0,0,1.2121022,162.48207,200.08169)"
         d="m 576.36719,283.48633 c -0.42051,0 -0.6333,0.19992 -0.47266,0.44336 0.16064,0.24343 0.37338,0.44336 0.47266,0.44336 0.0993,0 0.31202,-0.19993 0.47265,-0.44336 0.16064,-0.24344 -0.0521,-0.44336 -0.47265,-0.44336 z m 7.10156,0.73047 c -0.1815,-4.1e-4 -0.3119,0.0378 -0.39453,0.11523 -0.3305,0.30955 -0.23509,0.52849 0.30273,0.68945 0.43334,0.1297 1.10622,0.32929 1.4961,0.44336 0.38987,0.11408 0.70898,0.42402 0.70898,0.68946 0,0.26544 -0.24485,0.34166 -0.54492,0.16797 -0.34075,-0.19724 -0.41669,-0.12248 -0.20313,0.20117 0.18808,0.28502 0.5393,0.40372 0.78125,0.26367 0.27121,-0.15699 0.43946,62.30636 0.43946,162.87305 0,144.70723 -0.0802,163.1289 -0.70899,163.1289 -0.56167,0 -0.72625,0.71176 -0.79492,3.42969 l -0.0859,3.42969 -0.27929,-3.54102 c -0.34319,-4.35412 -0.86513,-3.53634 -1.0586,1.66016 -0.10336,2.77653 0.0164,3.87309 0.41993,3.87304 0.30955,10e-6 0.69287,-0.19992 0.85351,-0.44335 0.16064,-0.24344 0.91919,-0.44141 1.68359,-0.44141 1.75489,0 1.87104,1.11693 0.15821,1.51953 -0.94024,0.22104 -1.17276,0.49916 -0.98438,1.17383 0.19845,0.71074 0.0688,0.82998 -0.66015,0.61328 -0.64072,-0.19045 -0.9043,-0.0566 -0.9043,0.45508 0,0.54192 0.26614,0.6506 1.0625,0.43164 1.71193,-0.47076 8.90738,-3.72174 10.31445,-4.66016 0.71022,-0.47363 1.63019,-0.86133 2.04492,-0.86133 0.41474,0 0.75391,-0.25992 0.75391,-0.57617 0,-0.31619 0.87088,-1.06152 1.93359,-1.6582 2.4103,-1.35328 9.12397,-7.19964 10.65039,-9.27344 0.62711,-0.85202 1.97914,-2.54031 3.00391,-3.75 2.81106,-3.31828 6.87105,-11.26913 8.58399,-16.81445 2.35047,-7.60925 2.25922,-2.27863 2.26757,-133.02149 0.007,-105.14881 -0.0895,-122.87959 -0.67968,-125.92187 -1.22713,-6.32569 -2.65044,-10.36579 -5.61329,-15.93359 -2.20875,-4.15082 -5.42894,-9.07422 -5.93554,-9.07422 -0.19489,0 -0.57661,-0.44837 -0.84961,-0.9961 -0.74402,-1.49259 -5.78218,-6.52734 -6.53125,-6.52734 -0.35893,0 -0.87098,-0.38502 -1.13867,-0.85352 -0.63,-1.10253 -5.96033,-4.90039 -6.87696,-4.90039 -0.38696,0 -0.70507,-0.16869 -0.70507,-0.37304 0,-0.4478 -2.12179,-1.39844 -3.1211,-1.39844 -0.39294,0 -0.58251,0.19993 -0.42187,0.44336 0.33718,0.51098 0.13797,0.54912 -0.90625,0.17383 -0.41113,-0.14776 -0.74805,-0.53963 -0.74805,-0.8711 0,-0.3762 0.2907,-0.49966 0.77344,-0.32617 0.53166,0.19109 0.70309,0.0832 0.55078,-0.3457 -0.12185,-0.34308 -0.75167,-0.64201 -1.40039,-0.66602 -0.64873,-0.024 -2.52285,-0.68372 -4.16406,-1.46484 -1.52774,-0.72693 -2.52778,-1.08083 -3.07227,-1.08203 z m -2.15625,0.22851 c -0.84873,0.0406 -1.87305,0.71396 -1.87305,1.32031 0,0.21988 0.69043,0.0567 1.53516,-0.36328 1.20915,-0.60122 1.35645,-0.80018 0.6875,-0.93359 -0.11061,-0.0221 -0.22836,-0.0292 -0.34961,-0.0234 z m 9.94141,6.12305 c 0.25991,0 0.47265,0.2989 0.47265,0.66406 0,0.36515 -0.21274,0.66406 -0.47265,0.66406 -0.25992,0 -0.47266,-0.29891 -0.47266,-0.66406 0,-0.36516 0.21274,-0.66406 0.47266,-0.66406 z m -18.40235,152.70117 c -0.27525,0 -0.5,0.19797 -0.5,0.44141 0,0.24343 0.0924,0.44336 0.20703,0.44336 0.11463,0 0.33937,-0.19993 0.5,-0.44336 0.16064,-0.24344 0.0682,-0.44141 -0.20703,-0.44141 z m 9.99805,10.375 c -0.0324,-0.003 -0.0659,0.005 -0.10156,0.0254 -0.25992,0.15045 -0.47266,0.95922 -0.47266,1.79688 0,0.83766 0.21274,1.52343 0.47266,1.52343 0.25991,0 0.47265,-0.80876 0.47265,-1.79687 0,-0.94937 -0.14407,-1.52921 -0.37109,-1.54883 z m 7.13281,166.23242 c 0.76608,-0.004 1.20371,0.18013 1.03516,0.43555 -0.36264,0.54955 -0.74635,0.54955 -1.6543,0 -0.55041,-0.33315 -0.4116,-0.4306 0.61914,-0.43555 z" />
    </g>
    <path
       id="rect39"
       style="opacity:0.25;fill:none;stroke-width:0.999999"
       transform="scale(0.26458333)"
       d="M 102.85742,162.85742 V 751.42773 H 737.14258 V 162.85742 h -510.1582 c -29.04203,8.24748 -58.40286,15.3582 -88.04102,21.01172 -8.58807,1.63819 -17.24067,3.04178 -25.94727,3.83789 -3.00441,0.27472 -8.83712,2.37032 -9.02734,-0.64062 -0.52066,-8.24091 2.49921,-16.20382 4.99219,-24.20899 z" />
  </g>
</svg>
